<svg xmlns="http://www.w3.org/2000/svg" viewBox="0 0 60 60"><path d="M21.021 28.977C18.75 26.412 15.722 25 12.493 25s-6.257 1.412-8.527 3.977c-4.612 5.211-4.612 13.688 0 18.899l8.527 9.633 8.527-9.633c4.613-5.211 4.613-13.688.001-18.899zM19.523 46.55l-7.029 7.941-7.03-7.941c-3.966-4.479-3.966-11.768 0-16.247C7.349 28.173 9.846 27 12.493 27s5.145 1.173 7.029 3.303c3.966 4.479 3.966 11.767.001 16.247zM48.747 24.507l6.464-7.286c3.478-3.92 3.478-10.296 0-14.216C53.491 1.067 51.195 0 48.746 0c-2.448 0-4.744 1.067-6.464 3.005-3.478 3.92-3.478 10.296 0 14.216l6.465 7.286zM43.778 4.333C45.113 2.828 46.877 2 48.746 2c1.87 0 3.634.828 4.969 2.333 2.828 3.187 2.828 8.373 0 11.56l-4.968 5.601-4.969-5.601c-2.828-3.187-2.828-8.373 0-11.56zM52.604 54.517c-.539-.121-1.074.217-1.195.756-.115.51-.338.979-.663 1.392-.341.434-.267 1.063.168 1.404.184.144.401.214.617.214.297 0 .59-.131.787-.382.504-.64.864-1.396 1.042-2.188.121-.54-.217-1.075-.756-1.196zM31.995 31c-.433-.001-.854-.078-1.252-.23-.512-.195-1.093.062-1.291.578-.196.516.063 1.094.578 1.291.626.238 1.285.36 1.963.361h.357c.553 0 1-.447 1-1s-.447-1-1-1h-.355zM29.621 24.676c.181 0 .363-.049.528-.151.443-.276.933-.445 1.454-.503.549-.061.945-.555.885-1.104s-.551-.941-1.104-.885c-.822.091-1.594.357-2.294.794-.469.292-.611.909-.319 1.378.19.304.516.471.85.471zM18.064 58h-2c-.553 0-1 .447-1 1s.447 1 1 1h2c.553 0 1-.447 1-1s-.448-1-1-1zM35.993 40c-.086 0-.171.002-.256.006-.552.022-.98.488-.958 1.04.021.538.465.959.998.959.014 0 .028 0 .042-.001L37.778 42c.553 0 1-.447 1-1s-.447-1-1-1h-1.785zM35.493 24h2c.553 0 1-.447 1-1s-.447-1-1-1h-2c-.553 0-1 .447-1 1s.447 1 1 1zM47.778 40c-.553 0-1 .447-1 1s.447 1 1 1h2c.553 0 1-.447 1-1s-.447-1-1-1h-2zM51.351 32c0-.553-.447-1-1-1h-2c-.553 0-1 .447-1 1s.447 1 1 1h2c.552 0 1-.447 1-1zM41.778 42h2c.553 0 1-.447 1-1s-.447-1-1-1h-2c-.553 0-1 .447-1 1s.448 1 1 1zM43.493 24c.553 0 1-.447 1-1s-.447-1-1-1h-2c-.553 0-1 .447-1 1s.447 1 1 1h2zM36.351 31c-.553 0-1 .447-1 1s.447 1 1 1h2c.553 0 1-.447 1-1s-.447-1-1-1h-2zM45.351 32c0-.553-.447-1-1-1h-2c-.553 0-1 .447-1 1s.447 1 1 1h2c.552 0 1-.447 1-1zM59.426 35.632c-.088-.546-.603-.919-1.146-.829-.546.087-.917.601-.829 1.146.028.178.044.359.042.552 0 .336-.048.668-.142.988-.155.53.148 1.086.679 1.241.094.027.188.04.281.04.433 0 .832-.282.96-.719.147-.503.222-1.024.222-1.543.002-.288-.02-.583-.067-.876zM42.064 58h-2c-.553 0-1 .447-1 1s.447 1 1 1h2c.553 0 1-.447 1-1s-.448-1-1-1zM36.064 58h-2c-.553 0-1 .447-1 1s.447 1 1 1h2c.553 0 1-.447 1-1s-.448-1-1-1zM47.065 50c0-.553-.447-1-1-1h-2c-.553 0-1 .447-1 1s.447 1 1 1h2c.552 0 1-.447 1-1zM41.065 50c0-.553-.447-1-1-1h-2c-.553 0-1 .447-1 1s.447 1 1 1h2c.552 0 1-.447 1-1zM47.993 58h-1.93c-.553 0-1 .447-1 1s.447 1 1 1l1.971-.001.029-1v1c.553 0 .965-.447.965-1 0-.552-.482-.999-1.035-.999zM51.531 52.719c.216 0 .435-.07.617-.214.435-.342.509-.971.168-1.404-.503-.639-1.152-1.167-1.879-1.528-.497-.247-1.095-.044-1.341.45-.246.495-.044 1.095.45 1.341.463.229.877.566 1.197.974.198.25.491.381.788.381zM55.345 39.729c-.429.18-.883.271-1.352.271h-.215c-.553 0-1 .447-1 1s.447 1 1 1h.215c.736 0 1.451-.144 2.125-.427.51-.214.749-.8.535-1.309-.213-.509-.803-.749-1.308-.535zM28.029 29.855c.524-.173.81-.738.638-1.263-.115-.351-.174-.718-.174-1.088.001-.151.01-.302.028-.449.069-.548-.319-1.049-.867-1.117-.565-.063-1.049.321-1.117.867-.028.226-.043.456-.044.694 0 .588.092 1.166.273 1.718.139.421.53.688.95.688.104 0 .21-.015.313-.05zM24.064 58h-2c-.553 0-1 .447-1 1s.447 1 1 1h2c.553 0 1-.447 1-1s-.448-1-1-1zM34.122 50.594c.38 0 .742-.217.91-.584.229-.503.009-1.096-.493-1.325-.469-.215-.894-.538-1.228-.936-.356-.423-.986-.478-1.409-.122-.423.355-.478.986-.122 1.409.524.623 1.19 1.131 1.927 1.467.135.061.276.091.415.091zM56.746 31.738c-.714-.414-1.494-.657-2.317-.722-.549-.04-1.032.367-1.075.919-.043.551.368 1.032.919 1.075.522.041 1.017.195 1.47.458.158.092.331.135.501.135.345 0 .681-.179.866-.498.277-.477.114-1.089-.364-1.367zM30.064 58h-2c-.553 0-1 .447-1 1s.447 1 1 1h2c.553 0 1-.447 1-1s-.448-1-1-1zM32.555 44.839c.099-.514.307-.989.619-1.413.327-.444.232-1.07-.213-1.398-.445-.326-1.07-.232-1.398.213-.489.666-.817 1.413-.973 2.222-.104.542.251 1.066.794 1.171.063.012.127.018.189.018.47-.002.889-.335.982-.813z"/><path d="M48.993 15c3.032 0 5.5-2.468 5.5-5.5S52.025 4 48.993 4s-5.5 2.468-5.5 5.5 2.468 5.5 5.5 5.5zm0-9c1.93 0 3.5 1.57 3.5 3.5s-1.57 3.5-3.5 3.5-3.5-1.57-3.5-3.5 1.571-3.5 3.5-3.5zM12.493 31c-3.309 0-6 2.691-6 6s2.691 6 6 6 6-2.691 6-6-2.691-6-6-6zm0 10c-2.206 0-4-1.794-4-4s1.794-4 4-4 4 1.794 4 4-1.794 4-4 4z"/></svg>