<svg width="31" height="30" viewBox="0 0 31 30" fill="none" xmlns="http://www.w3.org/2000/svg">
<path d="M24.5547 12.4336C23.5905 12.4336 22.6754 12.6468 21.8532 13.0279L20.3937 10.5H23.2273C23.9566 10.5 24.5999 10.0614 24.8663 9.3825C25.0791 8.8401 25.0103 8.22891 24.682 7.7475C24.3537 7.26609 23.8099 6.97869 23.2272 6.97869H21.0518C19.8595 6.97869 18.8833 7.94877 18.8759 9.14109L18.8747 9.32812H14.3789C14.0553 9.32812 13.7929 9.59051 13.7929 9.91406C13.7929 10.2376 14.0553 10.5 14.3789 10.5H18.6525L17.2529 16.9655L17.0959 16.7058C15.4911 14.0503 12.9758 12.1202 10.0012 11.2556L11.1467 6.78035C11.5253 7.10977 12.0191 7.30998 12.5593 7.30998H14.5637C14.8873 7.30998 15.1496 7.0476 15.1496 6.72404C15.1496 6.40049 14.8873 6.13811 14.5637 6.13811H12.5593C12.0172 6.13811 11.5762 5.69713 11.5762 5.15502C11.5762 4.61291 12.0172 4.17188 12.5593 4.17188H15.3781C15.7018 4.17188 15.9641 3.90949 15.9641 3.58594C15.9641 3.26238 15.7018 3 15.3781 3H12.5593C11.4614 3 10.5534 3.82535 10.4214 4.88801L8.46924 12.5152C8.13566 12.4617 7.79371 12.4335 7.44531 12.4335C3.89137 12.4335 1 15.3249 1 18.8788C1 22.4328 3.89137 25.3242 7.44531 25.3242C10.9993 25.3242 13.8906 22.4328 13.8906 18.8788C13.8906 16.0819 12.0996 13.6958 9.60443 12.806L9.71061 12.3913C12.3859 13.1788 14.6476 14.9201 16.093 17.3118L16.2863 17.6316C15.965 17.9503 15.7656 18.3917 15.7656 18.8789C15.7656 19.3798 15.9766 19.8321 16.3138 20.1525L15.4723 22.0392C15.3914 22.2205 15.4079 22.4304 15.5159 22.5969C15.6239 22.7634 15.8089 22.8639 16.0074 22.8639H17.0712C17.3948 22.8639 17.6571 22.6015 17.6571 22.2779C17.6571 21.9544 17.3948 21.692 17.0712 21.692H16.9104L17.3837 20.6307C17.4299 20.6344 17.4764 20.6368 17.5235 20.6368C17.8038 20.6368 18.0688 20.5704 18.3043 20.4533C19.0086 23.2487 21.5437 25.3242 24.5547 25.3242C28.1086 25.3242 31 22.4329 31 18.8789C31 15.325 28.1086 12.4336 24.5547 12.4336ZM18.5378 16.5688L19.6304 11.5215L20.8391 13.6152C19.8073 14.3457 18.9989 15.3717 18.5378 16.5688ZM21.428 14.6351L23.5398 18.293H19.314C19.4802 16.7964 20.2751 15.4869 21.428 14.6351ZM20.0478 9.14842C20.0512 8.59816 20.5016 8.15057 21.0518 8.15057H23.2272C23.425 8.15057 23.6023 8.24432 23.7137 8.40768C23.8251 8.57104 23.8476 8.77031 23.7753 8.95447C23.6862 9.18146 23.4711 9.32818 23.2272 9.32818H20.0466L20.0478 9.14842ZM17.5234 19.4648C17.2004 19.4648 16.9375 19.202 16.9375 18.8789C16.9375 18.5558 17.2004 18.293 17.5234 18.293C17.8465 18.293 18.1094 18.5558 18.1094 18.8789C18.1094 19.202 17.8465 19.4648 17.5234 19.4648ZM24.5547 24.1523C21.845 24.1523 19.6064 22.0979 19.314 19.4648H24.5547C24.764 19.4648 24.9575 19.3532 25.0621 19.1719C25.1668 18.9906 25.1668 18.7672 25.0621 18.5859L22.442 14.0477C23.0892 13.7636 23.8037 13.6055 24.5547 13.6055C27.4625 13.6055 29.8281 15.9711 29.8281 18.8789C29.8281 21.7867 27.4625 24.1523 24.5547 24.1523Z" fill="url(#paint0_linear)"/>
<path d="M23.5547 13.2715C22.5905 13.2715 21.6754 13.4846 20.8532 13.8658L19.3937 11.3379H22.2273C22.9566 11.3379 23.5999 10.8993 23.8663 10.2204C24.0791 9.67799 24.0103 9.0668 23.682 8.58539C23.3537 8.10398 22.8099 7.81658 22.2272 7.81658H20.0518C18.8595 7.81658 17.8833 8.78666 17.8759 9.97898L17.8747 10.166H13.3789C13.0553 10.166 12.7929 10.4284 12.7929 10.752C12.7929 11.0755 13.0553 11.3379 13.3789 11.3379H17.6525L16.2529 17.8034L16.0959 17.5437C14.4911 14.8882 11.9758 12.9581 9.00123 12.0935L10.1467 7.61824C10.5253 7.94766 11.0191 8.14787 11.5593 8.14787H13.5637C13.8873 8.14787 14.1496 7.88549 14.1496 7.56193C14.1496 7.23838 13.8873 6.976 13.5637 6.976H11.5593C11.0172 6.976 10.5762 6.53502 10.5762 5.99291C10.5762 5.4508 11.0172 5.00977 11.5593 5.00977H14.3781C14.7018 5.00977 14.9641 4.74738 14.9641 4.42383C14.9641 4.10027 14.7018 3.83789 14.3781 3.83789H11.5593C10.4614 3.83789 9.55336 4.66324 9.42141 5.7259L7.46924 13.3531C7.13566 13.2996 6.79371 13.2714 6.44531 13.2714C2.89137 13.2714 0 16.1628 0 19.7167C0 23.2707 2.89137 26.1621 6.44531 26.1621C9.99926 26.1621 12.8906 23.2707 12.8906 19.7167C12.8906 16.9198 11.0996 14.5337 8.60443 13.6438L8.71061 13.2292C11.3859 14.0167 13.6476 15.758 15.093 18.1497L15.2863 18.4695C14.965 18.7881 14.7656 19.2296 14.7656 19.7168C14.7656 20.2177 14.9766 20.6699 15.3138 20.9904L14.4723 22.8771C14.3914 23.0584 14.4079 23.2683 14.5159 23.4347C14.6239 23.6013 14.8089 23.7018 15.0074 23.7018H16.0712C16.3948 23.7018 16.6571 23.4394 16.6571 23.1158C16.6571 22.7923 16.3948 22.5299 16.0712 22.5299H15.9104L16.3837 21.4686C16.4299 21.4723 16.4764 21.4747 16.5235 21.4747C16.8038 21.4747 17.0688 21.4083 17.3043 21.2912C18.0086 24.0865 20.5437 26.1621 23.5547 26.1621C27.1086 26.1621 30 23.2707 30 19.7168C30 16.1629 27.1086 13.2715 23.5547 13.2715ZM11.7188 19.7168C11.7188 22.6246 9.35309 24.9902 6.44531 24.9902C3.53754 24.9902 1.17188 22.6246 1.17188 19.7168C1.17188 16.809 3.53754 14.4434 6.44531 14.4434C6.69363 14.4434 6.93785 14.461 7.17715 14.4944L5.87766 19.5715C5.79738 19.8851 5.98646 20.2042 6.3 20.2845C6.34875 20.2969 6.39762 20.3029 6.44572 20.3029C6.70693 20.3029 6.94518 20.1268 7.01291 19.8621L8.31234 14.7851C10.3013 15.5406 11.7188 17.4662 11.7188 19.7168ZM17.5378 17.4067L18.6304 12.3594L19.8391 14.4531C18.8073 15.1836 17.9989 16.2096 17.5378 17.4067ZM20.428 15.473L22.5398 19.1309H18.314C18.4802 17.6343 19.2751 16.3247 20.428 15.473ZM19.0478 9.98631C19.0512 9.43605 19.5016 8.98846 20.0518 8.98846H22.2272C22.425 8.98846 22.6023 9.08221 22.7137 9.24557C22.8251 9.40893 22.8476 9.6082 22.7753 9.79236C22.6862 10.0194 22.4711 10.1661 22.2272 10.1661H19.0466L19.0478 9.98631ZM16.5234 20.3027C16.2004 20.3027 15.9375 20.0399 15.9375 19.7168C15.9375 19.3937 16.2004 19.1309 16.5234 19.1309C16.8465 19.1309 17.1094 19.3937 17.1094 19.7168C17.1094 20.0399 16.8465 20.3027 16.5234 20.3027ZM23.5547 24.9902C20.845 24.9902 18.6064 22.9358 18.314 20.3027H23.5547C23.764 20.3027 23.9575 20.1911 24.0621 20.0098C24.1668 19.8285 24.1668 19.6051 24.0621 19.4238L21.442 14.8856C22.0892 14.6015 22.8038 14.4434 23.5547 14.4434C26.4625 14.4434 28.8281 16.809 28.8281 19.7168C28.8281 22.6246 26.4625 24.9902 23.5547 24.9902Z" fill="black"/>
<path d="M11.0349 10.166C10.8808 10.166 10.7296 10.2287 10.6207 10.3377C10.5117 10.4467 10.449 10.5979 10.449 10.752C10.449 10.9061 10.5117 11.0572 10.6207 11.1662C10.7296 11.2751 10.8808 11.3379 11.0349 11.3379C11.189 11.3379 11.3402 11.2752 11.4492 11.1662C11.5587 11.0572 11.6208 10.9061 11.6208 10.752C11.6208 10.5979 11.5587 10.4467 11.4492 10.3377C11.3402 10.2287 11.189 10.166 11.0349 10.166Z" fill="black"/>
<defs>
<linearGradient id="paint0_linear" x1="1" y1="14" x2="31" y2="14.5" gradientUnits="userSpaceOnUse">
<stop stop-color="#5BE2AA"/>
<stop offset="1" stop-color="#DBACFF"/>
</linearGradient>
</defs>
</svg>
