<?xml version="1.0" encoding="iso-8859-1"?>
<!-- Generator: Adobe Illustrator 19.0.0, SVG Export Plug-In . SVG Version: 6.00 Build 0)  -->
<svg xmlns="http://www.w3.org/2000/svg" xmlns:xlink="http://www.w3.org/1999/xlink" version="1.1" id="Layer_1" x="0px" y="0px" viewBox="0 0 512 512" style="enable-background:new 0 0 512 512;" xml:space="preserve" width="512" height="512">
<g id="XMLID_2093_">
	<g id="XMLID_1094_">
		<path id="XMLID_1295_" d="M402,226.5c-16.455,0-32.074,3.638-46.105,10.143L330.986,193.5h48.36    c12.446,0,23.426-7.486,27.972-19.072c3.632-9.257,2.457-19.688-3.146-27.904c-5.602-8.216-14.883-13.121-24.827-13.121h-37.127    c-20.35,0-37.009,16.556-37.136,36.905l-0.02,3.192h-76.729c-5.523,0-10,4.478-10,10s4.477,10,10,10h72.936l-23.886,110.344    l-2.679-4.432c-27.389-45.32-70.317-78.26-121.083-93.017l19.549-76.377c6.461,5.622,14.89,9.039,24.108,9.039h34.209    c5.523,0,10-4.478,10-10s-4.477-10-10-10h-34.209c-9.251,0-16.778-7.526-16.778-16.778S188.027,85.5,197.278,85.5h48.109    c5.523,0,10-4.478,10-10s-4.477-10-10-10h-48.109c-18.736,0-34.234,14.086-36.486,32.222l-33.317,130.171    c-5.693-0.913-11.529-1.394-17.475-1.394c-60.654,0-110,49.346-110,110s49.346,110,110,110s110-49.346,110-110    c0-47.734-30.566-88.458-73.151-103.644l1.812-7.077c45.659,13.44,84.258,43.159,108.927,83.977l3.298,5.457    C255.402,320.651,252,328.185,252,336.5c0,8.548,3.6,16.267,9.356,21.736l-14.362,32.2c-1.38,3.094-1.1,6.676,0.744,9.517    c1.844,2.842,5.001,4.557,8.389,4.557h18.155c5.523,0,10-4.478,10-10s-4.477-10-10-10h-2.745l8.079-18.113    c0.788,0.063,1.581,0.104,2.385,0.104c4.784,0,9.307-1.132,13.325-3.132C307.346,411.077,350.612,446.5,402,446.5    c60.654,0,110-49.346,110-110S462.654,226.5,402,226.5z M200,336.5c0,49.626-40.374,90-90,90s-90-40.374-90-90s40.374-90,90-90    c4.238,0,8.406,0.301,12.49,0.871l-22.178,86.65c-1.37,5.351,1.857,10.798,7.208,12.167c0.832,0.213,1.666,0.314,2.487,0.314    c4.458,0,8.524-3.004,9.68-7.522l22.177-86.647C175.809,265.226,200,298.089,200,336.5z M299.312,297.074l18.646-86.14    l20.63,35.732C320.978,259.134,307.182,276.644,299.312,297.074z M348.638,264.073L384.68,326.5h-72.121    C315.395,300.958,328.961,278.609,348.638,264.073z M325.082,170.433c0.058-9.391,7.746-17.03,17.136-17.03h37.127    c3.375,0,6.401,1.6,8.302,4.388s2.285,6.189,1.052,9.332c-1.521,3.874-5.192,6.378-9.354,6.378h-54.283L325.082,170.433z     M282,346.5c-5.514,0-10-4.486-10-10s4.486-10,10-10s10,4.486,10,10S287.514,346.5,282,346.5z M402,426.5    c-46.246,0-84.451-35.063-89.441-80H402c3.573,0,6.874-1.906,8.66-5c1.787-3.094,1.787-6.906,0-10l-44.717-77.452    c11.046-4.849,23.241-7.548,36.057-7.548c49.626,0,90,40.374,90,90S451.626,426.5,402,426.5z"/>
		<path id="XMLID_1325_" d="M188.33,173.5c-2.63,0-5.21,1.069-7.07,2.93s-2.93,4.44-2.93,7.07s1.07,5.21,2.93,7.069    c1.86,1.86,4.44,2.931,7.07,2.931c2.63,0,5.21-1.07,7.07-2.931c1.87-1.859,2.93-4.439,2.93-7.069s-1.06-5.21-2.93-7.07    C193.54,174.569,190.96,173.5,188.33,173.5z"/>
	</g>
</g>















</svg>
