<svg width="50" height="35" viewBox="0 0 50 35" fill="none" xmlns="http://www.w3.org/2000/svg">
<path d="M39.6043 14.1907C38.0493 14.1907 36.5732 14.5114 35.2472 15.0847L32.8931 11.2821H37.4634C38.6396 11.2821 39.6773 10.6222 40.1069 9.60103C40.4502 8.78511 40.3391 7.86571 39.8096 7.14154C39.2802 6.41737 38.4031 5.98504 37.4633 5.98504H33.9546C32.0314 5.98504 30.457 7.44431 30.445 9.23789L30.4431 9.51923H23.1918C22.6698 9.51923 22.2467 9.91393 22.2467 10.4006C22.2467 10.8874 22.6698 11.2821 23.1918 11.2821H30.0847L27.8273 21.0079L27.5741 20.6172C24.9857 16.6227 20.9287 13.7193 16.1311 12.4186L17.9786 5.68669C18.5892 6.18221 19.3857 6.48339 20.2569 6.48339H23.4899C24.0118 6.48339 24.4349 6.0887 24.4349 5.60198C24.4349 5.11527 24.0118 4.72057 23.4899 4.72057H20.2569C19.3826 4.72057 18.6713 4.05722 18.6713 3.24174C18.6713 2.42626 19.3826 1.76282 20.2569 1.76282H24.8035C25.3254 1.76282 25.7485 1.36813 25.7485 0.881411C25.7485 0.394696 25.3254 0 24.8035 0H20.2569C18.4862 0 17.0216 1.24155 16.8088 2.84008L13.6601 14.3135C13.1221 14.233 12.5705 14.1906 12.0086 14.1906C6.27645 14.1906 1.61296 18.54 1.61296 23.8861C1.61296 29.2322 6.27645 33.5817 12.0086 33.5817C17.7408 33.5817 22.4043 29.2322 22.4043 23.8861C22.4043 19.6788 19.5156 16.0894 15.4911 14.7508L15.6623 14.1271C19.9774 15.3117 23.6252 17.9312 25.9566 21.5289L26.2682 22.0099C25.75 22.4893 25.4285 23.1533 25.4285 23.8862C25.4285 24.6397 25.7687 25.32 26.3127 25.8021L24.9554 28.6402C24.8249 28.9129 24.8514 29.2286 25.0257 29.479C25.1999 29.7295 25.4983 29.8807 25.8185 29.8807H27.5342C28.0562 29.8807 28.4793 29.486 28.4793 28.9993C28.4793 28.5126 28.0562 28.1179 27.5342 28.1179H27.2748L28.0383 26.5214C28.1128 26.5269 28.1877 26.5305 28.2637 26.5305C28.7158 26.5305 29.1433 26.4308 29.523 26.2545C30.659 30.4595 34.7479 33.5817 39.6043 33.5817C45.3365 33.5817 50 29.2323 50 23.8862C50 18.5401 45.3365 14.1907 39.6043 14.1907ZM29.8997 20.4112L31.6619 12.8187L33.6115 15.9682C31.9473 17.0671 30.6435 18.6105 29.8997 20.4112ZM34.5613 17.5024L37.9675 23.0048H31.1516C31.4197 20.7535 32.7017 18.7837 34.5613 17.5024ZM32.3351 9.24891C32.3406 8.42117 33.0672 7.74786 33.9546 7.74786H37.4633C37.7823 7.74786 38.0683 7.88889 38.2479 8.13463C38.4276 8.38036 38.4639 8.68013 38.3473 8.95716C38.2036 9.29862 37.8566 9.51932 37.4633 9.51932H32.3333L32.3351 9.24891ZM28.2636 24.7676C27.7425 24.7676 27.3186 24.3722 27.3186 23.8862C27.3186 23.4002 27.7425 23.0048 28.2636 23.0048C28.7847 23.0048 29.2087 23.4002 29.2087 23.8862C29.2087 24.3722 28.7847 24.7676 28.2636 24.7676ZM39.6043 31.8189C35.2338 31.8189 31.6232 28.7284 31.1516 24.7676H39.6043C39.942 24.7676 40.254 24.5996 40.4228 24.3269C40.5917 24.0542 40.5917 23.7182 40.4228 23.4455L36.1967 16.6188C37.2407 16.1914 38.3932 15.9535 39.6043 15.9535C44.2943 15.9535 48.1099 19.5121 48.1099 23.8862C48.1099 28.2603 44.2943 31.8189 39.6043 31.8189Z" fill="url(#paint0_linear)"/>
<path d="M37.9914 15.451C36.4363 15.451 34.9602 15.7717 33.6342 16.345L31.2801 12.5424H35.8505C37.0267 12.5424 38.0644 11.8825 38.494 10.8613C38.8372 10.0454 38.7262 9.12602 38.1967 8.40185C37.6672 7.67768 36.7901 7.24535 35.8504 7.24535H32.3416C30.4184 7.24535 28.8441 8.70461 28.8321 10.4982L28.8302 10.7795H21.5788C21.0569 10.7795 20.6338 11.1742 20.6338 11.661C20.6338 12.1477 21.0569 12.5424 21.5788 12.5424H28.4717L26.2143 22.2682L25.9612 21.8776C23.3727 17.883 19.3158 14.9796 14.5181 13.6789L16.3656 6.94699C16.9762 7.44252 17.7728 7.7437 18.6439 7.7437H21.8769C22.3989 7.7437 22.822 7.349 22.822 6.86229C22.822 6.37557 22.3989 5.98088 21.8769 5.98088H18.6439C17.7697 5.98088 17.0583 5.31753 17.0583 4.50205C17.0583 3.68657 17.7697 3.02313 18.6439 3.02313H23.1905C23.7125 3.02313 24.1356 2.62843 24.1356 2.14172C24.1356 1.655 23.7125 1.26031 23.1905 1.26031H18.6439C16.8733 1.26031 15.4086 2.50186 15.1958 4.10039L12.0471 15.5738C11.5091 15.4933 10.9576 15.4509 10.3957 15.4509C4.66349 15.4509 0 19.8003 0 25.1464C0 30.4926 4.66349 34.842 10.3957 34.842C16.1278 34.842 20.7913 30.4926 20.7913 25.1464C20.7913 20.9391 17.9026 17.3497 13.8781 16.0112L14.0493 15.3874C18.3644 16.572 22.0122 19.1915 24.3436 22.7892L24.6553 23.2702C24.137 23.7496 23.8155 24.4136 23.8155 25.1465C23.8155 25.9 24.1557 26.5803 24.6997 27.0624L23.3424 29.9005C23.212 30.1732 23.2384 30.4889 23.4127 30.7393C23.587 30.9898 23.8853 31.141 24.2055 31.141H25.9213C26.4432 31.141 26.8663 30.7463 26.8663 30.2596C26.8663 29.7729 26.4432 29.3782 25.9213 29.3782H25.6619L26.4254 27.7817C26.4998 27.7872 26.5748 27.7909 26.6508 27.7909C27.1029 27.7909 27.5303 27.6911 27.9101 27.5148C29.046 31.7198 33.1349 34.842 37.9914 34.842C43.7236 34.842 48.387 30.4926 48.387 25.1465C48.387 19.8004 43.7236 15.451 37.9914 15.451ZM18.9012 25.1465C18.9012 29.5206 15.0856 33.0792 10.3957 33.0792C5.7057 33.0792 1.89012 29.5206 1.89012 25.1465C1.89012 20.7724 5.7057 17.2138 10.3957 17.2138C10.7962 17.2138 11.1901 17.2404 11.576 17.2906L9.48008 24.928C9.35061 25.3997 9.65558 25.8798 10.1613 26.0004C10.2399 26.0192 10.3187 26.0281 10.3963 26.0281C10.8176 26.0281 11.2019 25.7633 11.3111 25.3651L13.407 17.728C16.615 18.8644 18.9012 21.7609 18.9012 25.1465ZM28.2868 21.6715L30.0489 14.079L31.9986 17.2285C30.3343 18.3274 29.0305 19.8708 28.2868 21.6715ZM32.9484 18.7627L36.3545 24.2651H29.5387C29.8067 22.0138 31.0888 20.044 32.9484 18.7627ZM30.7222 10.5092C30.7277 9.68148 31.4542 9.00817 32.3416 9.00817H35.8504C36.1693 9.00817 36.4553 9.1492 36.6349 9.39493C36.8146 9.64067 36.8509 9.94044 36.7344 10.2175C36.5906 10.5589 36.2437 10.7796 35.8504 10.7796H30.7203L30.7222 10.5092ZM26.6507 26.0279C26.1296 26.0279 25.7056 25.6325 25.7056 25.1465C25.7056 24.6605 26.1296 24.2651 26.6507 24.2651C27.1718 24.2651 27.5957 24.6605 27.5957 25.1465C27.5957 25.6325 27.1718 26.0279 26.6507 26.0279ZM37.9914 33.0792C33.6209 33.0792 30.0103 29.9887 29.5387 26.0279H37.9914C38.3291 26.0279 38.641 25.8599 38.8098 25.5872C38.9787 25.3145 38.9787 24.9785 38.8098 24.7058L34.5838 17.8791C35.6277 17.4517 36.7802 17.2138 37.9914 17.2138C42.6813 17.2138 46.4969 20.7724 46.4969 25.1465C46.4969 29.5206 42.6813 33.0792 37.9914 33.0792Z" fill="black"/>
<path d="M17.7983 10.7795C17.5498 10.7795 17.306 10.8738 17.1302 11.0378C16.9544 11.2018 16.8533 11.4291 16.8533 11.661C16.8533 11.8928 16.9544 12.1202 17.1302 12.284C17.306 12.448 17.5498 12.5424 17.7983 12.5424C18.0469 12.5424 18.2907 12.4481 18.4665 12.284C18.6432 12.1202 18.7434 11.8928 18.7434 11.661C18.7434 11.4291 18.6432 11.2017 18.4665 11.0378C18.2907 10.8738 18.0469 10.7795 17.7983 10.7795Z" fill="black"/>
<defs>
<linearGradient id="paint0_linear" x1="1.61296" y1="16.547" x2="49.998" y2="17.4117" gradientUnits="userSpaceOnUse">
<stop stop-color="#5BE2AA"/>
<stop offset="1" stop-color="#DBACFF"/>
</linearGradient>
</defs>
</svg>
