<svg width="45" height="49" viewBox="0 0 45 49" fill="none" xmlns="http://www.w3.org/2000/svg">
<path d="M13.4271 23.0498C12.3996 23.0498 11.4734 23.6687 11.0802 24.618C10.687 25.5672 10.9043 26.6598 11.6308 27.3863C12.3574 28.1128 13.45 28.3302 14.3992 27.937C15.3485 27.5438 15.9674 26.6175 15.9674 25.5901C15.9674 24.1871 14.8301 23.0498 13.4271 23.0498Z" fill="url(#paint0_linear)"/>
<ellipse cx="33.0237" cy="25.7654" rx="2.54031" ry="2.54031" fill="url(#paint1_linear)"/>
<path d="M3.62956 21.4604H5.08116C6.28371 21.4604 7.25857 20.3928 7.25857 19.0759V14.3069C7.25857 12.99 6.28371 11.9225 5.08116 11.9225V11.1276C5.08116 10.2497 5.73107 9.53796 6.53277 9.53796H9.34525L8.14187 20.7323C8.03717 21.718 7.98459 22.7095 7.98437 23.7018V34.9725C7.18267 34.9725 6.53277 35.6842 6.53277 36.5622V40.5363C6.53277 41.4143 7.18267 42.126 7.98437 42.126H8.71018V45.3053C8.71018 46.6222 9.68503 47.6898 10.8876 47.6898H13.7908C14.9933 47.6898 15.9682 46.6222 15.9682 45.3053V42.126H30.4843V45.3053C30.4843 46.6222 31.4591 47.6898 32.6617 47.6898H35.5649C36.7674 47.6898 37.7423 46.6222 37.7423 45.3053V42.126H38.4681C39.2698 42.126 39.9197 41.4143 39.9197 40.5363V36.5622C39.9197 35.6842 39.2698 34.9725 38.4681 34.9725V23.7018C38.4679 22.7092 38.4153 21.7175 38.3106 20.7316L37.1072 9.53796H39.9197C40.7214 9.53796 41.3713 10.2497 41.3713 11.1276V11.9225C40.1687 11.9225 39.1939 12.99 39.1939 14.3069V19.0759C39.1939 20.3928 40.1687 21.4604 41.3713 21.4604H42.8229C44.0255 21.4604 45.0003 20.3928 45.0003 19.0759V14.3069C45.0003 12.99 44.0255 11.9225 42.8229 11.9225V11.1276C42.8229 9.37173 41.5231 7.9483 39.9197 7.9483H37.7423V5.56381C37.7423 2.65155 30.8239 0 23.2262 0C15.6285 0 8.71018 2.65155 8.71018 5.56381V7.9483H6.53277C4.92937 7.9483 3.62956 9.37173 3.62956 11.1276V11.9225C2.42701 11.9225 1.45215 12.99 1.45215 14.3069V19.0759C1.45215 20.3928 2.42701 21.4604 3.62956 21.4604ZM43.5487 14.3069V19.0759C43.5487 19.5149 43.2238 19.8708 42.8229 19.8708H41.3713C40.9704 19.8708 40.6455 19.5149 40.6455 19.0759V14.3069C40.6455 13.868 40.9704 13.5121 41.3713 13.5121H42.8229C43.2238 13.5121 43.5487 13.868 43.5487 14.3069ZM26.8552 7.9483H19.5972V5.56381C19.5972 5.12484 19.9222 4.76898 20.323 4.76898H26.1294C26.5303 4.76898 26.8552 5.12484 26.8552 5.56381V7.9483ZM14.5166 45.3053C14.5166 45.7443 14.1916 46.1001 13.7908 46.1001H10.8876C10.4867 46.1001 10.1618 45.7443 10.1618 45.3053V42.126H14.5166V45.3053ZM36.2907 45.3053C36.2907 45.7443 35.9657 46.1001 35.5649 46.1001H32.6617C32.2608 46.1001 31.9359 45.7443 31.9359 45.3053V42.126H36.2907V45.3053ZM38.4681 40.5363H7.98437V36.5622H17.4198V37.357C17.4198 38.235 18.0697 38.9467 18.8714 38.9467H27.581C28.3827 38.9467 29.0327 38.235 29.0327 37.357V36.5622H38.4681V40.5363ZM29.0327 34.9725V34.1777C29.0327 33.2997 28.3827 32.588 27.581 32.588H18.8714C18.0697 32.588 17.4198 33.2997 17.4198 34.1777V34.9725H9.43598V23.7018C9.43598 22.9555 9.47662 22.2052 9.54049 21.4604H36.912C36.9758 22.2052 37.0165 22.9555 37.0165 23.7018V34.9725H29.0327ZM10.1618 5.56381C10.1618 4.57425 14.7953 1.58966 23.2262 1.58966C31.6572 1.58966 36.2907 4.57425 36.2907 5.56381V7.9483H28.3068V5.56381C28.3068 4.24689 27.332 3.17932 26.1294 3.17932H20.323C19.1205 3.17932 18.1456 4.24689 18.1456 5.56381V7.9483H10.1618V5.56381ZM2.90375 14.3069C2.90375 13.868 3.22871 13.5121 3.62956 13.5121H5.08116C5.48201 13.5121 5.80696 13.868 5.80696 14.3069V19.0759C5.80696 19.5149 5.48201 19.8708 5.08116 19.8708H3.62956C3.22871 19.8708 2.90375 19.5149 2.90375 19.0759V14.3069Z" fill="url(#paint2_linear)"/>
<path d="M11.9759 24.0503C10.9485 24.0503 10.0222 24.7281 9.62899 25.7676C9.2358 26.8072 9.45314 28.0037 10.1797 28.7993C10.9062 29.595 11.9988 29.833 12.9481 29.4024C13.8973 28.9718 14.5162 27.9574 14.5162 26.8322C14.5162 25.2958 13.3789 24.0503 11.9759 24.0503ZM11.9759 28.0245C11.3747 28.0245 10.8872 27.4907 10.8872 26.8322C10.8872 26.1738 11.3747 25.64 11.9759 25.64C12.5772 25.64 13.0646 26.1738 13.0646 26.8322C13.0646 27.4907 12.5772 28.0245 11.9759 28.0245ZM31.5726 24.0503C30.1696 24.0503 29.0323 25.2958 29.0323 26.8322C29.0323 28.3686 30.1696 29.6142 31.5726 29.6142C32.9756 29.6142 34.1129 28.3686 34.1129 26.8322C34.1129 25.2958 32.9756 24.0503 31.5726 24.0503ZM31.5726 28.0245C30.9713 28.0245 30.4839 27.4907 30.4839 26.8322C30.4839 26.1738 30.9713 25.64 31.5726 25.64C32.1739 25.64 32.6613 26.1738 32.6613 26.8322C32.6613 27.4907 32.1739 28.0245 31.5726 28.0245ZM26.1291 25.64H17.4194C17.0186 25.64 16.6936 25.9958 16.6936 26.4348C16.6936 26.8738 17.0186 27.2296 17.4194 27.2296H26.1291C26.5299 27.2296 26.8549 26.8738 26.8549 26.4348C26.8549 25.9958 26.5299 25.64 26.1291 25.64ZM26.1291 28.8193H17.4194C17.0186 28.8193 16.6936 29.1752 16.6936 29.6142C16.6936 30.0531 17.0186 30.409 17.4194 30.409H26.1291C26.5299 30.409 26.8549 30.0531 26.8549 29.6142C26.8549 29.1752 26.5299 28.8193 26.1291 28.8193Z" fill="black"/>
<path d="M2.17741 22.4599H3.62901C4.83156 22.4599 5.80642 21.3924 5.80642 20.0754V15.3065C5.80642 13.9895 4.83156 12.922 3.62901 12.922V12.1271C3.62901 11.2492 4.27892 10.5375 5.08062 10.5375H7.8931L6.68972 21.7319C6.58502 22.7175 6.53244 23.709 6.53222 24.7013V35.972C5.73052 35.972 5.08062 36.6838 5.08062 37.5617V41.5358C5.08062 42.4138 5.73052 43.1255 6.53222 43.1255H7.25803V46.3048C7.25803 47.6217 8.23289 48.6893 9.43544 48.6893H12.3386C13.5412 48.6893 14.5161 47.6217 14.5161 46.3048V43.1255H29.0321V46.3048C29.0321 47.6217 30.007 48.6893 31.2095 48.6893H34.1127C35.3153 48.6893 36.2901 47.6217 36.2901 46.3048V43.1255H37.0159C37.8176 43.1255 38.4675 42.4138 38.4675 41.5358V37.5617C38.4675 36.6838 37.8176 35.972 37.0159 35.972V24.7013C37.0157 23.7088 36.9631 22.717 36.8584 21.7311L35.6551 10.5375H38.4675C39.2692 10.5375 39.9191 11.2492 39.9191 12.1271V12.922C38.7166 12.922 37.7417 13.9895 37.7417 15.3065V20.0754C37.7417 21.3924 38.7166 22.4599 39.9191 22.4599H41.3708C42.5733 22.4599 43.5482 21.3924 43.5482 20.0754V15.3065C43.5482 13.9895 42.5733 12.922 41.3708 12.922V12.1271C41.3708 10.3712 40.0709 8.94781 38.4675 8.94781H36.2901V6.56332C36.2901 3.65107 29.3718 0.999512 21.7741 0.999512C14.1764 0.999512 7.25803 3.65107 7.25803 6.56332V8.94781H5.08062C3.47722 8.94781 2.17741 10.3712 2.17741 12.1271V12.922C0.974859 12.922 0 13.9895 0 15.3065V20.0754C0 21.3924 0.974859 22.4599 2.17741 22.4599ZM42.0966 15.3065V20.0754C42.0966 20.5144 41.7716 20.8703 41.3708 20.8703H39.9191C39.5183 20.8703 39.1933 20.5144 39.1933 20.0754V15.3065C39.1933 14.8675 39.5183 14.5116 39.9191 14.5116H41.3708C41.7716 14.5116 42.0966 14.8675 42.0966 15.3065ZM34.1933 10.5375L35.3045 20.8703H22.4999V10.5375H34.1933ZM25.4031 8.94781H18.1451V6.56332C18.1451 6.12435 18.47 5.76849 18.8709 5.76849H24.6773C25.0781 5.76849 25.4031 6.12435 25.4031 6.56332V8.94781ZM17.4193 10.5375H21.0483V20.8703H8.24367L9.35487 10.5375H17.4193ZM13.0644 46.3048C13.0644 46.7438 12.7395 47.0997 12.3386 47.0997H9.43544C9.03459 47.0997 8.70963 46.7438 8.70963 46.3048V43.1255H13.0644V46.3048ZM34.8385 46.3048C34.8385 46.7438 34.5136 47.0997 34.1127 47.0997H31.2095C30.8087 47.0997 30.4837 46.7438 30.4837 46.3048V43.1255H34.8385V46.3048ZM37.0159 41.5358H6.53222V37.5617H15.9677V38.3565C15.9677 39.2345 16.6176 39.9462 17.4193 39.9462H26.1289C26.9306 39.9462 27.5805 39.2345 27.5805 38.3565V37.5617H37.0159V41.5358ZM26.1289 36.7669V38.3565H17.4193V35.1772H26.1289V36.7669ZM27.5805 35.972V35.1772C27.5805 34.2993 26.9306 33.5875 26.1289 33.5875H17.4193C16.6176 33.5875 15.9677 34.2993 15.9677 35.1772V35.972H7.98383V24.7013C7.98383 23.955 8.02447 23.2047 8.08835 22.4599H35.4598C35.5237 23.2047 35.5643 23.955 35.5643 24.7013V35.972H27.5805ZM8.70963 6.56332C8.70963 5.57376 13.3432 2.58917 21.7741 2.58917C30.205 2.58917 34.8385 5.57376 34.8385 6.56332V8.94781H26.8547V6.56332C26.8547 5.24641 25.8798 4.17883 24.6773 4.17883H18.8709C17.6683 4.17883 16.6935 5.24641 16.6935 6.56332V8.94781H8.70963V6.56332ZM1.45161 15.3065C1.45161 14.8675 1.77656 14.5116 2.17741 14.5116H3.62901C4.02986 14.5116 4.35482 14.8675 4.35482 15.3065V20.0754C4.35482 20.5144 4.02986 20.8703 3.62901 20.8703H2.17741C1.77656 20.8703 1.45161 20.5144 1.45161 20.0754V15.3065Z" fill="black"/>
<path d="M10.8868 16.1016C11.0793 16.1015 11.2639 16.0177 11.3999 15.8687L13.5774 13.4842C13.8524 13.1723 13.8485 12.6766 13.5685 12.37C13.2885 12.0634 12.8359 12.0591 12.5511 12.3603L10.3737 14.7448C10.1661 14.9721 10.1041 15.3139 10.2164 15.6109C10.3287 15.9078 10.5933 16.1015 10.8868 16.1016ZM10.8868 20.0757C11.0793 20.0756 11.2639 19.9919 11.3999 19.8428L17.2064 13.4842C17.4814 13.1723 17.4775 12.6766 17.1975 12.37C16.9176 12.0634 16.4649 12.0591 16.1801 12.3603L10.3737 18.7189C10.1661 18.9462 10.1041 19.288 10.2164 19.585C10.3287 19.882 10.5933 20.0756 10.8868 20.0757ZM24.1639 15.8687C24.4473 16.179 24.9068 16.179 25.1902 15.8687L27.3676 13.4842C27.6427 13.1723 27.6387 12.6766 27.3588 12.37C27.0788 12.0634 26.6261 12.0591 26.3413 12.3603L24.1639 14.7448C23.8806 15.0552 23.8806 15.5583 24.1639 15.8687ZM24.1639 19.8428C24.4473 20.1531 24.9068 20.1531 25.1902 19.8428L30.9966 13.4842C31.2717 13.1723 31.2677 12.6766 30.9878 12.37C30.7078 12.0634 30.2551 12.0591 29.9703 12.3603L24.1639 18.7189C23.8806 19.0293 23.8806 19.5324 24.1639 19.8428Z" fill="black"/>
<defs>
<linearGradient id="paint0_linear" x1="10.8867" y1="25.861" x2="15.9673" y2="25.861" gradientUnits="userSpaceOnUse">
<stop stop-color="#5BE2AA"/>
<stop offset="1" stop-color="#DBACFF"/>
</linearGradient>
<linearGradient id="paint1_linear" x1="33.0237" y1="23.2251" x2="33.0237" y2="28.3057" gradientUnits="userSpaceOnUse">
<stop stop-color="#5BE2AA"/>
<stop offset="1" stop-color="#DBACFF"/>
</linearGradient>
<linearGradient id="paint2_linear" x1="3.62956" y1="23.2257" x2="45.0003" y2="23.2257" gradientUnits="userSpaceOnUse">
<stop stop-color="#5BE2AA"/>
<stop offset="1" stop-color="#DBACFF"/>
</linearGradient>
</defs>
</svg>
