<svg width="50" height="54" viewBox="0 0 50 54" fill="none" xmlns="http://www.w3.org/2000/svg">
<path d="M14.9202 25.2522C13.7785 25.2522 12.7493 25.9302 12.3124 26.9701C11.8755 28.01 12.117 29.207 12.9243 30.0029C13.7315 30.7988 14.9456 31.0369 16.0003 30.6062C17.055 30.1754 17.7428 29.1607 17.7428 28.0351C17.7428 26.4982 16.479 25.2522 14.9202 25.2522Z" fill="url(#paint0_linear)"/>
<ellipse cx="36.6945" cy="28.2274" rx="2.8226" ry="2.78294" fill="url(#paint1_linear)"/>
<path d="M4.03195 23.5101H5.64486C6.98105 23.5101 8.06423 22.3406 8.06423 20.8979V15.6734C8.06423 14.2307 6.98105 13.0612 5.64486 13.0612V12.1904C5.64486 11.2286 6.36699 10.4489 7.25778 10.4489H10.3828L9.04569 22.7125C8.92936 23.7923 8.87093 24.8785 8.87069 25.9656V38.3128C7.9799 38.3128 7.25778 39.0925 7.25778 40.0543V44.408C7.25778 45.3698 7.9799 46.1495 8.87069 46.1495H9.67715V49.6325C9.67715 51.0752 10.7603 52.2447 12.0965 52.2447H15.3223C16.6585 52.2447 17.7417 51.0752 17.7417 49.6325V46.1495H33.8709V49.6325C33.8709 51.0752 34.954 52.2447 36.2902 52.2447H39.5161C40.8522 52.2447 41.9354 51.0752 41.9354 49.6325V46.1495H42.7419C43.6327 46.1495 44.3548 45.3698 44.3548 44.408V40.0543C44.3548 39.0925 43.6327 38.3128 42.7419 38.3128V25.9656C42.7416 24.8782 42.6832 23.7918 42.5669 22.7117L41.2298 10.4489H44.3548C45.2456 10.4489 45.9677 11.2286 45.9677 12.1904V13.0612C44.6315 13.0612 43.5483 14.2307 43.5483 15.6734V20.8979C43.5483 22.3406 44.6315 23.5101 45.9677 23.5101H47.5806C48.9168 23.5101 50 22.3406 50 20.8979V15.6734C50 14.2307 48.9168 13.0612 47.5806 13.0612V12.1904C47.5806 10.2668 46.1364 8.70745 44.3548 8.70745H41.9354V6.09522C41.9354 2.90481 34.2483 0 25.8063 0C17.3643 0 9.67715 2.90481 9.67715 6.09522V8.70745H7.25778C5.4762 8.70745 4.03195 10.2668 4.03195 12.1904V13.0612C2.69577 13.0612 1.61258 14.2307 1.61258 15.6734V20.8979C1.61258 22.3406 2.69577 23.5101 4.03195 23.5101ZM48.3871 15.6734V20.8979C48.3871 21.3788 48.026 21.7686 47.5806 21.7686H45.9677C45.5223 21.7686 45.1613 21.3788 45.1613 20.8979V15.6734C45.1613 15.1925 45.5223 14.8027 45.9677 14.8027H47.5806C48.026 14.8027 48.3871 15.1925 48.3871 15.6734ZM29.8386 8.70745H21.774V6.09522C21.774 5.61432 22.1351 5.22447 22.5805 5.22447H29.0321C29.4775 5.22447 29.8386 5.61432 29.8386 6.09522V8.70745ZM16.1288 49.6325C16.1288 50.1134 15.7677 50.5032 15.3223 50.5032H12.0965C11.6511 50.5032 11.2901 50.1134 11.2901 49.6325V46.1495H16.1288V49.6325ZM40.3225 49.6325C40.3225 50.1134 39.9614 50.5032 39.5161 50.5032H36.2902C35.8448 50.5032 35.4838 50.1134 35.4838 49.6325V46.1495H40.3225V49.6325ZM42.7419 44.408H8.87069V40.0543H19.3546V40.925C19.3546 41.8868 20.0768 42.6665 20.9675 42.6665H30.645C31.5358 42.6665 32.2579 41.8868 32.2579 40.925V40.0543H42.7419V44.408ZM32.2579 38.3128V37.4421C32.2579 36.4803 31.5358 35.7006 30.645 35.7006H20.9675C20.0768 35.7006 19.3546 36.4803 19.3546 37.4421V38.3128H10.4836V25.9656C10.4836 25.148 10.5288 24.326 10.5997 23.5101H41.0128C41.0838 24.326 41.129 25.148 41.129 25.9656V38.3128H32.2579ZM11.2901 6.09522C11.2901 5.01114 16.4385 1.74149 25.8063 1.74149C35.1741 1.74149 40.3225 5.01114 40.3225 6.09522V8.70745H31.4515V6.09522C31.4515 4.65252 30.3683 3.48298 29.0321 3.48298H22.5805C21.2443 3.48298 20.1611 4.65252 20.1611 6.09522V8.70745H11.2901V6.09522ZM3.22549 15.6734C3.22549 15.1925 3.58656 14.8027 4.03195 14.8027H5.64486C6.09026 14.8027 6.45132 15.1925 6.45132 15.6734V20.8979C6.45132 21.3788 6.09026 21.7686 5.64486 21.7686H4.03195C3.58656 21.7686 3.22549 21.3788 3.22549 20.8979V15.6734Z" fill="url(#paint2_linear)"/>
<path d="M13.3069 26.3465C12.1653 26.3465 11.1361 27.089 10.6992 28.2278C10.2623 29.3666 10.5038 30.6775 11.3111 31.5491C12.1183 32.4207 13.3324 32.6815 14.3871 32.2098C15.4418 31.738 16.1295 30.6268 16.1295 29.3941C16.1295 27.7109 14.8658 26.3465 13.3069 26.3465ZM13.3069 30.7002C12.6388 30.7002 12.0972 30.1155 12.0972 29.3941C12.0972 28.6727 12.6388 28.088 13.3069 28.088C13.975 28.088 14.5166 28.6727 14.5166 29.3941C14.5166 30.1155 13.975 30.7002 13.3069 30.7002ZM35.0813 26.3465C33.5224 26.3465 32.2587 27.7109 32.2587 29.3941C32.2587 31.0773 33.5224 32.4417 35.0813 32.4417C36.6401 32.4417 37.9039 31.0773 37.9039 29.3941C37.9039 27.7109 36.6401 26.3465 35.0813 26.3465ZM35.0813 30.7002C34.4132 30.7002 33.8716 30.1155 33.8716 29.3941C33.8716 28.6727 34.4132 28.088 35.0813 28.088C35.7494 28.088 36.291 28.6727 36.291 29.3941C36.291 30.1155 35.7494 30.7002 35.0813 30.7002ZM29.0328 28.088H19.3554C18.91 28.088 18.5489 28.4778 18.5489 28.9587C18.5489 29.4396 18.91 29.8295 19.3554 29.8295H29.0328C29.4782 29.8295 29.8393 29.4396 29.8393 28.9587C29.8393 28.4778 29.4782 28.088 29.0328 28.088ZM29.0328 31.571H19.3554C18.91 31.571 18.5489 31.9608 18.5489 32.4417C18.5489 32.9226 18.91 33.3125 19.3554 33.3125H29.0328C29.4782 33.3125 29.8393 32.9226 29.8393 32.4417C29.8393 31.9608 29.4782 31.571 29.0328 31.571Z" fill="black"/>
<path d="M2.41937 24.605H4.03228C5.36847 24.605 6.45166 23.4355 6.45166 21.9928V16.7683C6.45166 15.3256 5.36847 14.1561 4.03228 14.1561V13.2853C4.03228 12.3235 4.75441 11.5438 5.6452 11.5438H8.77022L7.43311 23.8074C7.31678 24.8872 7.25835 25.9734 7.25811 27.0605V39.4077C6.36732 39.4077 5.6452 40.1874 5.6452 41.1492V45.5029C5.6452 46.4647 6.36732 47.2444 7.25811 47.2444H8.06457V50.7274C8.06457 52.1701 9.14776 53.3396 10.4839 53.3396H13.7098C15.0459 53.3396 16.1291 52.1701 16.1291 50.7274V47.2444H32.2583V50.7274C32.2583 52.1701 33.3415 53.3396 34.6776 53.3396H37.9035C39.2397 53.3396 40.3228 52.1701 40.3228 50.7274V47.2444H41.1293C42.0201 47.2444 42.7422 46.4647 42.7422 45.5029V41.1492C42.7422 40.1874 42.0201 39.4077 41.1293 39.4077V27.0605C41.1291 25.9731 41.0706 24.8866 40.9543 23.8065L39.6172 11.5438H42.7422C43.633 11.5438 44.3551 12.3235 44.3551 13.2853V14.1561C43.0189 14.1561 41.9358 15.3256 41.9358 16.7683V21.9928C41.9358 23.4355 43.0189 24.605 44.3551 24.605H45.968C47.3042 24.605 48.3874 23.4355 48.3874 21.9928V16.7683C48.3874 15.3256 47.3042 14.1561 45.968 14.1561V13.2853C45.968 11.3617 44.5238 9.80233 42.7422 9.80233H40.3228V7.19009C40.3228 3.99968 32.6357 1.09487 24.1937 1.09487C15.7517 1.09487 8.06457 3.99968 8.06457 7.19009V9.80233H5.6452C3.86362 9.80233 2.41937 11.3617 2.41937 13.2853V14.1561C1.08319 14.1561 0 15.3256 0 16.7683V21.9928C0 23.4355 1.08319 24.605 2.41937 24.605ZM46.7745 16.7683V21.9928C46.7745 22.4737 46.4134 22.8635 45.968 22.8635H44.3551C43.9097 22.8635 43.5487 22.4737 43.5487 21.9928V16.7683C43.5487 16.2874 43.9097 15.8975 44.3551 15.8975H45.968C46.4134 15.8975 46.7745 16.2874 46.7745 16.7683ZM37.993 11.5438L39.2277 22.8635H25.0002V11.5438H37.993ZM28.226 9.80233H20.1614V7.19009C20.1614 6.70919 20.5225 6.31935 20.9679 6.31935H27.4195C27.8649 6.31935 28.226 6.70919 28.226 7.19009V9.80233ZM19.355 11.5438H23.3873V22.8635H9.15974L10.3944 11.5438H19.355ZM14.5162 50.7274C14.5162 51.2083 14.1552 51.5981 13.7098 51.5981H10.4839C10.0385 51.5981 9.67748 51.2083 9.67748 50.7274V47.2444H14.5162V50.7274ZM38.7099 50.7274C38.7099 51.2083 38.3489 51.5981 37.9035 51.5981H34.6776C34.2323 51.5981 33.8712 51.2083 33.8712 50.7274V47.2444H38.7099V50.7274ZM41.1293 45.5029H7.25811V41.1492H17.7421V42.0199C17.7421 42.9817 18.4642 43.7614 19.355 43.7614H29.0324C29.9232 43.7614 30.6454 42.9817 30.6454 42.0199V41.1492H41.1293V45.5029ZM29.0324 40.2784V42.0199H19.355V38.5369H29.0324V40.2784ZM30.6454 39.4077V38.5369C30.6454 37.5751 29.9232 36.7954 29.0324 36.7954H19.355C18.4642 36.7954 17.7421 37.5751 17.7421 38.5369V39.4077H8.87103V27.0605C8.87103 26.2429 8.91619 25.4209 8.98716 24.605H39.4003C39.4712 25.4209 39.5164 26.2429 39.5164 27.0605V39.4077H30.6454ZM9.67748 7.19009C9.67748 6.10601 14.8259 2.83636 24.1937 2.83636C33.5615 2.83636 38.7099 6.10601 38.7099 7.19009V9.80233H29.8389V7.19009C29.8389 5.74739 28.7557 4.57786 27.4195 4.57786H20.9679C19.6317 4.57786 18.5485 5.74739 18.5485 7.19009V9.80233H9.67748V7.19009ZM1.61291 16.7683C1.61291 16.2874 1.97398 15.8975 2.41937 15.8975H4.03228C4.47768 15.8975 4.83874 16.2874 4.83874 16.7683V21.9928C4.83874 22.4737 4.47768 22.8635 4.03228 22.8635H2.41937C1.97398 22.8635 1.61291 22.4737 1.61291 21.9928V16.7683Z" fill="black"/>
<path d="M12.0962 17.6392C12.3101 17.6392 12.5152 17.5474 12.6664 17.3841L15.0857 14.7719C15.3914 14.4302 15.387 13.8871 15.0759 13.5513C14.7648 13.2154 14.2618 13.2107 13.9454 13.5407L11.526 16.1529C11.2955 16.4019 11.2265 16.7764 11.3513 17.1017C11.4761 17.427 11.7701 17.6392 12.0962 17.6392ZM12.0962 21.9929C12.3101 21.9929 12.5152 21.9011 12.6664 21.7378L19.118 14.7719C19.4236 14.4302 19.4193 13.8871 19.1082 13.5513C18.7971 13.2154 18.2941 13.2107 17.9777 13.5407L11.526 20.5066C11.2955 20.7556 11.2265 21.13 11.3513 21.4554C11.4761 21.7807 11.7701 21.9928 12.0962 21.9929ZM26.8487 17.3841C27.1636 17.724 27.6741 17.724 27.989 17.3841L30.4084 14.7719C30.714 14.4302 30.7097 13.8871 30.3986 13.5513C30.0875 13.2154 29.5845 13.2107 29.2681 13.5407L26.8487 16.1529C26.5339 16.4929 26.5339 17.0441 26.8487 17.3841ZM26.8487 21.7378C27.1636 22.0777 27.6741 22.0777 27.989 21.7378L34.4407 14.7719C34.7463 14.4302 34.7419 13.8871 34.4309 13.5513C34.1198 13.2154 33.6168 13.2107 33.3004 13.5407L26.8487 20.5066C26.5339 20.8466 26.5339 21.3978 26.8487 21.7378Z" fill="black"/>
<defs>
<linearGradient id="paint0_linear" x1="12.0975" y1="28.3319" x2="17.7427" y2="28.3319" gradientUnits="userSpaceOnUse">
<stop stop-color="#5BE2AA"/>
<stop offset="1" stop-color="#DBACFF"/>
</linearGradient>
<linearGradient id="paint1_linear" x1="36.6945" y1="25.4445" x2="36.6945" y2="31.0103" gradientUnits="userSpaceOnUse">
<stop stop-color="#5BE2AA"/>
<stop offset="1" stop-color="#DBACFF"/>
</linearGradient>
<linearGradient id="paint2_linear" x1="4.03195" y1="25.444" x2="50" y2="25.444" gradientUnits="userSpaceOnUse">
<stop stop-color="#5BE2AA"/>
<stop offset="1" stop-color="#DBACFF"/>
</linearGradient>
</defs>
</svg>
