<svg height="512" viewBox="0 0 60 60" width="512" xmlns="http://www.w3.org/2000/svg"><g fill="#000" fill-rule="nonzero"><path d="M16.5 29c-1.4156179 0-2.6918449.8527476-3.2335784 2.160608s-.2422883 2.8132727.7587047 3.8142657 2.5064053 1.3004382 3.8142657.7587047S20 33.9156179 20 32.5c0-1.9329966-1.5670034-3.5-3.5-3.5zm0 5c-.8284271 0-1.5-.6715729-1.5-1.5s.6715729-1.5 1.5-1.5 1.5.6715729 1.5 1.5-.6715729 1.5-1.5 1.5zM43.5 29c-1.9329966 0-3.5 1.5670034-3.5 3.5s1.5670034 3.5 3.5 3.5 3.5-1.5670034 3.5-3.5-1.5670034-3.5-3.5-3.5zm0 5c-.8284271 0-1.5-.6715729-1.5-1.5s.6715729-1.5 1.5-1.5 1.5.6715729 1.5 1.5-.6715729 1.5-1.5 1.5zM36 31H24c-.5522847 0-1 .4477153-1 1s.4477153 1 1 1h12c.5522847 0 1-.4477153 1-1s-.4477153-1-1-1zM36 35H24c-.5522847 0-1 .4477153-1 1s.4477153 1 1 1h12c.5522847 0 1-.4477153 1-1s-.4477153-1-1-1z"/><path d="M3 27h2c1.6568543 0 3-1.3431458 3-3v-6c0-1.6568542-1.3431457-3-3-3v-1c0-1.1045695.8954305-2 2-2h3.875L9.217 26.084A32.3999986 32.3999986 0 009 29.82V44c-1.1045695 0-2 .8954305-2 2v5c0 1.1045695.8954305 2 2 2h1v4c0 1.6568542 1.3431458 3 3 3h4c1.6568542 0 3-1.3431458 3-3v-4h20v4c0 1.6568542 1.3431458 3 3 3h4c1.6568542 0 3-1.3431458 3-3v-4h1c1.1045695 0 2-.8954305 2-2v-5c0-1.1045695-.8954305-2-2-2V29.82a32.4259957 32.4259957 0 00-.217-3.737L49.125 12H53c1.1045695 0 2 .8954305 2 2v1c-1.6568542 0-3 1.3431458-3 3v6c0 1.6568542 1.3431458 3 3 3h2c1.6568542 0 3-1.3431458 3-3v-6c0-1.6568542-1.3431458-3-3-3v-1c0-2.209139-1.790861-4-4-4h-3V7c0-3.664-9.532-7-20-7S10 3.336 10 7v3H7c-2.209139 0-4 1.790861-4 4v1c-1.6568543 0-3 1.3431458-3 3v6c0 1.6568542 1.3431457 3 3 3zm55-9v6c0 .5522847-.4477153 1-1 1h-2c-.5522847 0-1-.4477153-1-1v-6c0-.5522847.4477153-1 1-1h2c.5522847 0 1 .4477153 1 1zm-10.889-6l1.531 13H31V12zM35 10H25V7c0-.5522847.4477153-1 1-1h8c.5522847 0 1 .4477153 1 1zm-11 2h5v13H11.358l1.531-13zm-6 45c0 .5522847-.4477153 1-1 1h-4c-.5522847 0-1-.4477153-1-1v-4h6zm30 0c0 .5522847-.4477153 1-1 1h-4c-.5522847 0-1-.4477153-1-1v-4h6zm3-6H9v-5h13v1c0 1.1045695.8954305 2 2 2h12c1.1045695 0 2-.8954305 2-2v-1h13zm-15-6v2H24v-4h12zm2-1v-1c0-1.1045695-.8954305-2-2-2H24c-1.1045695 0-2 .8954305-2 2v1H11V29.82c0-.939.056-1.883.144-2.82h37.712c.088.937.144 1.881.144 2.82V44zM12 7c0-1.245 6.384-5 18-5s18 3.755 18 5v3H37V7c0-1.6568543-1.3431458-3-3-3h-8c-1.6568542 0-3 1.3431457-3 3v3H12zM2 18c0-.5522847.4477153-1 1-1h2c.5522847 0 1 .4477153 1 1v6c0 .5522847-.4477153 1-1 1H3c-.5522847 0-1-.4477153-1-1z"/><path d="M15 19c.2651948-.0000566.5195073-.1054506.707-.293l3-3c.3789722-.3923789.3735524-1.0160848-.0121814-1.4018186S17.6853789 13.9140278 17.293 14.293l-3 3c-.2859079.2859943-.3714219.7160366-.216678 1.0896546.1547439.3736179.5192821.6172591.923678.6173454zM15 24c.2651948-.0000566.5195073-.1054506.707-.293l8-8c.3789722-.3923789.3735524-1.0160848-.0121814-1.4018186S22.6853789 13.9140278 22.293 14.293l-8 8c-.2859079.2859943-.3714219.7160366-.216678 1.0896546.1547439.3736179.5192821.6172591.923678.6173454zM33.293 18.707c.3904999.3903819 1.0235001.3903819 1.414 0l3-3c.3789722-.3923789.3735524-1.0160848-.0121814-1.4018186S36.6853789 13.9140278 36.293 14.293l-3 3c-.3903819.3904999-.3903819 1.0235001 0 1.414zM33.293 23.707c.3904999.3903819 1.0235001.3903819 1.414 0l8-8c.3789722-.3923789.3735524-1.0160848-.0121814-1.4018186S41.6853789 13.9140278 41.293 14.293l-8 8c-.3903819.3904999-.3903819 1.0235001 0 1.414z"/></g></svg>