<svg height="512" viewBox="0 0 60 60" width="512" xmlns="http://www.w3.org/2000/svg"><g id="Page-1" fill="none" fill-rule="evenodd"><g id="030---Bus" fill="rgb(0,0,0)" fill-rule="nonzero"><path id="Shape" d="m16.5 29c-1.4156179 0-2.6918449.8527476-3.2335784 2.160608s-.2422883 2.8132727.7587047 3.8142657 2.5064053 1.3004382 3.8142657.7587047 2.160608-1.8179605 2.160608-3.2335784c0-1.9329966-1.5670034-3.5-3.5-3.5zm0 5c-.8284271 0-1.5-.6715729-1.5-1.5s.6715729-1.5 1.5-1.5 1.5.6715729 1.5 1.5-.6715729 1.5-1.5 1.5z"/><path id="Shape" d="m43.5 29c-1.9329966 0-3.5 1.5670034-3.5 3.5s1.5670034 3.5 3.5 3.5 3.5-1.5670034 3.5-3.5-1.5670034-3.5-3.5-3.5zm0 5c-.8284271 0-1.5-.6715729-1.5-1.5s.6715729-1.5 1.5-1.5 1.5.6715729 1.5 1.5-.6715729 1.5-1.5 1.5z"/><path id="Shape" d="m36 31h-12c-.5522847 0-1 .4477153-1 1s.4477153 1 1 1h12c.5522847 0 1-.4477153 1-1s-.4477153-1-1-1z"/><path id="Shape" d="m36 35h-12c-.5522847 0-1 .4477153-1 1s.4477153 1 1 1h12c.5522847 0 1-.4477153 1-1s-.4477153-1-1-1z"/><path id="Shape" d="m3 27h2c1.65685425 0 3-1.3431458 3-3v-6c0-1.6568542-1.34314575-3-3-3v-1c0-1.1045695.8954305-2 2-2h3.875l-1.658 14.084c-.14425285 1.2401124-.21670701 2.4875259-.217 3.736v14.18c-1.1045695 0-2 .8954305-2 2v5c0 1.1045695.8954305 2 2 2h1v4c0 1.6568542 1.3431458 3 3 3h4c1.6568542 0 3-1.3431458 3-3v-4h20v4c0 1.6568542 1.3431458 3 3 3h4c1.6568542 0 3-1.3431458 3-3v-4h1c1.1045695 0 2-.8954305 2-2v-5c0-1.1045695-.8954305-2-2-2v-14.18c-.0003124-1.248806-.0727664-2.4965512-.217-3.737l-1.658-14.083h3.875c1.1045695 0 2 .8954305 2 2v1c-1.6568542 0-3 1.3431458-3 3v6c0 1.6568542 1.3431458 3 3 3h2c1.6568542 0 3-1.3431458 3-3v-6c0-1.6568542-1.3431458-3-3-3v-1c0-2.209139-1.790861-4-4-4h-3v-3c0-3.664-9.532-7-20-7s-20 3.336-20 7v3h-3c-2.209139 0-4 1.790861-4 4v1c-1.65685425 0-3 1.3431458-3 3v6c0 1.6568542 1.34314575 3 3 3zm55-9v6c0 .5522847-.4477153 1-1 1h-2c-.5522847 0-1-.4477153-1-1v-6c0-.5522847.4477153-1 1-1h2c.5522847 0 1 .4477153 1 1zm-10.889-6 1.531 13h-17.642v-13zm-12.111-2h-10v-3c0-.55228475.4477153-1 1-1h8c.5522847 0 1 .44771525 1 1zm-11 2h5v13h-17.642l1.531-13zm-6 45c0 .5522847-.4477153 1-1 1h-4c-.5522847 0-1-.4477153-1-1v-4h6zm30 0c0 .5522847-.4477153 1-1 1h-4c-.5522847 0-1-.4477153-1-1v-4h6zm3-6h-42v-5h13v1c0 1.1045695.8954305 2 2 2h12c1.1045695 0 2-.8954305 2-2v-1h13zm-15-6v2h-12v-4h12zm2-1v-1c0-1.1045695-.8954305-2-2-2h-12c-1.1045695 0-2 .8954305-2 2v1h-11v-14.18c0-.939.056-1.883.144-2.82h37.712c.088.937.144 1.881.144 2.82v14.18zm-26-37c0-1.245 6.384-5 18-5s18 3.755 18 5v3h-11v-3c0-1.65685425-1.3431458-3-3-3h-8c-1.6568542 0-3 1.34314575-3 3v3h-11zm-10 11c0-.5522847.44771525-1 1-1h2c.55228475 0 1 .4477153 1 1v6c0 .5522847-.44771525 1-1 1h-2c-.55228475 0-1-.4477153-1-1z"/><path id="Shape" d="m15 19c.2651948-.0000566.5195073-.1054506.707-.293l3-3c.3789722-.3923789.3735524-1.0160848-.0121814-1.4018186s-1.0094397-.3911536-1.4018186-.0121814l-3 3c-.2859079.2859943-.3714219.7160366-.216678 1.0896546.1547439.3736179.5192821.6172591.923678.6173454z"/><path id="Shape" d="m15 24c.2651948-.0000566.5195073-.1054506.707-.293l8-8c.3789722-.3923789.3735524-1.0160848-.0121814-1.4018186s-1.0094397-.3911536-1.4018186-.0121814l-8 8c-.2859079.2859943-.3714219.7160366-.216678 1.0896546.1547439.3736179.5192821.6172591.923678.6173454z"/><path id="Shape" d="m33.293 18.707c.3904999.3903819 1.0235001.3903819 1.414 0l3-3c.3789722-.3923789.3735524-1.0160848-.0121814-1.4018186s-1.0094397-.3911536-1.4018186-.0121814l-3 3c-.3903819.3904999-.3903819 1.0235001 0 1.414z"/><path id="Shape" d="m33.293 23.707c.3904999.3903819 1.0235001.3903819 1.414 0l8-8c.3789722-.3923789.3735524-1.0160848-.0121814-1.4018186s-1.0094397-.3911536-1.4018186-.0121814l-8 8c-.3903819.3904999-.3903819 1.0235001 0 1.414z"/></g></g></svg>