<svg width="30" height="30" viewBox="0 0 30 30" fill="none" xmlns="http://www.w3.org/2000/svg">
<path d="M8.25005 14.5C7.54224 14.5 6.90413 14.9264 6.63326 15.5803C6.3624 16.2342 6.51212 16.9869 7.01261 17.4874C7.51311 17.9879 8.26582 18.1377 8.91975 17.8668C9.57368 17.5959 10.0001 16.9578 10.0001 16.25C10.0001 15.2835 9.21655 14.5 8.25005 14.5ZM8.25005 17C7.83584 17 7.50005 16.6642 7.50005 16.25C7.50005 15.8358 7.83584 15.5 8.25005 15.5C8.66426 15.5 9.00005 15.8358 9.00005 16.25C9.00005 16.6642 8.66426 17 8.25005 17ZM21.7501 14.5C20.7836 14.5 20.0001 15.2835 20.0001 16.25C20.0001 17.2165 20.7836 18 21.7501 18C22.7165 18 23.5001 17.2165 23.5001 16.25C23.5001 15.2835 22.7165 14.5 21.7501 14.5ZM21.7501 17C21.3358 17 21.0001 16.6642 21.0001 16.25C21.0001 15.8358 21.3358 15.5 21.7501 15.5C22.1643 15.5 22.5001 15.8358 22.5001 16.25C22.5001 16.6642 22.1643 17 21.7501 17ZM18.0001 15.5H12.0001C11.7239 15.5 11.5001 15.7239 11.5001 16C11.5001 16.2761 11.7239 16.5 12.0001 16.5H18.0001C18.2762 16.5 18.5001 16.2761 18.5001 16C18.5001 15.7239 18.2762 15.5 18.0001 15.5ZM18.0001 17.5H12.0001C11.7239 17.5 11.5001 17.7239 11.5001 18C11.5001 18.2762 11.7239 18.5 12.0001 18.5H18.0001C18.2762 18.5 18.5001 18.2762 18.5001 18C18.5001 17.7239 18.2762 17.5 18.0001 17.5Z" fill="black"/>
<path d="M1.5 13.5H2.5C3.32843 13.5 4 12.8284 4 12V9C4 8.17157 3.32843 7.5 2.5 7.5V7C2.5 6.44772 2.94772 6 3.5 6H5.4375L4.6085 13.042C4.53637 13.6621 4.50015 14.2858 4.5 14.91V22C3.94772 22 3.5 22.4477 3.5 23V25.5C3.5 26.0523 3.94772 26.5 4.5 26.5H5V28.5C5 29.3284 5.67157 30 6.5 30H8.5C9.32843 30 10 29.3284 10 28.5V26.5H20V28.5C20 29.3284 20.6716 30 21.5 30H23.5C24.3284 30 25 29.3284 25 28.5V26.5H25.5C26.0523 26.5 26.5 26.0523 26.5 25.5V23C26.5 22.4477 26.0523 22 25.5 22V14.91C25.4998 14.2856 25.4636 13.6617 25.3915 13.0415L24.5625 6H26.5C27.0523 6 27.5 6.44772 27.5 7V7.5C26.6716 7.5 26 8.17157 26 9V12C26 12.8284 26.6716 13.5 27.5 13.5H28.5C29.3284 13.5 30 12.8284 30 12V9C30 8.17157 29.3284 7.5 28.5 7.5V7C28.5 5.89543 27.6046 5 26.5 5H25V3.5C25 1.668 20.234 0 15 0C9.766 0 5 1.668 5 3.5V5H3.5C2.39543 5 1.5 5.89543 1.5 7V7.5C0.671573 7.5 0 8.17157 0 9V12C0 12.8284 0.671573 13.5 1.5 13.5ZM29 9V12C29 12.2761 28.7761 12.5 28.5 12.5H27.5C27.2239 12.5 27 12.2761 27 12V9C27 8.72386 27.2239 8.5 27.5 8.5H28.5C28.7761 8.5 29 8.72386 29 9ZM23.5555 6L24.321 12.5H15.5V6H23.5555ZM17.5 5H12.5V3.5C12.5 3.22386 12.7239 3 13 3H17C17.2761 3 17.5 3.22386 17.5 3.5V5ZM12 6H14.5V12.5H5.679L6.4445 6H12ZM9 28.5C9 28.7761 8.77614 29 8.5 29H6.5C6.22386 29 6 28.7761 6 28.5V26.5H9V28.5ZM24 28.5C24 28.7761 23.7761 29 23.5 29H21.5C21.2239 29 21 28.7761 21 28.5V26.5H24V28.5ZM25.5 25.5H4.5V23H11V23.5C11 24.0523 11.4477 24.5 12 24.5H18C18.5523 24.5 19 24.0523 19 23.5V23H25.5V25.5ZM18 22.5V23.5H12V21.5H18V22.5ZM19 22V21.5C19 20.9477 18.5523 20.5 18 20.5H12C11.4477 20.5 11 20.9477 11 21.5V22H5.5V14.91C5.5 14.4405 5.528 13.9685 5.572 13.5H24.428C24.472 13.9685 24.5 14.4405 24.5 14.91V22H19ZM6 3.5C6 2.8775 9.192 1 15 1C20.808 1 24 2.8775 24 3.5V5H18.5V3.5C18.5 2.67157 17.8284 2 17 2H13C12.1716 2 11.5 2.67157 11.5 3.5V5H6V3.5ZM1 9C1 8.72386 1.22386 8.5 1.5 8.5H2.5C2.77614 8.5 3 8.72386 3 9V12C3 12.2761 2.77614 12.5 2.5 12.5H1.5C1.22386 12.5 1 12.2761 1 12V9Z" fill="black"/>
<path d="M7.49991 9.5002C7.63251 9.50017 7.75966 9.44747 7.85341 9.3537L9.35341 7.8537C9.54289 7.65751 9.54018 7.34566 9.34732 7.15279C9.15445 6.95993 8.8426 6.95722 8.64641 7.1467L7.14641 8.6467C7.00345 8.7897 6.9607 9.00472 7.03807 9.19153C7.11544 9.37833 7.29771 9.50016 7.49991 9.5002ZM7.49991 12.0002C7.63251 12.0002 7.75966 11.9475 7.85341 11.8537L11.8534 7.8537C12.0429 7.65751 12.0402 7.34566 11.8473 7.15279C11.6545 6.95993 11.3426 6.95722 11.1464 7.1467L7.14641 11.1467C7.00345 11.2897 6.9607 11.5047 7.03807 11.6915C7.11544 11.8783 7.29771 12.0002 7.49991 12.0002ZM16.6464 9.3537C16.8417 9.54889 17.1582 9.54889 17.3534 9.3537L18.8534 7.8537C19.0429 7.65751 19.0402 7.34566 18.8473 7.15279C18.6545 6.95993 18.3426 6.95722 18.1464 7.1467L16.6464 8.6467C16.4512 8.84195 16.4512 9.15845 16.6464 9.3537ZM16.6464 11.8537C16.8417 12.0489 17.1582 12.0489 17.3534 11.8537L21.3534 7.8537C21.5429 7.65751 21.5402 7.34566 21.3473 7.15279C21.1545 6.95993 20.8426 6.95722 20.6464 7.1467L16.6464 11.1467C16.4512 11.3419 16.4512 11.6584 16.6464 11.8537Z" fill="black"/>
</svg>
