<svg width="51" height="51" viewBox="0 0 51 51" fill="none" xmlns="http://www.w3.org/2000/svg">
<path d="M46.1172 4.29688H41.4622V2.92969C41.4622 1.31426 40.1479 0 38.5325 0C36.9171 0 35.6028 1.31426 35.6028 2.92969V4.29688H19.1966V2.92969C19.1966 1.31426 17.8823 0 16.2669 0C14.6515 0 13.3372 1.31426 13.3372 2.92969V4.33301C13.2542 4.31006 13.1672 4.29688 13.0769 4.29688H9.18584C6.49346 4.29688 4.30303 6.4873 4.30303 9.17969V25.8138C4.30303 26.3531 4.74033 26.7903 5.27959 26.7903C5.81885 26.7903 6.25615 26.3531 6.25615 25.8138V14.3555H41.4622C42.0015 14.3555 42.4388 13.9183 42.4388 13.3789C42.4388 12.8396 42.0015 12.4023 41.4622 12.4023H6.25615V9.17969C6.25615 7.56426 7.57041 6.25 9.18584 6.25H13.0769C13.1672 6.25 13.2542 6.23672 13.3372 6.21387V7.4707C13.3372 9.08613 14.6515 10.4004 16.2669 10.4004C17.8823 10.4004 19.1966 9.08613 19.1966 7.4707V6.25H35.6028V7.4707C35.6028 9.08613 36.9171 10.4004 38.5325 10.4004C40.1479 10.4004 41.4622 9.08613 41.4622 7.4707V6.25H46.1172C47.7326 6.25 49.0469 7.56426 49.0469 9.17969V46.2885C49.0469 47.258 48.2581 48.0469 47.2885 48.0469C46.3188 48.0469 45.5301 47.258 45.5301 46.2885V43.7622C45.5301 43.2229 45.0928 42.7856 44.5535 42.7856H33.194C32.6548 42.7856 32.2175 43.2229 32.2175 43.7622C32.2175 44.3016 32.6548 44.7388 33.194 44.7388H43.577V46.2885C43.577 46.9243 43.7379 47.5231 44.0208 48.0469H4.71094C3.7417 48.0469 2.95312 47.2583 2.95312 46.2891V44.7388H24.811C25.3503 44.7388 25.7876 44.3016 25.7876 43.7622C25.7876 43.2229 25.3503 42.7856 24.811 42.7856H15.0536C16.7601 41.316 17.8437 39.1422 17.8437 36.7188C17.8437 32.3032 14.2514 28.7109 9.83584 28.7109C5.42031 28.7109 1.82803 32.3032 1.82803 36.7188C1.82803 39.1422 2.91162 41.316 4.61807 42.7856H1.97656C1.4373 42.7856 1 43.2229 1 43.7622V46.2891C1 48.3353 2.66475 50 4.71094 50H47.2885C49.335 50 51 48.3351 51 46.2885V9.17969C51 6.4873 48.8096 4.29688 46.1172 4.29688ZM3.78115 36.7188C3.78115 33.3802 6.49727 30.6641 9.83584 30.6641C13.1744 30.6641 15.8905 33.3802 15.8905 36.7188C15.8905 40.0573 13.1744 42.7734 9.83584 42.7734C6.49727 42.7734 3.78115 40.0573 3.78115 36.7188Z" fill="url(#paint0_linear)"/>
<path d="M46.7331 12.6888C46.5515 12.5071 46.2996 12.4026 46.0427 12.4026C45.7858 12.4026 45.5339 12.5071 45.3523 12.6888C45.1707 12.8704 45.0662 13.1224 45.0662 13.3793C45.0662 13.6362 45.1706 13.8882 45.3523 14.0699C45.534 14.2516 45.7858 14.3561 46.0427 14.3561C46.2996 14.3561 46.5515 14.2516 46.7331 14.0699C46.9147 13.8882 47.0193 13.6362 47.0193 13.3793C47.0193 13.1224 46.9148 12.8704 46.7331 12.6888Z" fill="#CFB1F7"/>
<path d="M30.1651 43.072C29.9835 42.8904 29.7316 42.7869 29.4747 42.7869C29.2179 42.7869 28.9659 42.8904 28.7843 43.072C28.6027 43.2546 28.4982 43.5056 28.4982 43.7624C28.4982 44.0202 28.6026 44.2711 28.7843 44.4537C28.9659 44.6353 29.2179 44.7388 29.4747 44.7388C29.7316 44.7388 29.9835 44.6353 30.1651 44.4537C30.3467 44.2711 30.4513 44.0192 30.4513 43.7624C30.4513 43.5056 30.3468 43.2546 30.1651 43.072Z" fill="#A2C4D9"/>
<path d="M13.9797 19.5318C11.9335 19.5318 10.2688 21.1964 10.2688 23.2425C10.2688 25.2885 11.9335 26.9532 13.9797 26.9532C16.0259 26.9532 17.6907 25.2885 17.6907 23.2425C17.6907 21.1964 16.0259 19.5318 13.9797 19.5318Z" fill="url(#paint1_linear)"/>
<path d="M32.2085 19.5318C30.1623 19.5318 28.4976 21.1964 28.4976 23.2425C28.4976 25.2885 30.1623 26.9532 32.2085 26.9532C34.2547 26.9532 35.9194 25.2885 35.9194 23.2425C35.9194 21.1964 34.2547 19.5318 32.2085 19.5318Z" fill="url(#paint2_linear)"/>
<path d="M31.8253 29C29.7791 29 28.1144 30.6646 28.1144 32.7107C28.1144 34.7567 29.7791 36.4214 31.8253 36.4214C33.8715 36.4214 35.5363 34.7567 35.5363 32.7107C35.5363 30.6646 33.8715 29 31.8253 29Z" fill="url(#paint3_linear)"/>
<path d="M41.3235 19.5318C39.2773 19.5318 37.6125 21.1964 37.6125 23.2425C37.6125 25.2885 39.2773 26.9532 41.3235 26.9532C43.3697 26.9532 45.0344 25.2885 45.0344 23.2425C45.0344 21.1964 43.3697 19.5318 41.3235 19.5318Z" fill="url(#paint4_linear)"/>
<path d="M40.9403 29C38.8941 29 37.2294 30.6646 37.2294 32.7107C37.2294 34.7567 38.8941 36.4214 40.9403 36.4214C42.9865 36.4214 44.6512 34.7567 44.6512 32.7107C44.6512 30.6646 42.9865 29 40.9403 29Z" fill="url(#paint5_linear)"/>
<path d="M23.0941 19.5318C21.0479 19.5318 19.3832 21.1964 19.3832 23.2425C19.3832 25.2885 21.0479 26.9532 23.0941 26.9532C25.1403 26.9532 26.8051 25.2885 26.8051 23.2425C26.8051 21.1964 25.1403 19.5318 23.0941 19.5318Z" fill="url(#paint6_linear)"/>
<path d="M22.7109 29C20.6647 29 19 30.6646 19 32.7107C19 34.7567 20.6647 36.4214 22.7109 36.4214C24.7571 36.4214 26.4219 34.7567 26.4219 32.7107C26.4219 30.6646 24.7571 29 22.7109 29Z" fill="url(#paint7_linear)"/>
<path d="M13.3148 34.339C12.9333 33.9576 12.3152 33.9576 11.9336 34.339L8.75336 37.5195L7.66655 36.4327C7.2851 36.0513 6.66694 36.0513 6.2854 36.4327C5.90405 36.814 5.90405 37.4324 6.2854 37.8139L8.06284 39.5912C8.24604 39.7744 8.49438 39.8773 8.75336 39.8773C9.01234 39.8773 9.26068 39.7744 9.44389 39.5912L13.3148 35.7201C13.6961 35.3388 13.6961 34.7204 13.3148 34.339Z" fill="url(#paint8_linear)"/>
<path d="M45.1172 5.29688H40.4622V3.92969C40.4622 2.31426 39.1479 1 37.5325 1C35.9171 1 34.6028 2.31426 34.6028 3.92969V5.29688H18.1966V3.92969C18.1966 2.31426 16.8823 1 15.2669 1C13.6515 1 12.3372 2.31426 12.3372 3.92969V5.33301C12.2542 5.31006 12.1672 5.29688 12.0769 5.29688H8.18584C5.49346 5.29688 3.30303 7.4873 3.30303 10.1797V26.8138C3.30303 27.3531 3.74033 27.7903 4.27959 27.7903C4.81885 27.7903 5.25615 27.3531 5.25615 26.8138V15.3555H40.4622C41.0015 15.3555 41.4388 14.9183 41.4388 14.3789C41.4388 13.8396 41.0015 13.4023 40.4622 13.4023H5.25615V10.1797C5.25615 8.56426 6.57041 7.25 8.18584 7.25H12.0769C12.1672 7.25 12.2542 7.23672 12.3372 7.21387V8.4707C12.3372 10.0861 13.6515 11.4004 15.2669 11.4004C16.8823 11.4004 18.1966 10.0861 18.1966 8.4707V7.25H34.6028V8.4707C34.6028 10.0861 35.9171 11.4004 37.5325 11.4004C39.1479 11.4004 40.4622 10.0861 40.4622 8.4707V7.25H45.1172C46.7326 7.25 48.0469 8.56426 48.0469 10.1797V47.2885C48.0469 48.258 47.2581 49.0469 46.2885 49.0469C45.3188 49.0469 44.5301 48.258 44.5301 47.2885V44.7622C44.5301 44.2229 44.0928 43.7856 43.5535 43.7856H32.194C31.6548 43.7856 31.2175 44.2229 31.2175 44.7622C31.2175 45.3016 31.6548 45.7388 32.194 45.7388H42.577V47.2885C42.577 47.9243 42.7379 48.5231 43.0208 49.0469H3.71094C2.7417 49.0469 1.95312 48.2583 1.95312 47.2891V45.7388H23.811C24.3503 45.7388 24.7876 45.3016 24.7876 44.7622C24.7876 44.2229 24.3503 43.7856 23.811 43.7856H14.0536C15.7601 42.316 16.8437 40.1422 16.8437 37.7188C16.8437 33.3032 13.2514 29.7109 8.83584 29.7109C4.42031 29.7109 0.828027 33.3032 0.828027 37.7188C0.828027 40.1422 1.91162 42.316 3.61807 43.7856H0.976562C0.437305 43.7856 0 44.2229 0 44.7622V47.2891C0 49.3353 1.66475 51 3.71094 51H46.2885C48.335 51 50 49.3351 50 47.2885V10.1797C50 7.4873 47.8096 5.29688 45.1172 5.29688ZM16.2435 8.4707C16.2435 9.00918 15.8054 9.44727 15.2669 9.44727C14.7284 9.44727 14.2903 9.00918 14.2903 8.4707V3.92969C14.2903 3.39121 14.7284 2.95312 15.2669 2.95312C15.8054 2.95312 16.2435 3.39121 16.2435 3.92969V8.4707ZM38.5091 8.4707C38.5091 9.00918 38.071 9.44727 37.5325 9.44727C36.994 9.44727 36.556 9.00918 36.556 8.4707V3.92969C36.556 3.39121 36.994 2.95312 37.5325 2.95312C38.071 2.95312 38.5091 3.39121 38.5091 3.92969V8.4707ZM2.78115 37.7188C2.78115 34.3802 5.49727 31.6641 8.83584 31.6641C12.1744 31.6641 14.8905 34.3802 14.8905 37.7188C14.8905 41.0573 12.1744 43.7734 8.83584 43.7734C5.49727 43.7734 2.78115 41.0573 2.78115 37.7188Z" fill="black"/>
<path d="M45.7331 13.6888C45.5515 13.5071 45.2996 13.4026 45.0427 13.4026C44.7858 13.4026 44.5339 13.5071 44.3523 13.6888C44.1707 13.8704 44.0662 14.1224 44.0662 14.3793C44.0662 14.6362 44.1706 14.8882 44.3523 15.0699C44.534 15.2516 44.7858 15.3561 45.0427 15.3561C45.2996 15.3561 45.5515 15.2516 45.7331 15.0699C45.9147 14.8882 46.0193 14.6362 46.0193 14.3793C46.0193 14.1224 45.9148 13.8704 45.7331 13.6888Z" fill="black"/>
<path d="M29.1651 44.072C28.9835 43.8904 28.7316 43.7869 28.4747 43.7869C28.2179 43.7869 27.9659 43.8904 27.7843 44.072C27.6027 44.2546 27.4982 44.5056 27.4982 44.7624C27.4982 45.0202 27.6026 45.2711 27.7843 45.4537C27.9659 45.6353 28.2179 45.7388 28.4747 45.7388C28.7316 45.7388 28.9835 45.6353 29.1651 45.4537C29.3467 45.2711 29.4513 45.0192 29.4513 44.7624C29.4513 44.5056 29.3468 44.2546 29.1651 44.072Z" fill="black"/>
<path d="M22.0941 30.688C20.0479 30.688 18.3832 32.3526 18.3832 34.3988C18.3832 36.4449 20.0479 38.1096 22.0941 38.1096C24.1403 38.1096 25.8051 36.4449 25.8051 34.3988C25.8051 32.3526 24.1403 30.688 22.0941 30.688ZM22.0941 36.1565C21.1249 36.1565 20.3363 35.368 20.3363 34.3988C20.3363 33.4296 21.1249 32.641 22.0941 32.641C23.0634 32.641 23.8519 33.4296 23.8519 34.3988C23.8519 35.368 23.0634 36.1565 22.0941 36.1565Z" fill="black"/>
<path d="M31.2085 30.688C29.1623 30.688 27.4976 32.3526 27.4976 34.3988C27.4976 36.4449 29.1623 38.1096 31.2085 38.1096C33.2547 38.1096 34.9194 36.4449 34.9194 34.3988C34.9194 32.3526 33.2547 30.688 31.2085 30.688ZM31.2085 36.1565C30.2393 36.1565 29.4507 35.368 29.4507 34.3988C29.4507 33.4296 30.2393 32.641 31.2085 32.641C32.1777 32.641 32.9663 33.4296 32.9663 34.3988C32.9663 35.368 32.1777 36.1565 31.2085 36.1565Z" fill="black"/>
<path d="M40.3235 30.688C38.2773 30.688 36.6125 32.3526 36.6125 34.3988C36.6125 36.4449 38.2773 38.1096 40.3235 38.1096C42.3697 38.1096 44.0344 36.4449 44.0344 34.3988C44.0344 32.3526 42.3697 30.688 40.3235 30.688ZM40.3235 36.1565C39.3542 36.1565 38.5657 35.368 38.5657 34.3988C38.5657 33.4296 39.3542 32.641 40.3235 32.641C41.2927 32.641 42.0813 33.4296 42.0813 34.3988C42.0813 35.368 41.2927 36.1565 40.3235 36.1565Z" fill="black"/>
<path d="M12.9797 20.5318C10.9335 20.5318 9.2688 22.1964 9.2688 24.2425C9.2688 26.2885 10.9335 27.9532 12.9797 27.9532C15.0259 27.9532 16.6907 26.2885 16.6907 24.2425C16.6907 22.1964 15.0259 20.5318 12.9797 20.5318ZM12.9797 26.0002C12.0105 26.0002 11.2219 25.2116 11.2219 24.2425C11.2219 23.2733 12.0105 22.4848 12.9797 22.4848C13.949 22.4848 14.7375 23.2733 14.7375 24.2425C14.7375 25.2116 13.949 26.0002 12.9797 26.0002Z" fill="black"/>
<path d="M31.2085 20.5318C29.1623 20.5318 27.4976 22.1964 27.4976 24.2425C27.4976 26.2885 29.1623 27.9532 31.2085 27.9532C33.2547 27.9532 34.9194 26.2885 34.9194 24.2425C34.9194 22.1964 33.2547 20.5318 31.2085 20.5318ZM31.2085 26.0002C30.2393 26.0002 29.4507 25.2116 29.4507 24.2425C29.4507 23.2733 30.2393 22.4848 31.2085 22.4848C32.1777 22.4848 32.9663 23.2733 32.9663 24.2425C32.9663 25.2116 32.1777 26.0002 31.2085 26.0002Z" fill="black"/>
<path d="M40.3235 20.5318C38.2773 20.5318 36.6125 22.1964 36.6125 24.2425C36.6125 26.2885 38.2773 27.9532 40.3235 27.9532C42.3697 27.9532 44.0344 26.2885 44.0344 24.2425C44.0344 22.1964 42.3697 20.5318 40.3235 20.5318ZM40.3235 26.0002C39.3542 26.0002 38.5657 25.2116 38.5657 24.2425C38.5657 23.2733 39.3542 22.4848 40.3235 22.4848C41.2927 22.4848 42.0813 23.2733 42.0813 24.2425C42.0813 25.2116 41.2927 26.0002 40.3235 26.0002Z" fill="black"/>
<path d="M22.0941 20.5318C20.0479 20.5318 18.3832 22.1964 18.3832 24.2425C18.3832 26.2885 20.0479 27.9532 22.0941 27.9532C24.1403 27.9532 25.8051 26.2885 25.8051 24.2425C25.8051 22.1964 24.1403 20.5318 22.0941 20.5318ZM22.0941 26.0002C21.1249 26.0002 20.3363 25.2116 20.3363 24.2425C20.3363 23.2733 21.1249 22.4848 22.0941 22.4848C23.0634 22.4848 23.8519 23.2733 23.8519 24.2425C23.8519 25.2116 23.0634 26.0002 22.0941 26.0002Z" fill="black"/>
<path d="M12.3148 35.339C11.9333 34.9576 11.3152 34.9576 10.9336 35.339L7.75336 38.5195L6.66655 37.4327C6.2851 37.0513 5.66694 37.0513 5.2854 37.4327C4.90405 37.814 4.90405 38.4324 5.2854 38.8139L7.06284 40.5912C7.24604 40.7744 7.49438 40.8773 7.75336 40.8773C8.01234 40.8773 8.26068 40.7744 8.44389 40.5912L12.3148 36.7201C12.6961 36.3388 12.6961 35.7204 12.3148 35.339Z" fill="black"/>
<defs>
<linearGradient id="paint0_linear" x1="1" y1="26" x2="51" y2="25" gradientUnits="userSpaceOnUse">
<stop stop-color="#5BE2AA"/>
<stop offset="1" stop-color="#DBACFF"/>
</linearGradient>
<linearGradient id="paint1_linear" x1="4.5" y1="23.5" x2="50" y2="23.5" gradientUnits="userSpaceOnUse">
<stop stop-color="#5BE2AA"/>
<stop offset="1" stop-color="#DBACFF"/>
</linearGradient>
<linearGradient id="paint2_linear" x1="5" y1="24" x2="51" y2="24" gradientUnits="userSpaceOnUse">
<stop stop-color="#5BE2AA"/>
<stop offset="1" stop-color="#DBACFF"/>
</linearGradient>
<linearGradient id="paint3_linear" x1="4.61682" y1="33.4682" x2="50.6168" y2="33.4682" gradientUnits="userSpaceOnUse">
<stop stop-color="#5BE2AA"/>
<stop offset="1" stop-color="#DBACFF"/>
</linearGradient>
<linearGradient id="paint4_linear" x1="5" y1="25" x2="51" y2="24.5" gradientUnits="userSpaceOnUse">
<stop stop-color="#5BE2AA"/>
<stop offset="1" stop-color="#DBACFF"/>
</linearGradient>
<linearGradient id="paint5_linear" x1="4.61682" y1="34.4682" x2="50.6168" y2="33.9682" gradientUnits="userSpaceOnUse">
<stop stop-color="#5BE2AA"/>
<stop offset="1" stop-color="#DBACFF"/>
</linearGradient>
<linearGradient id="paint6_linear" x1="5" y1="23.5" x2="51" y2="23.5" gradientUnits="userSpaceOnUse">
<stop stop-color="#5BE2AA"/>
<stop offset="0.186574" stop-color="#73D8BA"/>
<stop offset="1" stop-color="#DBACFF"/>
</linearGradient>
<linearGradient id="paint7_linear" x1="4.61682" y1="32.9682" x2="50.6168" y2="32.9682" gradientUnits="userSpaceOnUse">
<stop stop-color="#5BE2AA"/>
<stop offset="0.186574" stop-color="#73D8BA"/>
<stop offset="1" stop-color="#DBACFF"/>
</linearGradient>
<linearGradient id="paint8_linear" x1="6" y1="37" x2="51.5" y2="36" gradientUnits="userSpaceOnUse">
<stop stop-color="#5BE2AA"/>
<stop offset="1" stop-color="#DBACFF"/>
</linearGradient>
</defs>
</svg>
