<svg width="31" height="31" viewBox="0 0 31 31" fill="none" xmlns="http://www.w3.org/2000/svg">
<rect x="1.28174" y="18.0059" width="25.0995" height="7.65624" transform="rotate(-44.7358 1.28174 18.0059)" fill="url(#paint0_linear)"/>
<path d="M30.2037 10.2946L20.7041 0.795176C20.1913 0.282422 19.5074 0 18.7784 0C18.0494 0 17.3655 0.282305 16.8527 0.795059L1.79518 15.8527C1.28242 16.3655 1 17.0493 1 17.7783C1 18.5073 1.28242 19.1912 1.79518 19.7039L2.96658 20.8753L10.8399 28.7486H9.74981C9.40469 28.7486 9.12485 29.0284 9.12485 29.3736C9.12485 29.7187 9.40469 29.9985 9.74981 29.9985H13.2179C13.2187 29.9985 13.2195 29.9986 13.2203 29.9986C13.2211 29.9986 13.2219 29.9985 13.2227 29.9985L22.2493 29.9987C22.5944 29.9987 22.8742 29.7188 22.8742 29.3737C22.8742 29.0285 22.5944 28.7487 22.2493 28.7487L15.601 28.7486L30.2037 14.1459C31.2654 13.084 31.2654 11.3564 30.2037 10.2946ZM29.3198 13.2621L14.2622 28.3197C13.986 28.5958 13.6169 28.748 13.2226 28.7486H13.2179C12.8237 28.748 12.4547 28.5958 12.1786 28.3197L4.29268 20.4337L18.7533 5.97293C18.9974 5.72889 18.9974 5.33315 18.7533 5.0891C18.5092 4.84506 18.1136 4.84506 17.8694 5.08916L3.40879 19.5499L2.67895 18.8201C2.40232 18.5435 2.24998 18.1735 2.24998 17.7783C2.24998 17.3832 2.40232 17.0132 2.679 16.7365L17.7365 1.67895C18.0132 1.40232 18.3832 1.24998 18.7784 1.24998C19.1736 1.24998 19.5436 1.40232 19.8203 1.679L23.2013 5.05998L8.74047 19.5209C8.49643 19.7649 8.49643 20.1606 8.74047 20.4048C8.86252 20.5268 9.02248 20.5878 9.18238 20.5878C9.34229 20.5878 9.50225 20.5267 9.6243 20.4048L24.0851 5.94387L29.3198 11.1784C29.8942 11.7529 29.8942 12.6876 29.3198 13.2621Z" fill="url(#paint1_linear)"/>
<path d="M16.3985 18.0502C16.1545 17.8062 15.7588 17.8062 15.5146 18.0502L10.5966 22.9681C10.3526 23.2122 10.3526 23.6079 10.5966 23.852C10.7187 23.9741 10.8786 24.0351 11.0385 24.0351C11.1984 24.0351 11.3584 23.974 11.4804 23.852L16.3984 18.9341C16.6425 18.6899 16.6425 18.2942 16.3985 18.0502Z" fill="url(#paint2_linear)"/>
<path d="M14.3813 22.7187L12.3642 24.7358C12.1201 24.9799 12.1201 25.3756 12.3642 25.6197C12.4862 25.7417 12.6462 25.8027 12.8061 25.8027C12.9661 25.8027 13.126 25.7417 13.248 25.6197L15.2651 23.6026C15.5091 23.3586 15.5091 22.9628 15.2651 22.7187C15.0211 22.4746 14.6255 22.4746 14.3813 22.7187Z" fill="url(#paint3_linear)"/>
<path d="M16.2375 20.8627L15.9724 21.1278C15.7283 21.3718 15.7283 21.7675 15.9723 22.0117C16.0943 22.1337 16.2543 22.1948 16.4142 22.1948C16.5741 22.1948 16.7341 22.1337 16.8561 22.0117L17.1212 21.7466C17.3653 21.5025 17.3653 21.1069 17.1213 20.8627C16.8774 20.6187 16.4816 20.6186 16.2375 20.8627Z" fill="url(#paint4_linear)"/>
<path d="M24.8518 9.59662C24.7347 9.47943 24.5757 9.41357 24.4099 9.41357C24.2442 9.41357 24.0853 9.47943 23.968 9.59662L21.3163 12.2482C21.1992 12.3655 21.1333 12.5244 21.1333 12.6901C21.1333 12.8559 21.1992 13.0149 21.3163 13.1321L23.0841 14.8996C23.2062 15.0217 23.3661 15.0827 23.526 15.0827C23.6861 15.0827 23.8459 15.0216 23.968 14.8996L26.6195 12.2482C26.8635 12.0041 26.8635 11.6084 26.6195 11.3643L24.8518 9.59662Z" fill="url(#paint5_linear)"/>
<path d="M19.77 4.69781C19.93 4.69781 20.09 4.63675 20.212 4.51464L20.4771 4.24939C20.7211 4.00529 20.721 3.60955 20.4769 3.36556C20.2329 3.12158 19.8371 3.12164 19.5931 3.36574L19.328 3.63099C19.084 3.87509 19.084 4.27084 19.3281 4.51482C19.4502 4.63687 19.61 4.69781 19.77 4.69781Z" fill="url(#paint6_linear)"/>
<path d="M7.28215 20.9795L7.01702 21.2446C6.77297 21.4886 6.77297 21.8843 7.01702 22.1285C7.13907 22.2505 7.29903 22.3115 7.45893 22.3115C7.61883 22.3115 7.77879 22.2505 7.90084 22.1285L8.16598 21.8633C8.41002 21.6192 8.41002 21.2235 8.16598 20.9795C7.92188 20.7354 7.52625 20.7354 7.28215 20.9795Z" fill="url(#paint7_linear)"/>
<path d="M29.2037 11.2946L19.7041 1.79518C19.1913 1.28242 18.5074 1 17.7784 1C17.0494 1 16.3655 1.2823 15.8527 1.79506L0.795176 16.8527C0.282422 17.3655 0 18.0493 0 18.7783C0 19.5073 0.282422 20.1912 0.795176 20.7039L1.96658 21.8753C1.9667 21.8754 1.96676 21.8755 1.96688 21.8756C1.96699 21.8757 1.96711 21.8758 1.96723 21.876L9.83989 29.7486H8.74981C8.40469 29.7486 8.12485 30.0284 8.12485 30.3736C8.12485 30.7187 8.40469 30.9985 8.74981 30.9985H12.2179C12.2187 30.9985 12.2195 30.9986 12.2203 30.9986C12.2211 30.9986 12.2219 30.9985 12.2227 30.9985L21.2493 30.9987C21.5944 30.9987 21.8742 30.7188 21.8742 30.3737C21.8742 30.0285 21.5944 29.7487 21.2493 29.7487L14.601 29.7486L29.2037 15.1459C30.2654 14.084 30.2654 12.3564 29.2037 11.2946ZM28.3198 14.2621L13.2622 29.3197C12.986 29.5958 12.6169 29.748 12.2226 29.7486H12.2179C11.8237 29.748 11.4547 29.5958 11.1786 29.3197L3.29268 21.4337L17.7533 6.97293C17.9974 6.72889 17.9974 6.33315 17.7533 6.0891C17.5092 5.84506 17.1136 5.84506 16.8694 6.08916L2.40879 20.5499L1.67895 19.8201C1.40232 19.5435 1.24998 19.1735 1.24998 18.7783C1.24998 18.3832 1.40232 18.0132 1.679 17.7365L16.7365 2.67895C17.0132 2.40232 17.3832 2.24998 17.7784 2.24998C18.1736 2.24998 18.5436 2.40232 18.8203 2.679L22.2013 6.05998L7.74047 20.5209C7.49643 20.7649 7.49643 21.1606 7.74047 21.4048C7.86252 21.5268 8.02248 21.5878 8.18238 21.5878C8.34229 21.5878 8.50225 21.5267 8.6243 21.4048L23.0851 6.94387L28.3198 12.1784C28.8942 12.7529 28.8942 13.6876 28.3198 14.2621Z" fill="#333333"/>
<path d="M15.3985 19.0502C15.1545 18.8062 14.7588 18.8062 14.5146 19.0502L9.59661 23.9681C9.35256 24.2122 9.35256 24.6079 9.59661 24.852C9.71866 24.9741 9.87862 25.0351 10.0385 25.0351C10.1984 25.0351 10.3584 24.974 10.4804 24.852L15.3984 19.9341C15.6425 19.6899 15.6425 19.2942 15.3985 19.0502Z" fill="#333333"/>
<path d="M13.3813 23.7187L11.3642 25.7358C11.1201 25.9799 11.1201 26.3756 11.3642 26.6197C11.4862 26.7417 11.6462 26.8027 11.8061 26.8027C11.9661 26.8027 12.126 26.7417 12.248 26.6197L14.2651 24.6026C14.5091 24.3586 14.5091 23.9628 14.2651 23.7187C14.0211 23.4746 13.6255 23.4746 13.3813 23.7187Z" fill="#333333"/>
<path d="M15.2375 21.8627L14.9724 22.1278C14.7283 22.3718 14.7283 22.7675 14.9723 23.0117C15.0943 23.1337 15.2543 23.1948 15.4142 23.1948C15.5741 23.1948 15.7341 23.1337 15.8561 23.0117L16.1212 22.7466C16.3653 22.5025 16.3653 22.1069 16.1213 21.8627C15.8774 21.6187 15.4816 21.6186 15.2375 21.8627Z" fill="#333333"/>
<path d="M23.8518 10.5966C23.7347 10.4794 23.5757 10.4136 23.4099 10.4136C23.2442 10.4136 23.0853 10.4794 22.968 10.5966L20.3163 13.2482C20.1992 13.3655 20.1333 13.5244 20.1333 13.6901C20.1333 13.8559 20.1992 14.0149 20.3163 14.1321L22.0841 15.8996C22.2062 16.0217 22.3661 16.0827 22.526 16.0827C22.6861 16.0827 22.8459 16.0216 22.968 15.8996L25.6195 13.2482C25.8635 13.0041 25.8635 12.6084 25.6195 12.3643L23.8518 10.5966ZM22.526 14.574L21.6421 13.6901L23.4099 11.9224L24.2937 12.8063L22.526 14.574Z" fill="#333333"/>
<path d="M18.77 5.69781C18.93 5.69781 19.09 5.63675 19.212 5.51464L19.4771 5.24939C19.7211 5.00529 19.721 4.60955 19.4769 4.36556C19.2329 4.12158 18.8371 4.12164 18.5931 4.36574L18.328 4.63099C18.084 4.87509 18.084 5.27084 18.3281 5.51482C18.4502 5.63687 18.61 5.69781 18.77 5.69781Z" fill="#333333"/>
<path d="M6.28215 21.9795L6.01702 22.2446C5.77297 22.4886 5.77297 22.8843 6.01702 23.1285C6.13907 23.2505 6.29903 23.3115 6.45893 23.3115C6.61883 23.3115 6.77879 23.2505 6.90084 23.1285L7.16598 22.8633C7.41002 22.6192 7.41002 22.2235 7.16598 21.9795C6.92188 21.7354 6.52625 21.7354 6.28215 21.9795Z" fill="#333333"/>
<defs>
<linearGradient id="paint0_linear" x1="0.739063" y1="21.8374" x2="26.3646" y2="22.0759" gradientUnits="userSpaceOnUse">
<stop stop-color="#5BE2AA"/>
<stop offset="1" stop-color="#DBACFF"/>
</linearGradient>
<linearGradient id="paint1_linear" x1="6.5" y1="24" x2="25" y2="5.5" gradientUnits="userSpaceOnUse">
<stop stop-color="#5BE2AA"/>
<stop offset="1" stop-color="#DBACFF"/>
</linearGradient>
<linearGradient id="paint2_linear" x1="13.4976" y1="17.8672" x2="13.4976" y2="24.0351" gradientUnits="userSpaceOnUse">
<stop stop-color="#5BE2AA"/>
<stop offset="1" stop-color="#DBACFF"/>
</linearGradient>
<linearGradient id="paint3_linear" x1="13.8146" y1="22.5356" x2="13.8146" y2="25.8027" gradientUnits="userSpaceOnUse">
<stop stop-color="#5BE2AA"/>
<stop offset="1" stop-color="#DBACFF"/>
</linearGradient>
<linearGradient id="paint4_linear" x1="16.5468" y1="20.6797" x2="16.5468" y2="22.1948" gradientUnits="userSpaceOnUse">
<stop stop-color="#5BE2AA"/>
<stop offset="1" stop-color="#DBACFF"/>
</linearGradient>
<linearGradient id="paint5_linear" x1="22.5" y1="14" x2="25.5" y2="10.5" gradientUnits="userSpaceOnUse">
<stop stop-color="#5BE2AA"/>
<stop offset="1" stop-color="#DBACFF"/>
</linearGradient>
<linearGradient id="paint6_linear" x1="19.9025" y1="3.18262" x2="19.9025" y2="4.69781" gradientUnits="userSpaceOnUse">
<stop stop-color="#5BE2AA"/>
<stop offset="1" stop-color="#DBACFF"/>
</linearGradient>
<linearGradient id="paint7_linear" x1="7.5915" y1="20.7964" x2="7.5915" y2="22.3115" gradientUnits="userSpaceOnUse">
<stop stop-color="#5BE2AA"/>
<stop offset="1" stop-color="#DBACFF"/>
</linearGradient>
</defs>
</svg>
