<svg width="50" height="47" viewBox="0 0 50 47" fill="none" xmlns="http://www.w3.org/2000/svg">
<rect width="39.156" height="11.9363" transform="matrix(0.734434 -0.67868 0.728158 0.685409 2.06732 27.0856)" fill="url(#paint0_linear)"/>
<path d="M48.7156 15.4859L33.3937 1.19616C32.5666 0.424839 31.4636 0 30.2878 0C29.112 0 28.009 0.424663 27.1818 1.19598L2.89552 23.8467C2.06849 24.6181 1.61298 25.6467 1.61298 26.7433C1.61298 27.84 2.06849 28.8688 2.89552 29.64L4.78488 31.4021L17.4837 43.2457H15.7255C15.1689 43.2457 14.7175 43.6666 14.7175 44.1858C14.7175 44.705 15.1689 45.1259 15.7255 45.1259H21.3193C21.3206 45.1259 21.3218 45.126 21.3231 45.126C21.3245 45.126 21.3257 45.1259 21.327 45.1259L35.8859 45.1261C36.4426 45.1261 36.8939 44.7051 36.8939 44.186C36.8939 43.6667 36.4426 43.2459 35.8859 43.2459L25.1629 43.2457L48.7157 21.2792C50.4281 19.6819 50.4281 17.083 48.7156 15.4859ZM47.2901 19.9497L23.0035 42.6005C22.5581 43.0158 21.9628 43.2448 21.3268 43.2457H21.3192C20.6834 43.2447 20.0882 43.0158 19.643 42.6005L6.92374 30.7378L30.2473 8.9849C30.6409 8.6178 30.6409 8.02249 30.2473 7.65539C29.8536 7.28828 29.2155 7.28828 28.8217 7.65547L5.49812 29.4084L4.32095 28.3105C3.87479 27.8944 3.62907 27.3379 3.62907 26.7434C3.62907 26.149 3.87479 25.5924 4.32104 25.1762L28.6074 2.52559C29.0536 2.10948 29.6504 1.88031 30.2878 1.88031C30.9251 1.88031 31.5219 2.10948 31.9682 2.52568L37.4215 7.61158L14.0976 29.3647C13.704 29.7318 13.704 30.3271 14.0976 30.6943C14.2944 30.8779 14.5524 30.9696 14.8104 30.9696C15.0683 30.9696 15.3263 30.8778 15.5231 30.6943L38.847 8.94119L47.2901 16.8153C48.2165 17.6795 48.2164 19.0856 47.2901 19.9497Z" fill="url(#paint1_linear)"/>
<path d="M26.4492 27.1518C26.0555 26.7847 25.4174 26.7848 25.0235 27.1518L17.0913 34.5498C16.6977 34.9169 16.6977 35.5121 17.0913 35.8794C17.2881 36.063 17.5461 36.1547 17.804 36.1547C18.062 36.1547 18.32 36.0629 18.5168 35.8794L26.4491 28.4814C26.8428 28.1142 26.8428 27.5189 26.4492 27.1518Z" fill="url(#paint2_linear)"/>
<path d="M23.1957 34.175L19.9423 37.2093C19.5487 37.5764 19.5487 38.1717 19.9423 38.5389C20.1392 38.7224 20.3972 38.8142 20.6551 38.8142C20.9132 38.8142 21.171 38.7224 21.3679 38.5389L24.6212 35.5046C25.0148 35.1375 25.0148 34.5422 24.6212 34.175C24.2276 33.8078 23.5896 33.8078 23.1957 34.175Z" fill="url(#paint3_linear)"/>
<path d="M26.1893 31.383L25.7616 31.7818C25.3679 32.1489 25.3679 32.7441 25.7615 33.1114C25.9583 33.295 26.2164 33.3868 26.4743 33.3868C26.7322 33.3868 26.9902 33.295 27.187 33.1114L27.6146 32.7126C28.0083 32.3455 28.0083 31.7503 27.6147 31.3831C27.2213 31.016 26.5829 31.0159 26.1893 31.383Z" fill="url(#paint4_linear)"/>
<path d="M40.0837 14.436C39.8947 14.2597 39.6383 14.1607 39.371 14.1607C39.1036 14.1607 38.8473 14.2597 38.6582 14.436L34.3813 18.4247C34.1923 18.6011 34.0861 18.8401 34.0861 19.0895C34.0861 19.3388 34.1923 19.578 34.3813 19.7542L37.2326 22.4132C37.4294 22.5968 37.6874 22.6885 37.9453 22.6885C38.2034 22.6885 38.4612 22.5967 38.6581 22.4132L42.9348 18.4246C43.3284 18.0575 43.3284 17.4622 42.9348 17.0951L40.0837 14.436Z" fill="url(#paint5_linear)"/>
<path d="M31.8872 7.06657C32.1453 7.06657 32.4033 6.97472 32.6001 6.79104L33.0277 6.39202C33.4212 6.02483 33.4211 5.42953 33.0274 5.06251C32.6338 4.69549 31.9954 4.69558 31.6019 5.06277L31.1743 5.46179C30.7807 5.82898 30.7808 6.42428 31.1745 6.7913C31.3714 6.9749 31.6292 7.06657 31.8872 7.06657Z" fill="url(#paint6_linear)"/>
<path d="M11.7459 31.5584L11.3182 31.9572C10.9246 32.3242 10.9246 32.9195 11.3182 33.2868C11.5151 33.4703 11.7731 33.5621 12.031 33.5621C12.2889 33.5621 12.5469 33.4703 12.7438 33.2868L13.1714 32.888C13.565 32.5208 13.565 31.9255 13.1714 31.5584C12.7777 31.1912 12.1396 31.1912 11.7459 31.5584Z" fill="url(#paint7_linear)"/>
<path d="M47.1026 16.9904L31.7807 2.70061C30.9536 1.92928 29.8506 1.50445 28.6748 1.50445C27.4991 1.50445 26.396 1.92911 25.5689 2.70043L1.28254 25.3511C0.455519 26.1225 0 27.1511 0 28.2478C0 29.3444 0.455519 30.3732 1.28254 31.1445L3.1719 32.9066C3.17209 32.9067 3.17219 32.9068 3.17238 32.907C3.17256 32.9072 3.17275 32.9074 3.17294 32.9075L15.8708 44.7501H14.1126C13.5559 44.7501 13.1046 45.171 13.1046 45.6903C13.1046 46.2094 13.5559 46.6304 14.1126 46.6304H19.7063C19.7076 46.6304 19.7088 46.6305 19.7102 46.6305C19.7115 46.6305 19.7127 46.6304 19.714 46.6304L34.273 46.6305C34.8296 46.6305 35.281 46.2096 35.281 45.6904C35.281 45.1712 34.8296 44.7503 34.273 44.7503L23.5499 44.7501L47.1027 22.7837C48.8152 21.1864 48.8152 18.5875 47.1026 16.9904ZM45.6771 21.4542L21.3906 44.105C20.9452 44.5203 20.3498 44.7493 19.7138 44.7501H19.7062C19.0704 44.7492 18.4753 44.5203 18.03 44.105L5.31076 32.2423L28.6344 10.4893C29.028 10.1222 29.028 9.52694 28.6344 9.15983C28.2406 8.79273 27.6025 8.79273 27.2087 9.15992L3.88514 30.9128L2.70797 29.8149C2.26181 29.3988 2.0161 28.8423 2.0161 28.2479C2.0161 27.6535 2.26181 27.0969 2.70807 26.6807L26.9944 4.03003C27.4407 3.61392 28.0375 3.38476 28.6748 3.38476C29.3122 3.38476 29.909 3.61392 30.3552 4.03012L35.8085 9.11603L12.4846 30.8692C12.091 31.2362 12.091 31.8315 12.4846 32.1988C12.6815 32.3823 12.9395 32.4741 13.1974 32.4741C13.4553 32.4741 13.7133 32.3822 13.9101 32.1987L37.234 10.4456L45.6771 18.3198C46.6035 19.1839 46.6034 20.59 45.6771 21.4542Z" fill="black"/>
<path d="M24.8359 28.6562C24.4423 28.2891 23.8042 28.2892 23.4103 28.6562L15.478 36.0541C15.0844 36.4212 15.0844 37.0165 15.478 37.3837C15.6749 37.5673 15.9329 37.6591 16.1908 37.6591C16.4487 37.6591 16.7067 37.5672 16.9035 37.3837L24.8358 29.9858C25.2295 29.6185 25.2295 29.0233 24.8359 28.6562Z" fill="black"/>
<path d="M21.5829 35.6794L18.3295 38.7136C17.9359 39.0807 17.9359 39.6761 18.3295 40.0432C18.5264 40.2268 18.7844 40.3186 19.0423 40.3186C19.3004 40.3186 19.5582 40.2268 19.7551 40.0432L23.0084 37.009C23.4021 36.6419 23.4021 36.0466 23.0084 35.6794C22.6148 35.3122 21.9768 35.3122 21.5829 35.6794Z" fill="black"/>
<path d="M24.5765 32.8874L24.1488 33.2862C23.7551 33.6533 23.7551 34.2485 24.1487 34.6158C24.3455 34.7994 24.6036 34.8912 24.8615 34.8912C25.1194 34.8912 25.3774 34.7994 25.5742 34.6158L26.0018 34.217C26.3955 33.8499 26.3955 33.2547 26.0019 32.8875C25.6085 32.5204 24.9701 32.5203 24.5765 32.8874Z" fill="black"/>
<path d="M38.4704 15.9404C38.2814 15.7641 38.025 15.665 37.7576 15.665C37.4903 15.665 37.234 15.7641 37.0449 15.9404L32.768 19.9291C32.579 20.1055 32.4728 20.3445 32.4728 20.5939C32.4728 20.8432 32.579 21.0823 32.768 21.2586L35.6192 23.9176C35.8161 24.1012 36.0741 24.1929 36.332 24.1929C36.5901 24.1929 36.8479 24.1011 37.0448 23.9176L41.3215 19.929C41.7151 19.5619 41.7151 18.9666 41.3215 18.5995L38.4704 15.9404ZM36.3319 21.9234L34.9063 20.5939L37.7575 17.9347L39.1831 19.2643L36.3319 21.9234Z" fill="black"/>
<path d="M30.2739 8.57094C30.532 8.57094 30.79 8.4791 30.9867 8.29541L31.4144 7.8964C31.8079 7.5292 31.8078 6.9339 31.4141 6.56688C31.0205 6.19986 30.3821 6.19995 29.9886 6.56715L29.5609 6.96616C29.1674 7.33335 29.1675 7.92866 29.5612 8.29568C29.7581 8.47927 30.0159 8.57094 30.2739 8.57094Z" fill="black"/>
<path d="M10.1326 33.0628L9.70491 33.4616C9.31129 33.8286 9.31129 34.4239 9.70491 34.7912C9.90177 34.9747 10.1598 35.0665 10.4177 35.0665C10.6756 35.0665 10.9336 34.9747 11.1304 34.7912L11.5581 34.3924C11.9517 34.0252 11.9517 33.4299 11.5581 33.0628C11.1644 32.6956 10.5263 32.6956 10.1326 33.0628Z" fill="black"/>
<defs>
<linearGradient id="paint0_linear" x1="-0.846591" y1="5.97344" x2="39.1301" y2="6.34575" gradientUnits="userSpaceOnUse">
<stop stop-color="#5BE2AA"/>
<stop offset="1" stop-color="#DBACFF"/>
</linearGradient>
<linearGradient id="paint1_linear" x1="10.4839" y1="36.1025" x2="38.2454" y2="6.33621" gradientUnits="userSpaceOnUse">
<stop stop-color="#5BE2AA"/>
<stop offset="1" stop-color="#DBACFF"/>
</linearGradient>
<linearGradient id="paint2_linear" x1="21.7702" y1="26.8765" x2="21.7702" y2="36.1547" gradientUnits="userSpaceOnUse">
<stop stop-color="#5BE2AA"/>
<stop offset="1" stop-color="#DBACFF"/>
</linearGradient>
<linearGradient id="paint3_linear" x1="22.2818" y1="33.8996" x2="22.2818" y2="38.8142" gradientUnits="userSpaceOnUse">
<stop stop-color="#5BE2AA"/>
<stop offset="1" stop-color="#DBACFF"/>
</linearGradient>
<linearGradient id="paint4_linear" x1="26.6881" y1="31.1077" x2="26.6881" y2="33.3868" gradientUnits="userSpaceOnUse">
<stop stop-color="#5BE2AA"/>
<stop offset="1" stop-color="#DBACFF"/>
</linearGradient>
<linearGradient id="paint5_linear" x1="36.2904" y1="21.0599" x2="40.7449" y2="15.4877" gradientUnits="userSpaceOnUse">
<stop stop-color="#5BE2AA"/>
<stop offset="1" stop-color="#DBACFF"/>
</linearGradient>
<linearGradient id="paint6_linear" x1="32.101" y1="4.78731" x2="32.101" y2="7.06657" gradientUnits="userSpaceOnUse">
<stop stop-color="#5BE2AA"/>
<stop offset="1" stop-color="#DBACFF"/>
</linearGradient>
<linearGradient id="paint7_linear" x1="12.2448" y1="31.283" x2="12.2448" y2="33.5621" gradientUnits="userSpaceOnUse">
<stop stop-color="#5BE2AA"/>
<stop offset="1" stop-color="#DBACFF"/>
</linearGradient>
</defs>
</svg>
