<svg width="52" height="51" viewBox="0 0 52 51" fill="none" xmlns="http://www.w3.org/2000/svg">
<path d="M27 50C20.322 50 14.0438 47.3995 9.32231 42.6777C4.60048 37.9559 2 31.678 2 25C2 18.322 4.60048 12.0441 9.32231 7.32231C14.0441 2.60048 20.322 0 27 0C33.678 0 39.9559 2.60048 44.6777 7.32231C49.3995 12.0441 52 18.322 52 25C52 31.678 49.3995 37.9562 44.6777 42.6781C39.9559 47.3995 33.678 50 27 50ZM27 1.95312C14.2917 1.95312 3.95312 12.2921 3.95312 25C3.95312 37.7083 14.2917 48.0469 27 48.0469C39.7083 48.0469 50.0469 37.7083 50.0469 25C50.0469 12.2921 39.7083 1.95312 27 1.95312Z" fill="url(#paint0_linear)"/>
<path d="M27.024 43.3535C23.9856 43.3535 20.9563 42.6031 18.2891 41.1661C17.8145 40.9101 17.6368 40.3181 17.8927 39.8431C18.1483 39.3682 18.7408 39.1908 19.2157 39.4468C25.5408 42.8553 33.5109 41.6834 38.5967 36.5972C41.6957 33.4985 43.4024 29.3778 43.4024 24.9954C43.4024 20.6127 41.6957 16.4924 38.5967 13.3933C32.1998 6.99633 21.7902 6.99595 15.393 13.3936C10.3072 18.4795 9.13533 26.4492 12.5434 32.7744C12.7994 33.2494 12.622 33.8414 12.147 34.0974C11.6725 34.353 11.0797 34.1756 10.8241 33.701C8.98961 30.2968 8.27473 26.3016 8.81032 22.4517C9.36421 18.4714 11.1628 14.8612 14.012 12.0123C21.1707 4.85321 32.8189 4.85321 39.978 12.0123C43.4459 15.4803 45.3556 20.0908 45.3556 24.9954C45.3556 29.8996 43.4455 34.5105 39.978 37.9785C37.1288 40.8277 33.5189 42.6264 29.5387 43.1803C28.7048 43.2962 27.864 43.3535 27.024 43.3535Z" fill="url(#paint1_linear)"/>
<path d="M14.6923 38.2741C14.4436 38.2741 14.1953 38.1799 14.0045 37.9911C13.6215 37.6111 13.6192 36.9927 13.9988 36.6096L14.0099 36.5986C14.3898 36.2156 15.0082 36.2129 15.3912 36.5929C15.7742 36.9725 15.7765 37.5909 15.3969 37.9739L15.3859 37.985C15.1947 38.1776 14.9437 38.2741 14.6923 38.2741Z" fill="#66DEB1"/>
<path d="M31.0098 32.1104C30.0542 32.6791 29.0262 32.9675 27.9539 32.9675C25.1977 32.9675 22.8216 31.0258 21.7603 28.2468H26.8281C27.3675 28.2468 27.8047 27.8096 27.8047 27.2702C27.8047 26.7308 27.3675 26.2936 26.8281 26.2936H21.2594C21.2003 25.8709 21.1683 25.438 21.1683 24.9962C21.1683 24.654 21.1885 24.3176 21.2243 23.9864H28.3094C28.8488 23.9864 29.2863 23.5493 29.2863 23.0099C29.2863 22.4705 28.8488 22.0333 28.3094 22.0333H21.6562C22.6594 19.1013 25.1035 17.0249 27.9539 17.0249C29.0262 17.0249 30.0542 17.3133 31.0098 17.8821C31.4733 18.1579 32.0726 18.0057 32.3484 17.5422C32.6242 17.0787 32.4724 16.4794 32.0089 16.2036C30.7645 15.4631 29.3626 15.0717 27.9539 15.0717C24.0434 15.0717 20.725 18.0034 19.6126 22.0333H17.7617C17.2227 22.0333 16.7852 22.4705 16.7852 23.0099C16.7852 23.5493 17.2227 23.9864 17.7617 23.9864H19.2598C19.23 24.3183 19.2147 24.6552 19.2147 24.9962C19.2147 25.4357 19.2403 25.8687 19.2895 26.2936H17.7617C17.2227 26.2936 16.7852 26.7308 16.7852 27.2702C16.7852 27.8096 17.2227 28.2468 17.7617 28.2468H19.6965C20.8848 32.1272 24.1372 34.9203 27.9539 34.9203C29.3623 34.9203 30.7645 34.5289 32.0085 33.7885C32.472 33.5127 32.6242 32.9134 32.3484 32.4499C32.0726 31.9864 31.4733 31.8342 31.0098 32.1104V32.1104Z" fill="url(#paint2_linear)"/>
<path d="M25 51C18.322 51 12.0438 48.3995 7.32231 43.6777C2.60048 38.9559 0 32.678 0 26C0 19.322 2.60048 13.0441 7.32231 8.32231C12.0441 3.60048 18.322 1 25 1C31.678 1 37.9559 3.60048 42.6777 8.32231C47.3995 13.0441 50 19.322 50 26C50 32.678 47.3995 38.9562 42.6777 43.6781C37.9559 48.3995 31.678 51 25 51ZM25 2.95312C12.2917 2.95312 1.95312 13.2921 1.95312 26C1.95312 38.7083 12.2917 49.0469 25 49.0469C37.7083 49.0469 48.0469 38.7083 48.0469 26C48.0469 13.2921 37.7083 2.95312 25 2.95312Z" fill="black"/>
<path d="M25.024 44.3535C21.9856 44.3535 18.9563 43.6031 16.2891 42.1661C15.8145 41.9101 15.6368 41.3181 15.8927 40.8431C16.1483 40.3682 16.7408 40.1908 17.2157 40.4468C23.5408 43.8553 31.5109 42.6834 36.5967 37.5972C39.6957 34.4985 41.4024 30.3778 41.4024 25.9954C41.4024 21.6127 39.6957 17.4924 36.5967 14.3933C30.1998 7.99633 19.7902 7.99595 13.393 14.3936C8.30721 19.4795 7.13533 27.4492 10.5434 33.7744C10.7994 34.2494 10.622 34.8414 10.147 35.0974C9.67249 35.353 9.07968 35.1756 8.8241 34.701C6.98961 31.2968 6.27473 27.3016 6.81032 23.4517C7.36421 19.4714 9.16285 15.8612 12.012 13.0123C19.1707 5.85321 30.8189 5.85321 37.978 13.0123C41.4459 16.4803 43.3556 21.0908 43.3556 25.9954C43.3556 30.8996 41.4455 35.5105 37.978 38.9785C35.1288 41.8277 31.5189 43.6264 27.5387 44.1803C26.7048 44.2962 25.864 44.3535 25.024 44.3535Z" fill="black"/>
<path d="M12.6923 39.2741C12.4436 39.2741 12.1953 39.1799 12.0045 38.9911C11.6215 38.6111 11.6192 37.9927 11.9988 37.6096L12.0099 37.5986C12.3898 37.2156 13.0082 37.2129 13.3912 37.5929C13.7742 37.9725 13.7765 38.5909 13.3969 38.9739L13.3859 38.985C13.1947 39.1776 12.9437 39.2741 12.6923 39.2741Z" fill="black"/>
<path d="M29.0098 33.1104C28.0542 33.6791 27.0262 33.9675 25.9539 33.9675C23.1977 33.9675 20.8216 32.0258 19.7603 29.2468H24.8281C25.3675 29.2468 25.8047 28.8096 25.8047 28.2702C25.8047 27.7308 25.3675 27.2936 24.8281 27.2936H19.2594C19.2003 26.8709 19.1683 26.438 19.1683 25.9962C19.1683 25.654 19.1885 25.3176 19.2243 24.9864H26.3094C26.8488 24.9864 27.2863 24.5493 27.2863 24.0099C27.2863 23.4705 26.8488 23.0333 26.3094 23.0333H19.6562C20.6594 20.1013 23.1035 18.0249 25.9539 18.0249C27.0262 18.0249 28.0542 18.3133 29.0098 18.8821C29.4733 19.1579 30.0726 19.0057 30.3484 18.5422C30.6242 18.0787 30.4724 17.4794 30.0089 17.2036C28.7645 16.4631 27.3626 16.0717 25.9539 16.0717C22.0434 16.0717 18.725 19.0034 17.6126 23.0333H15.7617C15.2227 23.0333 14.7852 23.4705 14.7852 24.0099C14.7852 24.5493 15.2227 24.9864 15.7617 24.9864H17.2598C17.23 25.3183 17.2147 25.6552 17.2147 25.9962C17.2147 26.4357 17.2403 26.8687 17.2895 27.2936H15.7617C15.2227 27.2936 14.7852 27.7308 14.7852 28.2702C14.7852 28.8096 15.2227 29.2468 15.7617 29.2468H17.6965C18.8848 33.1272 22.1372 35.9203 25.9539 35.9203C27.3623 35.9203 28.7645 35.5289 30.0085 34.7885C30.472 34.5127 30.6242 33.9134 30.3484 33.4499C30.0726 32.9864 29.4733 32.8342 29.0098 33.1104V33.1104Z" fill="black"/>
<defs>
<linearGradient id="paint0_linear" x1="2" y1="25" x2="52" y2="26" gradientUnits="userSpaceOnUse">
<stop stop-color="#5BE2AA"/>
<stop offset="1" stop-color="#DBACFF"/>
</linearGradient>
<linearGradient id="paint1_linear" x1="9" y1="25" x2="45" y2="25" gradientUnits="userSpaceOnUse">
<stop stop-color="#5BE2AA"/>
<stop offset="1" stop-color="#DBACFF"/>
</linearGradient>
<linearGradient id="paint2_linear" x1="16" y1="25" x2="35" y2="25" gradientUnits="userSpaceOnUse">
<stop stop-color="#5BE2AA"/>
<stop offset="1" stop-color="#DBACFF"/>
</linearGradient>
</defs>
</svg>
