<svg height="512pt" viewBox="0 0 512.00103 512" width="512pt" xmlns="http://www.w3.org/2000/svg"><path d="m256 512c-68.382812 0-132.671875-26.628906-181.019531-74.980469-48.351563-48.351562-74.980469-112.636719-74.980469-181.019531s26.628906-132.667969 74.980469-181.019531c48.351562-48.351563 112.636719-74.980469 181.019531-74.980469s132.667969 26.628906 181.019531 74.980469c48.351563 48.351562 74.980469 112.636719 74.980469 181.019531s-26.628906 132.671875-74.980469 181.023438c-48.351562 48.347656-112.636719 74.976562-181.019531 74.976562zm0-492c-130.132812 0-236 105.871094-236 236 0 130.132812 105.867188 236 236 236s236-105.867188 236-236c0-130.128906-105.867188-236-236-236zm0 0"/><path d="m256.246094 443.933594c-31.113282 0-62.132813-7.683594-89.445313-22.398438-4.859375-2.621094-6.679687-8.683594-4.058593-13.546875 2.617187-4.863281 8.683593-6.679687 13.546874-4.058593 64.769532 34.902343 146.382813 22.902343 198.460938-29.179688 31.734375-31.730469 49.210938-73.925781 49.210938-118.800781 0-44.878907-17.476563-87.070313-49.210938-118.804688-65.503906-65.503906-172.097656-65.507812-237.605469.003907-52.078125 52.078124-64.078125 133.6875-29.179687 198.457031 2.621094 4.863281.804687 10.925781-4.058594 13.546875-4.859375 2.617187-10.929688.800781-13.546875-4.058594-18.785156-34.859375-26.105469-75.769531-20.621094-115.191406 5.671875-40.757813 24.089844-77.726563 53.265625-106.898438 73.304688-73.308594 192.582032-73.308594 265.890625 0 35.511719 35.511719 55.066407 82.722656 55.066407 132.945313 0 50.21875-19.558594 97.433593-55.066407 132.945312-29.175781 29.175781-66.140625 47.59375-106.898437 53.265625-8.539063 1.1875-17.148438 1.773438-25.75 1.773438zm0 0"/><path d="m129.96875 391.921875c-2.546875 0-5.089844-.964844-7.042969-2.898437-3.921875-3.890626-3.945312-10.222657-.058593-14.144532l.113281-.113281c3.890625-3.921875 10.222656-3.949219 14.144531-.058594 3.921875 3.886719 3.945312 10.21875.058594 14.140625l-.113282.113282c-1.957031 1.972656-4.527343 2.960937-7.101562 2.960937zm0 0"/><path d="m297.0625 328.804688c-9.785156 5.824218-20.3125 8.777343-31.292969 8.777343-28.222656 0-52.554687-19.882812-63.421875-48.339843h51.894532c5.523437 0 10-4.476563 10-10 0-5.523438-4.476563-10-10-10h-57.023438c-.605469-4.328126-.933594-8.761719-.933594-13.285157 0-3.503906.207032-6.949219.574219-10.339843h72.550781c5.523438 0 10.003906-4.476563 10.003906-10 0-5.523438-4.480468-10-10.003906-10h-68.128906c10.273438-30.023438 35.300781-51.285157 64.488281-51.285157 10.980469 0 21.507813 2.953125 31.292969 8.777344 4.746094 2.824219 10.882812 1.265625 13.707031-3.480469s1.269531-10.882812-3.476562-13.707031c-12.742188-7.582031-27.097657-11.589844-41.523438-11.589844-40.042969 0-74.023437 30.019531-85.414062 71.285157h-18.953125c-5.519532 0-10 4.476562-10 10 0 5.523437 4.480468 10 10 10h15.339844c-.304688 3.398437-.460938 6.847656-.460938 10.339843 0 4.5.261719 8.933594.765625 13.285157h-15.644531c-5.519532 0-10 4.476562-10 10 0 5.523437 4.480468 10 10 10h19.8125c12.167968 39.734374 45.472656 68.335937 84.554687 68.335937 14.421875 0 28.78125-4.007813 41.519531-11.589844 4.746094-2.824219 6.304688-8.960937 3.480469-13.707031s-8.960937-6.304688-13.707031-3.476562zm0 0"/></svg>