<svg width="61" height="57" viewBox="0 0 61 57" fill="none" xmlns="http://www.w3.org/2000/svg">
<path d="M43.1049 18.5368L42.4687 16.5999C41.6606 14.3997 39.0772 13.2221 36.6985 13.9696C35.3605 14.3901 34.3096 15.3622 33.855 16.5999L33.2188 18.5368C32.6834 20.1703 32.5711 21.8974 32.8908 23.5785C33.1824 24.9938 34.1538 26.2098 35.5308 26.883L34.8183 41.6166C34.7229 42.439 35.0113 43.26 35.6111 43.8735C36.901 45.1786 39.0906 45.2693 40.5015 44.0762C40.5778 44.0117 40.6509 43.944 40.7206 43.8735C41.307 43.2774 41.5949 42.4805 41.5134 41.678L40.7969 26.8812C42.172 26.2076 43.1419 24.9924 43.433 23.5785C43.7527 21.8974 43.6403 20.1703 43.1049 18.5368Z" fill="url(#paint0_linear)"/>
<path d="M27.7571 13.75C27.2098 13.75 26.7661 14.1604 26.7661 14.6667L23.5 14.6668C23.3016 14.8497 22.7885 25.4537 22.8021 25.7125L24.6602 41.7542C24.6809 42.1001 24.5452 42.4385 24.2856 42.6883C23.7432 43.1945 24.5474 43.5019 24 43C26.1877 43.3037 25.0028 42.5026 25 42.5C24.7404 42.2502 24.6395 42.1001 24.6602 41.7542L22.8021 25.7125C22.816 25.4538 23.5 14.6668 23.5 14.6668L22 14.8169L19.8291 14.6667C19.8291 14.1604 19.3854 13.75 18.8382 13.75C18.2909 13.75 17.8472 14.1604 17.8472 14.6667V22.9167C17.8472 23.1598 17.9517 23.3929 18.1375 23.5648L20.7993 26.0278L19.954 41.6653C19.8641 43.3733 21.2881 44.8256 23.1347 44.9088C24.9813 44.992 26.5513 43.6747 26.6412 41.9666C26.6465 41.8662 26.6465 41.7657 26.6412 41.6654L25.7959 26.0279L28.4577 23.5649C28.6435 23.393 28.7481 23.1599 28.7481 22.9168V14.6668C28.7481 14.1604 28.3044 13.75 27.7571 13.75Z" fill="url(#paint1_linear)"/>
<path d="M30.7297 0C14.3105 0 1 12.3122 1 27.5C1 42.6878 14.3105 55 30.7297 55C47.149 55 60.4595 42.6878 60.4595 27.5C60.4409 12.3193 47.1413 0.0171875 30.7297 0ZM30.7297 53.1667C15.405 53.1667 2.98198 41.6753 2.98198 27.5C2.98198 13.3247 15.405 1.83333 30.7297 1.83333C46.0544 1.83333 58.4775 13.3247 58.4775 27.5C58.46 41.6686 46.0471 53.1505 30.7297 53.1667Z" fill="url(#paint2_linear)"/>
<path d="M45.8914 15.6878C45.5398 15.3 44.9147 15.2492 44.4954 15.5746C44.494 15.5757 44.4927 15.5768 44.4912 15.5778C44.0729 15.9042 44.0196 16.4824 44.3723 16.8694C50.3473 23.4305 49.8902 33.1321 43.3208 39.1875C42.9331 39.5449 42.932 40.1255 43.3183 40.4841C43.7047 40.8428 44.3324 40.8438 44.7201 40.4864C52.0209 33.7589 52.53 22.9787 45.8914 15.6878Z" fill="url(#paint3_linear)"/>
<path d="M18.0943 39.1417C14.7535 36.0568 12.8812 31.8666 12.8926 27.5C12.8828 24.0114 14.0774 20.611 16.3026 17.7943C16.6314 17.3896 16.5434 16.815 16.1058 16.5108C15.6683 16.2066 15.0471 16.288 14.7182 16.6927C14.7124 16.7 14.7067 16.7072 14.7011 16.7145C8.97158 24.0006 9.81466 34.0577 16.69 40.4397C17.0775 40.7983 17.7061 40.7986 18.0938 40.4401C18.4815 40.0817 18.4818 39.5003 18.0943 39.1417Z" fill="url(#paint4_linear)"/>
<path d="M42.1047 20.5368L41.4685 18.5999C40.6604 16.3997 38.077 15.2221 35.6983 15.9696C34.3602 16.3902 33.3094 17.3622 32.8548 18.5999L32.2186 20.5368C31.6832 22.1703 31.5709 23.8974 31.8906 25.5785C32.1822 26.9938 33.1536 28.2098 34.5306 28.8831L33.8181 43.6166C33.7227 44.439 34.011 45.26 34.6108 45.8735C35.9007 47.1786 38.0903 47.2693 39.5013 46.0762C39.5776 46.0117 39.6507 45.9441 39.7204 45.8735C40.3068 45.2774 40.5947 44.4805 40.5132 43.6781L39.7967 28.8812C41.1718 28.2076 42.1416 26.9924 42.4327 25.5785C42.7525 23.8974 42.6401 22.1703 42.1047 20.5368ZM40.4805 25.2595C40.2659 26.2763 39.4826 27.1106 38.4242 27.4494C38.0225 27.5891 37.7637 27.9521 37.783 28.3486L38.5362 43.8229C38.5708 44.1264 38.4626 44.429 38.2389 44.6534C37.6422 45.1998 36.6811 45.1998 36.0844 44.6534C35.8496 44.4109 35.7429 44.0846 35.7931 43.7624L36.5403 28.3486C36.5596 27.9521 36.3009 27.5891 35.8991 27.4494C34.8408 27.1106 34.0574 26.2763 33.8428 25.2595C33.5777 23.8639 33.6711 22.4301 34.1153 21.074L34.7516 19.1361C35.2438 17.905 36.7219 17.276 38.0531 17.7314C38.7568 17.9721 39.3115 18.4853 39.5717 19.1361L40.208 21.074C40.6517 22.4302 40.7451 23.8639 40.4805 25.2595Z" fill="black"/>
<path d="M26.757 15.75C26.2097 15.75 25.766 16.1604 25.766 16.6667V24.5372L23.0834 27.0186C22.885 27.2015 22.7794 27.4537 22.793 27.7125L23.6602 43.7542C23.6808 44.1001 23.5451 44.4385 23.2856 44.6883C22.7431 45.1945 21.8596 45.1982 21.3123 44.6963C21.3093 44.6936 21.3064 44.6909 21.3036 44.6883C21.0439 44.4385 20.9083 44.1001 20.929 43.7542L21.802 27.7125C21.8159 27.4538 21.7108 27.2017 21.5127 27.0186L18.8291 24.5372V16.6667C18.8291 16.1604 18.3854 15.75 17.8381 15.75C17.2908 15.75 16.8471 16.1604 16.8471 16.6667V24.9167C16.8471 25.1598 16.9516 25.3929 17.1375 25.5648L19.7993 28.0278L18.9539 43.6653C18.864 45.3733 20.2881 46.8256 22.1346 46.9088C23.9812 46.992 25.5512 45.6747 25.6411 43.9666C25.6465 43.8662 25.6465 43.7657 25.6411 43.6654L24.7958 28.0279L27.4576 25.5649C27.6434 25.393 27.748 25.1599 27.748 24.9168V16.6668C27.748 16.1604 27.3043 15.75 26.757 15.75Z" fill="black"/>
<path d="M20.8111 15.75C20.2638 15.75 19.8201 16.1604 19.8201 16.6667V24C19.8201 24.5062 20.2638 24.9167 20.8111 24.9167C21.3583 24.9167 21.802 24.5062 21.802 24V16.6667C21.802 16.1604 21.3583 15.75 20.8111 15.75Z" fill="black"/>
<path d="M23.784 15.75C23.2367 15.75 22.793 16.1604 22.793 16.6667V24C22.793 24.5062 23.2367 24.9167 23.784 24.9167C24.3313 24.9167 24.775 24.5062 24.775 24V16.6667C24.775 16.1604 24.3313 15.75 23.784 15.75Z" fill="black"/>
<path d="M29.7297 2C13.3105 2 0 14.3122 0 29.5C0 44.6878 13.3105 57 29.7297 57C46.149 57 59.4595 44.6878 59.4595 29.5C59.4409 14.3193 46.1413 2.01719 29.7297 2ZM29.7297 55.1667C14.405 55.1667 1.98198 43.6753 1.98198 29.5C1.98198 15.3247 14.405 3.83333 29.7297 3.83333C45.0544 3.83333 57.4775 15.3247 57.4775 29.5C57.46 43.6686 45.0471 55.1505 29.7297 55.1667Z" fill="black"/>
<path d="M32.9467 46.7072C32.8935 46.2033 32.4088 45.8347 31.864 45.8839C31.8512 45.885 31.8385 45.8864 31.8257 45.888L31.8297 45.8871C30.4345 46.037 29.0251 46.037 27.6299 45.8871C27.0861 45.8281 26.5937 46.188 26.5299 46.691C26.4661 47.194 26.8552 47.6495 27.399 47.7085C28.9463 47.8757 30.5093 47.8757 32.0566 47.7085C32.6013 47.6595 32.9998 47.2111 32.9467 46.7072Z" fill="black"/>
<path d="M44.8917 17.6878C44.54 17.3 43.9149 17.2492 43.4956 17.5746C43.4943 17.5757 43.4929 17.5768 43.4914 17.5778C43.0731 17.9042 43.0198 18.4824 43.3725 18.8694C49.3476 25.4305 48.8905 35.1321 42.3211 41.1875C41.9333 41.5449 41.9322 42.1255 42.3186 42.4841C42.7049 42.8428 43.3326 42.8438 43.7203 42.4864C51.0211 35.7589 51.5302 24.9787 44.8917 17.6878Z" fill="black"/>
<path d="M23.0911 14.1165C23.0902 14.1165 23.0893 14.1164 23.0884 14.1164C23.0869 14.1164 23.0855 14.1165 23.0839 14.1165H23.0911Z" fill="black"/>
<path d="M34.4044 11.679C30.5314 10.8205 26.4696 11.0512 22.7394 12.3418C22.2271 12.52 21.968 13.0486 22.1607 13.5224C22.3058 13.8796 22.675 14.116 23.0874 14.1163C23.2059 14.1158 23.3233 14.0957 23.4341 14.0569C26.7933 12.8949 30.451 12.6874 33.9386 13.461C34.4706 13.58 35.0061 13.2776 35.1347 12.7855C35.2633 12.2933 34.9364 11.798 34.4044 11.679Z" fill="black"/>
<path d="M17.094 41.1417C13.7533 38.0567 11.8809 33.8665 11.8923 29.5C11.8825 26.0114 13.0772 22.611 15.3023 19.7943C15.6312 19.3896 15.5431 18.815 15.1056 18.5108C14.6681 18.2065 14.0469 18.288 13.718 18.6927C13.7121 18.6999 13.7064 18.7072 13.7009 18.7145C7.97133 26.0006 8.81442 36.0577 15.6898 42.4397C16.0773 42.7983 16.7058 42.7985 17.0935 42.4401C17.4813 42.0817 17.4815 41.5003 17.094 41.1417Z" fill="black"/>
<defs>
<linearGradient id="paint0_linear" x1="2" y1="29" x2="63" y2="28" gradientUnits="userSpaceOnUse">
<stop stop-color="#5BE2AA"/>
<stop offset="1" stop-color="#DBACFF"/>
</linearGradient>
<linearGradient id="paint1_linear" x1="2.5" y1="26" x2="56.5" y2="26.5" gradientUnits="userSpaceOnUse">
<stop stop-color="#5BE2AA"/>
<stop offset="1" stop-color="#DBACFF"/>
</linearGradient>
<linearGradient id="paint2_linear" x1="1.72973" y1="26" x2="61" y2="26" gradientUnits="userSpaceOnUse">
<stop stop-color="#5BE2AA"/>
<stop offset="1" stop-color="#DBACFF"/>
</linearGradient>
<linearGradient id="paint3_linear" x1="3.5" y1="29.5" x2="60.5" y2="28" gradientUnits="userSpaceOnUse">
<stop stop-color="#5BE2AA"/>
<stop offset="1" stop-color="#DBACFF"/>
</linearGradient>
<linearGradient id="paint4_linear" x1="2" y1="27.5" x2="60.5" y2="29" gradientUnits="userSpaceOnUse">
<stop stop-color="#5BE2AA"/>
<stop offset="1" stop-color="#DBACFF"/>
</linearGradient>
</defs>
</svg>
