<svg width="32" height="32" viewBox="0 0 32 32" fill="none" xmlns="http://www.w3.org/2000/svg">
<path d="M11.9282 15.4838H21.1038C21.4204 15.4838 21.6773 15.2318 21.6773 14.9208V10.9794C21.6773 10.048 20.9054 9.29028 19.9569 9.29028H13.0752C12.1265 9.29028 11.3547 10.048 11.3547 10.9794V14.9208C11.3547 15.2318 11.6115 15.4838 11.9282 15.4838Z" fill="url(#paint0_linear)"/>
<path d="M20.129 17.5483C19.2751 17.5483 18.5806 18.2429 18.5806 19.0967C18.5806 19.9504 19.2751 20.6451 20.129 20.6451C20.9826 20.6451 21.6773 19.9504 21.6773 19.0967C21.6773 18.2429 20.9826 17.5483 20.129 17.5483Z" fill="url(#paint1_linear)"/>
<path d="M12.9031 17.5483C12.0493 17.5483 11.3547 18.2429 11.3547 19.0967C11.3547 19.9504 12.0493 20.6451 12.9031 20.6451C13.757 20.6451 14.4515 19.9504 14.4515 19.0967C14.4515 18.2429 13.757 17.5483 12.9031 17.5483Z" fill="url(#paint2_linear)"/>
<path d="M16.5161 0C7.95881 0 1.03223 6.92492 1.03223 15.4838C1.03223 20.9368 3.9071 25.9827 8.56837 28.7749L7.9066 30.0911C7.75657 30.3896 7.87683 30.7529 8.17523 30.9032C8.47411 31.0535 8.83748 30.9322 8.98727 30.6343L9.73222 29.1532H13.8184C14.1525 29.1532 14.4233 28.8822 14.4233 28.5483C14.4233 28.2143 14.1525 27.9435 13.8184 27.9435H10.3404L11.6481 25.3427H21.3813L22.6866 27.9435H19.2138C18.8797 27.9435 18.6089 28.2143 18.6089 28.5483C18.6089 28.8822 18.8797 29.1532 19.2138 29.1532H23.2938L24.0374 30.6341C24.1879 30.9337 24.5517 31.0527 24.8494 30.9032C25.1478 30.7534 25.2683 30.3898 25.1183 30.0914L24.4589 28.7778C29.1232 25.9858 32 20.9387 32 15.4838C32 6.92657 25.0753 0 16.5161 0ZM12.2565 24.133L13.2599 22.1371H19.7721L20.7738 24.133H12.2565ZM11.0725 20.9274C10.4056 20.9274 9.86287 20.3847 9.86287 19.7177V10.0403C9.86287 7.37217 12.0334 5.2016 14.7016 5.2016H18.3306C20.9985 5.2016 23.1693 7.37217 23.1693 10.0403V19.7177C23.1693 20.3847 22.6266 20.9274 21.9596 20.9274H11.0725ZM23.9147 27.6933L22.7346 25.3427H23.7742C24.108 25.3427 24.379 25.0717 24.379 24.7379C24.379 24.4038 24.108 24.133 23.7742 24.133H22.1274L21.1254 22.1371H21.9594C23.2936 22.1371 24.3788 21.0517 24.3788 19.7177V10.0403C24.3788 6.70519 21.6657 3.99193 18.3304 3.99193H14.7016C11.3665 3.99193 8.65319 6.70519 8.65319 10.0403V19.7177C8.65319 21.0517 9.73836 22.1371 11.0725 22.1371H11.9059L10.9022 24.133H9.25803C8.92395 24.133 8.65319 24.4038 8.65319 24.7379C8.65319 25.0717 8.92395 25.3427 9.25803 25.3427H10.2941L9.11344 27.6909C4.86067 25.1071 2.2419 20.4808 2.2419 15.4838C2.2419 7.59497 8.62579 1.20968 16.5161 1.20968C24.4048 1.20968 30.7903 7.59355 30.7903 15.4838C30.7903 20.4827 28.1692 25.1107 23.9147 27.6933Z" fill="url(#paint3_linear)"/>
<path d="M10.896 15.4838H20.0716C20.3881 15.4838 20.6451 15.2318 20.6451 14.9208V10.9794C20.6451 10.048 19.8731 9.29028 18.9247 9.29028H12.0429C11.0942 9.29028 10.3225 10.048 10.3225 10.9794V14.9208C10.3225 15.2318 10.5792 15.4838 10.896 15.4838ZM11.4695 10.9794C11.4695 10.6689 11.7266 10.4164 12.0429 10.4164H18.9247C19.2407 10.4164 19.4981 10.6689 19.4981 10.9794V14.3577H11.4695V10.9794Z" fill="black"/>
<path d="M19.0967 17.5483C18.2429 17.5483 17.5483 18.2429 17.5483 19.0967C17.5483 19.9504 18.2429 20.6451 19.0967 20.6451C19.9504 20.6451 20.6451 19.9504 20.6451 19.0967C20.6451 18.2429 19.9504 17.5483 19.0967 17.5483ZM19.0967 19.6129C18.812 19.6129 18.5806 19.3812 18.5806 19.0967C18.5806 18.812 18.812 18.5806 19.0967 18.5806C19.3812 18.5806 19.6129 18.812 19.6129 19.0967C19.6129 19.3812 19.3812 19.6129 19.0967 19.6129Z" fill="black"/>
<path d="M11.8709 17.5483C11.0171 17.5483 10.3225 18.2429 10.3225 19.0967C10.3225 19.9504 11.0171 20.6451 11.8709 20.6451C12.7247 20.6451 13.4193 19.9504 13.4193 19.0967C13.4193 18.2429 12.7247 17.5483 11.8709 17.5483ZM11.8709 19.6129C11.5862 19.6129 11.3548 19.3812 11.3548 19.0967C11.3548 18.812 11.5862 18.5806 11.8709 18.5806C12.1554 18.5806 12.387 18.812 12.387 19.0967C12.387 19.3812 12.1554 19.6129 11.8709 19.6129Z" fill="black"/>
<path d="M15.4839 29.4194C15.4839 29.7043 15.2529 29.9356 14.9678 29.9356C14.6827 29.9356 14.4517 29.7043 14.4517 29.4194C14.4517 29.1344 14.6827 28.9033 14.9678 28.9033C15.2529 28.9033 15.4839 29.1344 15.4839 29.4194Z" fill="black"/>
<path d="M15.4839 1.03223C6.92658 1.03223 0 7.95715 0 16.5161C0 21.9691 2.87487 27.015 7.53615 29.8071L6.87437 31.1234C6.72434 31.4218 6.8446 31.7852 7.143 31.9354C7.44188 32.0857 7.80525 31.9645 7.95505 31.6665L8.69999 30.1854H12.7862C13.1203 30.1854 13.391 29.9144 13.391 29.5806C13.391 29.2465 13.1203 28.9757 12.7862 28.9757H9.30814L10.6159 26.3749H20.349L21.6544 28.9757H18.1815C17.8475 28.9757 17.5767 29.2465 17.5767 29.5806C17.5767 29.9144 17.8475 30.1854 18.1815 30.1854H22.2616L23.0051 31.6663C23.1556 31.9659 23.5195 32.085 23.8172 31.9354C24.1156 31.7856 24.2361 31.422 24.086 31.1236L23.4266 29.81C28.091 27.018 30.9677 21.971 30.9677 16.5161C30.9677 7.9588 24.043 1.03223 15.4839 1.03223ZM11.2242 25.1653L12.2277 23.1693H18.7398L19.7416 25.1653H11.2242ZM10.0403 21.9596C9.37335 21.9596 8.83064 21.4169 8.83064 20.7499V11.0725C8.83064 8.40439 11.0012 6.23383 13.6694 6.23383H17.2984C19.9663 6.23383 22.1371 8.40439 22.1371 11.0725V20.7499C22.1371 21.4169 21.5944 21.9596 20.9274 21.9596H10.0403ZM22.8825 28.7255L21.7024 26.3749H22.7419C23.0758 26.3749 23.3468 26.1039 23.3468 25.7701C23.3468 25.436 23.0758 25.1653 22.7419 25.1653H21.0952L20.0932 23.1693H20.9272C22.2614 23.1693 23.3465 22.0839 23.3465 20.7499V11.0725C23.3465 7.73742 20.6335 5.02416 17.2982 5.02416H13.6694C10.3342 5.02416 7.62097 7.73742 7.62097 11.0725V20.7499C7.62097 22.0839 8.70613 23.1693 10.0403 23.1693H10.8736L9.86998 25.1653H8.22581C7.89173 25.1653 7.62097 25.436 7.62097 25.7701C7.62097 26.1039 7.89173 26.3749 8.22581 26.3749H9.26183L8.08121 28.7232C3.82844 26.1394 1.20968 21.5131 1.20968 16.5161C1.20968 8.62719 7.59356 2.2419 15.4839 2.2419C23.3725 2.2419 29.7581 8.62577 29.7581 16.5161C29.7581 21.515 27.1369 26.1429 22.8825 28.7255V28.7255Z" fill="black"/>
<defs>
<linearGradient id="paint0_linear" x1="11.3547" y1="12.9032" x2="21.6773" y2="12.9032" gradientUnits="userSpaceOnUse">
<stop stop-color="#5BE2AA"/>
<stop offset="1" stop-color="#F3ACFF"/>
<stop offset="1" stop-color="#F3ACFF"/>
<stop offset="1" stop-color="#DBACFF"/>
</linearGradient>
<linearGradient id="paint1_linear" x1="18.5806" y1="19.0967" x2="21.6773" y2="19.0967" gradientUnits="userSpaceOnUse">
<stop stop-color="#5BE2AA"/>
<stop offset="1" stop-color="#DBACFF"/>
</linearGradient>
<linearGradient id="paint2_linear" x1="11.3547" y1="19.0967" x2="14.4515" y2="19.0967" gradientUnits="userSpaceOnUse">
<stop stop-color="#5BE2AA"/>
<stop offset="1" stop-color="#DBACFF"/>
</linearGradient>
<linearGradient id="paint3_linear" x1="1.54836" y1="15.4839" x2="32" y2="15.4839" gradientUnits="userSpaceOnUse">
<stop stop-color="#5BE2AA"/>
<stop offset="1" stop-color="#DBACFF"/>
</linearGradient>
</defs>
</svg>
