<svg width="50" height="50" viewBox="0 0 50 50" fill="none" xmlns="http://www.w3.org/2000/svg">
<path d="M18.6378 24.1935H32.9747C33.4693 24.1935 33.8708 23.7996 33.8708 23.3137V17.1554C33.8708 15.7 32.6646 14.5161 31.1826 14.5161H20.4299C18.9476 14.5161 17.7418 15.7 17.7418 17.1554V23.3137C17.7418 23.7996 18.1429 24.1935 18.6378 24.1935Z" fill="url(#paint0_linear)"/>
<path d="M31.4518 27.4197C30.1177 27.4197 29.0324 28.5049 29.0324 29.8391C29.0324 31.1729 30.1177 32.2584 31.4518 32.2584C32.7856 32.2584 33.8711 31.1729 33.8711 29.8391C33.8711 28.5049 32.7856 27.4197 31.4518 27.4197Z" fill="url(#paint1_linear)"/>
<path d="M20.1611 27.4197C18.827 27.4197 17.7418 28.5049 17.7418 29.8391C17.7418 31.1729 18.827 32.2584 20.1611 32.2584C21.4952 32.2584 22.5805 31.1729 22.5805 29.8391C22.5805 28.5049 21.4952 27.4197 20.1611 27.4197Z" fill="url(#paint2_linear)"/>
<path d="M25.8065 0C12.4357 0 1.61295 10.8202 1.61295 24.1935C1.61295 32.7138 6.10494 40.598 13.3882 44.9608L12.3541 47.0174C12.1197 47.4837 12.3076 48.0514 12.7739 48.2862C13.2409 48.521 13.8087 48.3316 14.0427 47.8661L15.2067 45.5518H21.5914C22.1134 45.5518 22.5364 45.1284 22.5364 44.6068C22.5364 44.0848 22.1134 43.6617 21.5914 43.6617H16.1569L18.2002 39.598H33.4083L35.448 43.6617H30.0216C29.4996 43.6617 29.0765 44.0848 29.0765 44.6068C29.0765 45.1284 29.4996 45.5518 30.0216 45.5518H36.3967L37.5585 47.8658C37.7936 48.3339 38.3621 48.5199 38.8273 48.2862C39.2935 48.0522 39.4818 47.484 39.2474 47.0178L38.2171 44.9652C45.5051 40.6028 50 32.7168 50 24.1935C50 10.8228 39.1802 0 25.8065 0ZM19.1508 37.7078L20.7187 34.5892H30.8939L32.4592 37.7078H19.1508ZM17.3009 32.699C16.2588 32.699 15.4108 31.8511 15.4108 30.8089V15.688C15.4108 11.519 18.8023 8.12751 22.9713 8.12751H28.6417C32.8103 8.12751 36.2022 11.519 36.2022 15.688V30.8089C36.2022 31.8511 35.3542 32.699 34.312 32.699H17.3009ZM37.3669 43.2708L35.5229 39.598H37.1472C37.6688 39.598 38.0923 39.1745 38.0923 38.6529C38.0923 38.1309 37.6688 37.7078 37.1472 37.7078H34.5741L33.0085 34.5892H34.3117C36.3963 34.5892 38.0919 32.8932 38.0919 30.8089V15.688C38.0919 10.4769 33.8528 6.23739 28.6413 6.23739H22.9713C17.7602 6.23739 13.5207 10.4769 13.5207 15.688V30.8089C13.5207 32.8932 15.2163 34.5892 17.3009 34.5892H18.603L17.0348 37.7078H14.4658C13.9438 37.7078 13.5207 38.1309 13.5207 38.6529C13.5207 39.1745 13.9438 39.598 14.4658 39.598H16.0846L14.2398 43.2671C7.59488 39.2299 3.50307 32.0013 3.50307 24.1935C3.50307 11.8671 13.4779 1.89012 25.8065 1.89012C38.1325 1.89012 48.1099 11.8649 48.1099 24.1935C48.1099 32.0043 44.0144 39.2354 37.3669 43.2708Z" fill="url(#paint3_linear)"/>
<path d="M17.0251 24.1933H31.362C31.8566 24.1933 32.2581 23.7994 32.2581 23.3135V17.1552C32.2581 15.6998 31.0519 14.5159 29.5699 14.5159H18.8172C17.3349 14.5159 16.129 15.6998 16.129 17.1552V23.3135C16.129 23.7994 16.5302 24.1933 17.0251 24.1933ZM17.9211 17.1552C17.9211 16.6699 18.323 16.2754 18.8172 16.2754H29.5699C30.0638 16.2754 30.4659 16.6699 30.4659 17.1552V22.4337H17.9211V17.1552Z" fill="black"/>
<path d="M29.8391 27.4195C28.505 27.4195 27.4197 28.5047 27.4197 29.8389C27.4197 31.1727 28.505 32.2582 29.8391 32.2582C31.1729 32.2582 32.2584 31.1727 32.2584 29.8389C32.2584 28.5047 31.1729 27.4195 29.8391 27.4195ZM29.8391 30.6453C29.3943 30.6453 29.0326 30.2834 29.0326 29.8389C29.0326 29.394 29.3943 29.0324 29.8391 29.0324C30.2836 29.0324 30.6455 29.394 30.6455 29.8389C30.6455 30.2834 30.2836 30.6453 29.8391 30.6453Z" fill="black"/>
<path d="M18.5484 27.4195C17.2143 27.4195 16.129 28.5047 16.129 29.8389C16.129 31.1727 17.2143 32.2582 18.5484 32.2582C19.8825 32.2582 20.9677 31.1727 20.9677 29.8389C20.9677 28.5047 19.8825 27.4195 18.5484 27.4195ZM18.5484 30.6453C18.1036 30.6453 17.7419 30.2834 17.7419 29.8389C17.7419 29.394 18.1036 29.0324 18.5484 29.0324C18.9929 29.0324 19.3548 29.394 19.3548 29.8389C19.3548 30.2834 18.9929 30.6453 18.5484 30.6453Z" fill="black"/>
<path d="M24.1937 45.9679C24.1937 46.4131 23.8327 46.7744 23.3873 46.7744C22.9419 46.7744 22.5808 46.4131 22.5808 45.9679C22.5808 45.5225 22.9419 45.1615 23.3873 45.1615C23.8327 45.1615 24.1937 45.5225 24.1937 45.9679Z" fill="black"/>
<path d="M24.1935 1.61296C10.8228 1.61296 0 12.4331 0 25.8065C0 34.3268 4.49199 42.211 11.7752 46.5738L10.7412 48.6304C10.5068 49.0966 10.6947 49.6644 11.1609 49.8992C11.6279 50.134 12.1957 49.9446 12.4298 49.4791L13.5937 47.1648H19.9784C20.5004 47.1648 20.9235 46.7414 20.9235 46.2197C20.9235 45.6977 20.5004 45.2747 19.9784 45.2747H14.544L16.5873 41.2109H31.7954L33.835 45.2747H28.4087C27.8867 45.2747 27.4636 45.6977 27.4636 46.2197C27.4636 46.7414 27.8867 47.1648 28.4087 47.1648H34.7838L35.9455 49.4787C36.1807 49.9468 36.7492 50.1329 37.2143 49.8992C37.6806 49.6651 37.8689 49.097 37.6344 48.6307L36.6041 46.5782C43.8921 42.2158 48.3871 34.3297 48.3871 25.8065C48.3871 12.4357 37.5673 1.61296 24.1935 1.61296ZM17.5379 39.3208L19.1057 36.2021H29.281L30.8463 39.3208H17.5379ZM15.688 34.312C14.6459 34.312 13.7979 33.464 13.7979 32.4219V17.3009C13.7979 13.132 17.1894 9.74046 21.3584 9.74046H27.0287C31.1973 9.74046 34.5892 13.132 34.5892 17.3009V32.4219C34.5892 33.464 33.7412 34.312 32.6991 34.312H15.688ZM35.7539 44.8837L33.9099 41.2109H35.5343C36.0559 41.2109 36.4793 40.7875 36.4793 40.2659C36.4793 39.7439 36.0559 39.3208 35.5343 39.3208H32.9612L31.3956 36.2021H32.6987C34.7834 36.2021 36.479 34.5062 36.479 32.4219V17.3009C36.479 12.0898 32.2398 7.85035 27.0284 7.85035H21.3584C16.1472 7.85035 11.9078 12.0898 11.9078 17.3009V32.4219C11.9078 34.5062 13.6033 36.2021 15.688 36.2021H16.99L15.4218 39.3208H12.8528C12.3308 39.3208 11.9078 39.7439 11.9078 40.2659C11.9078 40.7875 12.3308 41.2109 12.8528 41.2109H14.4716L12.6269 44.88C5.98194 40.8429 1.89012 33.6143 1.89012 25.8065C1.89012 13.4801 11.8649 3.50307 24.1935 3.50307C36.5196 3.50307 46.497 13.4779 46.497 25.8065C46.497 33.6172 42.4015 40.8484 35.7539 44.8837V44.8837Z" fill="black"/>
<defs>
<linearGradient id="paint0_linear" x1="17.7418" y1="20.1612" x2="33.8708" y2="20.1612" gradientUnits="userSpaceOnUse">
<stop stop-color="#5BE2AA"/>
<stop offset="1" stop-color="#F3ACFF"/>
<stop offset="1" stop-color="#F3ACFF"/>
<stop offset="1" stop-color="#DBACFF"/>
</linearGradient>
<linearGradient id="paint1_linear" x1="29.0324" y1="29.8391" x2="33.8712" y2="29.8391" gradientUnits="userSpaceOnUse">
<stop stop-color="#5BE2AA"/>
<stop offset="1" stop-color="#DBACFF"/>
</linearGradient>
<linearGradient id="paint2_linear" x1="17.7418" y1="29.8391" x2="22.5805" y2="29.8391" gradientUnits="userSpaceOnUse">
<stop stop-color="#5BE2AA"/>
<stop offset="1" stop-color="#DBACFF"/>
</linearGradient>
<linearGradient id="paint3_linear" x1="2.4194" y1="24.1935" x2="50" y2="24.1935" gradientUnits="userSpaceOnUse">
<stop stop-color="#5BE2AA"/>
<stop offset="1" stop-color="#DBACFF"/>
</linearGradient>
</defs>
</svg>
