<svg width="35" height="50" viewBox="0 0 35 50" fill="none" xmlns="http://www.w3.org/2000/svg">
<path d="M9.54677 13.4994C9.54677 12.3207 8.58817 11.3616 7.40897 11.3616C6.23022 11.3616 5.27127 12.3207 5.27127 13.4994C5.27127 14.6782 6.23022 15.6372 7.40897 15.6372C8.58817 15.6372 9.54677 14.6782 9.54677 13.4994ZM6.83793 13.4994C6.83793 13.1843 7.09429 12.9284 7.40897 12.9284C7.7241 12.9284 7.98046 13.1843 7.98046 13.4994C7.98046 13.8145 7.7241 14.0704 7.40897 14.0704C7.09429 14.0704 6.83793 13.8145 6.83793 13.4994Z" fill="white"/>
<path d="M27.0577 15.6372C28.2363 15.6372 29.1954 14.6782 29.1954 13.4994C29.1954 12.3207 28.2363 11.3616 27.0577 11.3616C25.8789 11.3616 24.9199 12.3207 24.9199 13.4994C24.9199 14.6782 25.8789 15.6372 27.0577 15.6372ZM27.0577 12.9284C27.3723 12.9284 27.6287 13.1843 27.6287 13.4994C27.6287 13.8145 27.3723 14.0704 27.0577 14.0704C26.7425 14.0704 26.4865 13.8145 26.4865 13.4994C26.4865 13.1843 26.7425 12.9284 27.0577 12.9284Z" fill="white"/>
<path d="M31.2362 44.0632C31.0726 42.0884 29.6921 40.4522 27.8472 39.9109V35.2028C27.8472 34.7702 27.4967 34.4197 27.0641 34.4197C26.6311 34.4197 26.2806 34.7702 26.2806 35.2028V39.7187H13.0573C12.6244 39.7187 12.2739 40.0692 12.2739 40.5021C12.2739 40.9348 12.6244 41.2853 13.0573 41.2853H26.2806C26.4046 41.2967 27.0603 41.214 27.8472 41.5802C28.7453 41.9971 29.416 42.8226 29.6207 43.8167H5.02892C5.32538 42.3748 6.60515 41.2853 8.13672 41.2853H10.1196C10.5515 41.2853 10.9032 40.9348 10.9032 40.5021C10.9032 40.0692 10.5515 39.7187 10.1196 39.7187H8.18592V18.607C9.76408 18.3693 11.1508 17.4153 11.9381 15.9771C11.9526 15.9496 11.9927 15.9301 12.035 15.9301C23.0267 15.9504 22.48 15.8863 22.5285 15.9771C23.3158 17.4153 24.7024 18.3701 26.2806 18.6081V32.2654C26.2806 32.6973 26.6311 33.0487 27.0641 33.0487C27.4967 33.0487 27.8472 32.6973 27.8472 32.2654V18.6081C30.2895 18.2347 32.2227 16.1076 32.2323 13.5193C32.2407 11.0596 30.5473 9.04693 28.339 8.48923L32.18 1.59989C32.5809 0.881204 32.0568 0 31.2412 0H3.22533C2.40899 0 1.88599 0.881967 2.28654 1.59989L6.12761 8.48923C3.92113 9.04656 2.22588 11.0576 2.23427 13.5193C2.23923 14.8529 2.75727 16.1201 3.69335 17.0883C4.48955 17.9108 5.51181 18.4388 6.61927 18.6081V39.9686C4.88588 40.5549 3.59836 42.1215 3.41835 44.0044C1.44616 44.5774 0 46.4004 0 48.5569V48.9151C0 49.5132 0.486761 50 1.08491 50H33.3817C33.9798 50 34.4666 49.5132 34.4666 48.9151V48.5569C34.4666 46.4702 33.1115 44.6949 31.2362 44.0632ZM5.52639 4.19427L4.06155 1.5667H30.4051L28.9402 4.19427H24.7932C24.3606 4.19427 24.0101 4.54521 24.0101 4.9778C24.0101 5.41039 24.3606 5.76096 24.7932 5.76096H28.0671L26.6342 8.33169H7.8323L6.39958 5.76096H21.8559C22.2886 5.76096 22.6391 5.41039 22.6391 4.9778C22.6391 4.54521 22.2886 4.19427 21.8559 4.19427H5.52639ZM3.80097 13.5135C3.793 11.4681 5.43858 9.98344 7.35283 9.98344H27.1137C29.0302 9.98344 30.6736 11.47 30.6657 13.5135C30.6595 15.1997 29.4434 16.6515 27.8472 17.0128C26.3359 17.3573 24.7021 16.6855 23.9033 15.2248C23.6126 14.6934 23.0484 14.3635 22.4316 14.3635H12.035C11.4182 14.3635 10.854 14.6934 10.5632 15.2248C9.76146 16.6901 8.12647 17.3565 6.61927 17.0128C5.02323 16.6515 3.80712 15.1997 3.80097 13.5135ZM1.5686 48.4333C1.61668 47.2072 2.36168 46.1586 3.41721 45.673C3.82079 45.4873 4.26826 45.3831 4.7401 45.3831H29.7264C30.262 45.3831 30.7675 45.5165 31.2099 45.7516C32.18 46.2673 32.8529 47.271 32.898 48.4333H1.5686Z" fill="white"/>
<path d="M23.1331 19.6633V37.631C23.1331 38.0635 23.484 38.4141 23.9167 38.4141C24.3492 38.4141 24.6998 38.0635 24.6998 37.631V19.6633C24.6998 19.2308 24.3492 18.8799 23.9167 18.8799C23.484 18.8799 23.1331 19.2308 23.1331 19.6633Z" fill="white"/>
<path d="M19.7915 17.9988V37.6312C19.7915 38.0638 20.1421 38.4143 20.5746 38.4143C21.0073 38.4143 21.3582 38.0638 21.3582 37.6312V17.9988C21.3582 17.5663 21.0073 17.2157 20.5746 17.2157C20.1421 17.2157 19.7915 17.5663 19.7915 17.9988Z" fill="white"/>
<path d="M16.45 17.9988V37.6312C16.45 38.0638 16.8005 38.4143 17.2332 38.4143C17.6657 38.4143 18.0163 38.0638 18.0163 37.6312V17.9988C18.0163 17.5663 17.6657 17.2157 17.2332 17.2157C16.8005 17.2157 16.45 17.5663 16.45 17.9988Z" fill="white"/>
<path d="M13.1083 17.9988V37.6312C13.1083 38.0638 13.4593 38.4143 13.8919 38.4143C14.3244 38.4143 14.6751 38.0638 14.6751 37.6312V17.9988C14.6751 17.5663 14.3244 17.2157 13.8919 17.2157C13.4593 17.2157 13.1083 17.5663 13.1083 17.9988Z" fill="white"/>
<path d="M9.76672 19.6633V37.631C9.76672 38.0635 10.1174 38.4141 10.5499 38.4141C10.9825 38.4141 11.3335 38.0635 11.3335 37.631V19.6633C11.3335 19.2308 10.9825 18.8799 10.5499 18.8799C10.1174 18.8799 9.76672 19.2308 9.76672 19.6633Z" fill="white"/>
</svg>
