<svg width="45" height="45" viewBox="0 0 45 45" fill="none" xmlns="http://www.w3.org/2000/svg">
<g clip-path="url(#clip0)">
<path d="M16.3401 11.7674C16.3401 10.7324 15.4983 9.89038 14.463 9.89038C13.428 9.89038 12.5859 10.7324 12.5859 11.7674C12.5859 12.8024 13.428 13.6445 14.463 13.6445C15.4983 13.6445 16.3401 12.8024 16.3401 11.7674ZM13.9616 11.7674C13.9616 11.4908 14.1867 11.266 14.463 11.266C14.7397 11.266 14.9647 11.4908 14.9647 11.7674C14.9647 12.0441 14.7397 12.2689 14.463 12.2689C14.1867 12.2689 13.9616 12.0441 13.9616 11.7674Z" fill="black"/>
<path d="M31.7154 13.6445C32.7504 13.6445 33.5925 12.8024 33.5925 11.7674C33.5925 10.7324 32.7504 9.89038 31.7154 9.89038C30.6804 9.89038 29.8384 10.7324 29.8384 11.7674C29.8384 12.8024 30.6804 13.6445 31.7154 13.6445ZM31.7154 11.266C31.9917 11.266 32.2168 11.4908 32.2168 11.7674C32.2168 12.0441 31.9917 12.2689 31.7154 12.2689C31.4387 12.2689 31.214 12.0441 31.214 11.7674C31.214 11.4908 31.4387 11.266 31.7154 11.266Z" fill="black"/>
<path d="M35.3845 38.6039C35.2408 36.8699 34.0286 35.4333 32.4088 34.958V30.8241C32.4088 30.4442 32.101 30.1364 31.7211 30.1364C31.341 30.1364 31.0332 30.4442 31.0332 30.8241V34.7892H19.4225C19.0423 34.7892 18.7345 35.097 18.7345 35.4772C18.7345 35.857 19.0423 36.1648 19.4225 36.1648H31.0332C31.142 36.1749 31.7178 36.1022 32.4088 36.4238C33.1973 36.7899 33.7861 37.5147 33.966 38.3876H12.3732C12.6334 37.1215 13.7572 36.1648 15.102 36.1648H16.843C17.2222 36.1648 17.531 35.857 17.531 35.4772C17.531 35.097 17.2222 34.7892 16.843 34.7892H15.1452V16.2521C16.5309 16.0434 17.7484 15.2057 18.4397 13.943C18.4525 13.9189 18.4876 13.9018 18.5248 13.9018C28.176 13.9195 27.6961 13.8633 27.7386 13.943C28.4299 15.2057 29.6475 16.0441 31.0332 16.2531V28.245C31.0332 28.6241 31.341 28.9326 31.7211 28.9326C32.101 28.9326 32.4088 28.6241 32.4088 28.245V16.2531C34.5531 15.9252 36.2507 14.0575 36.259 11.7849C36.2664 9.62515 34.7796 7.85796 32.8405 7.36826L36.2131 1.31908C36.5652 0.688039 36.105 -0.0856934 35.3888 -0.0856934H10.7895C10.0727 -0.0856934 9.61351 0.688709 9.9652 1.31908L13.3378 7.36826C11.4005 7.85762 9.91195 9.62348 9.91932 11.7849C9.92367 12.9559 10.3785 14.0686 11.2005 14.9187C11.8995 15.6408 12.7972 16.1044 13.7696 16.2531V35.0086C12.2475 35.5234 11.1171 36.899 10.959 38.5524C9.22731 39.0555 7.95752 40.6562 7.95752 42.5496V42.8642C7.95752 43.3894 8.38491 43.8168 8.91011 43.8168H37.2682C37.7934 43.8168 38.2208 43.3894 38.2208 42.8642V42.5496C38.2208 40.7175 37.0311 39.1586 35.3845 38.6039ZM12.8099 3.59707L11.5237 1.28994H34.6546L33.3684 3.59707H29.7272C29.3474 3.59707 29.0395 3.90522 29.0395 4.28506C29.0395 4.66489 29.3474 4.97271 29.7272 4.97271H32.6017L31.3437 7.22993H14.8347L13.5766 4.97271H27.1481C27.5279 4.97271 27.8357 4.66489 27.8357 4.28506C27.8357 3.90522 27.5279 3.59707 27.1481 3.59707H12.8099Z" fill="url(#paint0_linear)"/>
<path d="M28.2695 17.1797V32.9561C28.2695 33.3359 28.5777 33.6437 28.9575 33.6437C29.3374 33.6437 29.6452 33.3359 29.6452 32.9561V17.1797C29.6452 16.7999 29.3374 16.4917 28.9575 16.4917C28.5777 16.4917 28.2695 16.7999 28.2695 17.1797Z" fill="url(#paint1_linear)"/>
<path d="M25.3354 15.7182V32.9563C25.3354 33.3361 25.6433 33.644 26.0231 33.644C26.4029 33.644 26.7111 33.3361 26.7111 32.9563V15.7182C26.7111 15.3383 26.4029 15.0305 26.0231 15.0305C25.6433 15.0305 25.3354 15.3383 25.3354 15.7182Z" fill="url(#paint2_linear)"/>
<path d="M22.4014 15.7182V32.9563C22.4014 33.3361 22.7092 33.644 23.089 33.644C23.4688 33.644 23.7767 33.3361 23.7767 32.9563V15.7182C23.7767 15.3383 23.4688 15.0305 23.089 15.0305C22.7092 15.0305 22.4014 15.3383 22.4014 15.7182Z" fill="url(#paint3_linear)"/>
<path d="M19.4673 15.7182V32.9563C19.4673 33.3361 19.7754 33.644 20.1553 33.644C20.5351 33.644 20.8429 33.3361 20.8429 32.9563V15.7182C20.8429 15.3383 20.5351 15.0305 20.1553 15.0305C19.7754 15.0305 19.4673 15.3383 19.4673 15.7182Z" fill="url(#paint4_linear)"/>
<path d="M16.5332 17.1797V32.9561C16.5332 33.3359 16.841 33.6437 17.2209 33.6437C17.6007 33.6437 17.9089 33.3359 17.9089 32.9561V17.1797C17.9089 16.7999 17.6007 16.4917 17.2209 16.4917C16.841 16.4917 16.5332 16.7999 16.5332 17.1797Z" fill="url(#paint5_linear)"/>
</g>
<g clip-path="url(#clip1)">
<path d="M15.2424 12.8651C15.2424 11.8301 14.4007 10.988 13.3653 10.988C12.3303 10.988 11.4883 11.8301 11.4883 12.8651C11.4883 13.9001 12.3303 14.7422 13.3653 14.7422C14.4007 14.7422 15.2424 13.9001 15.2424 12.8651ZM12.8639 12.8651C12.8639 12.5884 13.089 12.3637 13.3653 12.3637C13.642 12.3637 13.8671 12.5884 13.8671 12.8651C13.8671 13.1418 13.642 13.3665 13.3653 13.3665C13.089 13.3665 12.8639 13.1418 12.8639 12.8651Z" fill="black"/>
<path d="M30.6178 14.7422C31.6527 14.7422 32.4948 13.9001 32.4948 12.8651C32.4948 11.8301 31.6527 10.988 30.6178 10.988C29.5828 10.988 28.7407 11.8301 28.7407 12.8651C28.7407 13.9001 29.5828 14.7422 30.6178 14.7422ZM30.6178 12.3637C30.8941 12.3637 31.1192 12.5884 31.1192 12.8651C31.1192 13.1418 30.8941 13.3665 30.6178 13.3665C30.3411 13.3665 30.1163 13.1418 30.1163 12.8651C30.1163 12.5884 30.3411 12.3637 30.6178 12.3637Z" fill="black"/>
<path d="M34.2868 39.7016C34.1431 37.9676 32.931 36.531 31.3111 36.0557V31.9217C31.3111 31.5419 31.0033 31.2341 30.6235 31.2341C30.2433 31.2341 29.9355 31.5419 29.9355 31.9217V35.8869H18.3248C17.9447 35.8869 17.6369 36.1947 17.6369 36.5748C17.6369 36.9547 17.9447 37.2625 18.3248 37.2625H29.9355C30.0444 37.2725 30.6201 37.1999 31.3111 37.5214C32.0996 37.8875 32.6885 38.6123 32.8683 39.4852H11.2755C11.5358 38.2191 12.6595 37.2625 14.0043 37.2625H15.7454C16.1246 37.2625 16.4334 36.9547 16.4334 36.5748C16.4334 36.1947 16.1246 35.8869 15.7454 35.8869H14.0475V17.3498C15.4332 17.1411 16.6508 16.3034 17.3421 15.0406C17.3548 15.0165 17.39 14.9994 17.4272 14.9994C27.0784 15.0172 26.5984 14.9609 26.641 15.0406C27.3323 16.3034 28.5498 17.1418 29.9355 17.3508V29.3426C29.9355 29.7218 30.2433 30.0303 30.6235 30.0303C31.0033 30.0303 31.3111 29.7218 31.3111 29.3426V17.3508C33.4555 17.0229 35.153 15.1552 35.1614 12.8826C35.1688 10.7228 33.6819 8.95561 31.7429 8.46592L35.1155 2.41674C35.4675 1.7857 35.0073 1.01196 34.2912 1.01196H9.69186C8.97507 1.01196 8.51585 1.78637 8.86755 2.41674L12.2402 8.46592C10.3028 8.95528 8.81429 10.7211 8.82166 12.8826C8.82601 14.0535 9.28088 15.1662 10.1028 16.0163C10.8019 16.7385 11.6995 17.2021 12.6719 17.3508V36.1063C11.1499 36.6211 10.0194 37.9967 9.86134 39.65C8.12966 40.1531 6.85986 41.7538 6.85986 43.6473V43.9618C6.85986 44.487 7.28726 44.9144 7.81246 44.9144H36.1706C36.6958 44.9144 37.1232 44.487 37.1232 43.9618V43.6473C37.1232 41.8151 35.9334 40.2563 34.2868 39.7016V39.7016ZM11.7123 4.69473L10.4261 2.3876H33.557L32.2708 4.69473H28.6295C28.2497 4.69473 27.9419 5.00288 27.9419 5.38271C27.9419 5.76255 28.2497 6.07036 28.6295 6.07036H31.5041L30.246 8.32759H13.737L12.479 6.07036H26.0504C26.4303 6.07036 26.7381 5.76255 26.7381 5.38271C26.7381 5.00288 26.4303 4.69473 26.0504 4.69473H11.7123ZM10.1973 12.8775C10.1903 11.0815 11.6352 9.77791 13.316 9.77791H30.667C32.3498 9.77791 33.7928 11.0832 33.7858 12.8775C33.7804 14.358 32.7126 15.6328 31.3111 15.95C29.9841 16.2525 28.5495 15.6626 27.8481 14.3801C27.5929 13.9135 27.0975 13.6238 26.5559 13.6238H17.4272C16.8856 13.6238 16.3902 13.9135 16.1349 14.3801C15.4309 15.6667 13.9953 16.2518 12.6719 15.95C11.2705 15.6328 10.2027 14.358 10.1973 12.8775V12.8775ZM8.23717 43.5388C8.27938 42.4622 8.93353 41.5415 9.86034 41.1151C10.2147 40.952 10.6076 40.8605 11.0219 40.8605H32.9611C33.4314 40.8605 33.8752 40.9777 34.2637 41.1841C35.1155 41.6369 35.7063 42.5182 35.7459 43.5388H8.23717Z" fill="black"/>
<path d="M27.1719 18.2773V34.0538C27.1719 34.4336 27.48 34.7414 27.8599 34.7414C28.2397 34.7414 28.5475 34.4336 28.5475 34.0538V18.2773C28.5475 17.8975 28.2397 17.5894 27.8599 17.5894C27.48 17.5894 27.1719 17.8975 27.1719 18.2773Z" fill="black"/>
<path d="M24.2378 16.8158V34.054C24.2378 34.4338 24.5456 34.7416 24.9254 34.7416C25.3053 34.7416 25.6134 34.4338 25.6134 34.054V16.8158C25.6134 16.436 25.3053 16.1282 24.9254 16.1282C24.5456 16.1282 24.2378 16.436 24.2378 16.8158Z" fill="black"/>
<path d="M21.3037 16.8158V34.054C21.3037 34.4338 21.6115 34.7416 21.9914 34.7416C22.3712 34.7416 22.679 34.4338 22.679 34.054V16.8158C22.679 16.436 22.3712 16.1282 21.9914 16.1282C21.6115 16.1282 21.3037 16.436 21.3037 16.8158Z" fill="black"/>
<path d="M18.3696 16.8158V34.054C18.3696 34.4338 18.6778 34.7416 19.0576 34.7416C19.4374 34.7416 19.7453 34.4338 19.7453 34.054V16.8158C19.7453 16.436 19.4374 16.1282 19.0576 16.1282C18.6778 16.1282 18.3696 16.436 18.3696 16.8158Z" fill="black"/>
<path d="M15.4355 18.2773V34.0538C15.4355 34.4336 15.7434 34.7414 16.1232 34.7414C16.503 34.7414 16.8112 34.4336 16.8112 34.0538V18.2773C16.8112 17.8975 16.503 17.5894 16.1232 17.5894C15.7434 17.5894 15.4355 17.8975 15.4355 18.2773Z" fill="black"/>
</g>
<defs>
<linearGradient id="paint0_linear" x1="10.427" y1="27.4391" x2="32.927" y2="26.8903" gradientUnits="userSpaceOnUse">
<stop stop-color="#5BE2AA"/>
<stop offset="1" stop-color="#DBACFF"/>
</linearGradient>
<linearGradient id="paint1_linear" x1="28.537" y1="25.244" x2="29.6345" y2="25.2441" gradientUnits="userSpaceOnUse">
<stop stop-color="#5BE2AA"/>
<stop offset="1" stop-color="#DBACFF"/>
</linearGradient>
<linearGradient id="paint2_linear" x1="25.2438" y1="23.0489" x2="26.8901" y2="23.0489" gradientUnits="userSpaceOnUse">
<stop stop-color="#5BE2AA"/>
<stop offset="1" stop-color="#DBACFF"/>
</linearGradient>
<linearGradient id="paint3_linear" x1="22.5" y1="24.1465" x2="24.1463" y2="24.1465" gradientUnits="userSpaceOnUse">
<stop stop-color="#5BE2AA"/>
<stop offset="1" stop-color="#DBACFF"/>
</linearGradient>
<linearGradient id="paint4_linear" x1="19.2074" y1="24.1465" x2="21.4025" y2="24.1465" gradientUnits="userSpaceOnUse">
<stop stop-color="#5BE2AA"/>
<stop offset="1" stop-color="#DBACFF"/>
</linearGradient>
<linearGradient id="paint5_linear" x1="16.4635" y1="24.6953" x2="18.1099" y2="24.6953" gradientUnits="userSpaceOnUse">
<stop stop-color="#5BE2AA"/>
<stop offset="1" stop-color="#DBACFF"/>
</linearGradient>
<clipPath id="clip0">
<rect width="43.9024" height="43.9024" fill="white" transform="translate(1.09766)"/>
</clipPath>
<clipPath id="clip1">
<rect width="43.9024" height="43.9024" fill="white" transform="translate(0 1.09766)"/>
</clipPath>
</defs>
</svg>
