<svg height="511pt" viewBox="-79 1 511 511.99996" width="511pt" xmlns="http://www.w3.org/2000/svg"><path d="m98.257812 138.234375c0-12.070313-9.816406-21.890625-21.890624-21.890625-12.070313 0-21.890626 9.820312-21.890626 21.890625s9.820313 21.890625 21.890626 21.890625c12.074218 0 21.890624-9.820312 21.890624-21.890625zm-27.738281 0c0-3.226563 2.625-5.847656 5.847657-5.847656 3.226562 0 5.851562 2.621093 5.851562 5.847656s-2.625 5.847656-5.851562 5.847656c-3.222657 0-5.847657-2.621093-5.847657-5.847656zm0 0"/><path d="m277.570312 160.125c12.070313 0 21.890626-9.820312 21.890626-21.890625s-9.820313-21.890625-21.890626-21.890625c-12.070312 0-21.890624 9.820312-21.890624 21.890625s9.820312 21.890625 21.890624 21.890625zm0-27.738281c3.222657 0 5.847657 2.621093 5.847657 5.847656s-2.625 5.847656-5.847657 5.847656c-3.226562 0-5.847656-2.621093-5.847656-5.847656s2.621094-5.847656 5.847656-5.847656zm0 0"/><path d="m320.359375 451.207031c-1.675781-20.222656-15.8125-36.976562-34.703125-42.519531v-48.210938c0-4.429687-3.589844-8.019531-8.019531-8.019531-4.433594 0-8.023438 3.589844-8.023438 8.019531v46.242188h-135.40625c-4.433593 0-8.023437 3.589844-8.023437 8.023438 0 4.429687 3.589844 8.019531 8.023437 8.019531h135.40625c1.269531.117187 7.984375-.730469 16.042969 3.019531 9.195312 4.269531 16.0625 12.722656 18.160156 22.902344h-251.820312c3.035156-14.765625 16.140625-25.921875 31.824218-25.921875h20.304688c4.421875 0 8.023438-3.589844 8.023438-8.019531 0-4.433594-3.601563-8.023438-8.023438-8.023438h-19.800781v-216.183594c16.160156-2.433594 30.359375-12.203125 38.421875-26.929687.148437-.28125.558594-.480469.992187-.480469 112.554688.207031 106.957031-.449219 107.453125.480469 8.0625 14.726562 22.261719 24.503906 38.421875 26.941406v139.851563c0 4.421874 3.589844 8.019531 8.023438 8.019531 4.429687 0 8.019531-3.597657 8.019531-8.019531v-139.851563c25.007812-3.824219 44.804688-25.605469 44.902344-52.109375.085937-25.1875-17.253906-45.796875-39.867188-51.507812l39.332032-70.546876c4.105468-7.359374-1.261719-16.382812-9.613282-16.382812h-286.882812c-8.359375 0-13.714844 9.03125-9.613282 16.382812l39.332032 70.546876c-22.59375 5.707031-39.953125 26.300781-39.867188 51.507812.050782 13.65625 5.355469 26.632812 14.941406 36.546875 8.152344 8.421875 18.621094 13.828125 29.960938 15.5625v218.730469c-17.75 6.003906-30.933594 22.046875-32.777344 41.328125-20.195312 5.867187-35.003906 24.535156-35.003906 46.617187v3.667969c0 6.125 4.984375 11.109375 11.109375 11.109375h330.71875c6.125 0 11.109375-4.984375 11.109375-11.109375v-3.667969c0-21.367187-13.875-39.546875-33.078125-46.015625zm-263.269531-408.257812-15-26.90625h269.757812l-15 26.90625h-42.464844c-4.429687 0-8.019531 3.59375-8.019531 8.023437 0 4.429688 3.589844 8.019532 8.019531 8.019532h33.523438l-14.671875 26.324218h-192.53125l-14.671875-26.324218h158.273438c4.429687 0 8.019531-3.589844 8.019531-8.019532 0-4.429687-3.589844-8.023437-8.019531-8.023437zm-17.667969 95.429687c-.082031-20.945312 16.769531-36.148437 36.371094-36.148437h202.351562c19.625 0 36.453125 15.222656 36.371094 36.148437-.0625 17.265625-12.515625 32.132813-28.859375 35.832032-15.476562 3.527343-32.207031-3.351563-40.386719-18.308594-2.976562-5.441406-8.753906-8.820313-15.070312-8.820313h-106.460938c-6.316406 0-12.09375 3.378907-15.070312 8.820313-8.210938 15.003906-24.953125 21.828125-40.386719 18.308594-16.34375-3.699219-28.796875-18.566407-28.859375-35.832032zm-22.859375 357.578125c.492188-12.554687 8.121094-23.292969 18.929688-28.265625 4.132812-1.902344 8.714843-2.96875 13.546874-2.96875h255.859376c5.484374 0 10.660156 1.367188 15.191406 3.773438 9.933594 5.28125 16.824218 15.558594 17.285156 27.460937zm0 0"/><path d="m237.378906 201.355469v183.988281c0 4.429688 3.59375 8.019531 8.023438 8.019531 4.429687 0 8.019531-3.589843 8.019531-8.019531v-183.988281c0-4.429688-3.589844-8.023438-8.019531-8.023438-4.429688 0-8.023438 3.59375-8.023438 8.023438zm0 0"/><path d="m203.164062 184.308594v201.035156c0 4.429688 3.589844 8.019531 8.019532 8.019531 4.429687 0 8.023437-3.589843 8.023437-8.019531v-201.035156c0-4.429688-3.59375-8.019532-8.023437-8.019532-4.429688 0-8.019532 3.589844-8.019532 8.019532zm0 0"/><path d="m168.949219 184.308594v201.035156c0 4.429688 3.589843 8.019531 8.019531 8.019531s8.019531-3.589843 8.019531-8.019531v-201.035156c0-4.429688-3.589843-8.019532-8.019531-8.019532s-8.019531 3.589844-8.019531 8.019532zm0 0"/><path d="m134.730469 184.308594v201.035156c0 4.429688 3.59375 8.019531 8.023437 8.019531 4.429688 0 8.019532-3.589843 8.019532-8.019531v-201.035156c0-4.429688-3.589844-8.019532-8.019532-8.019532-4.429687 0-8.023437 3.589844-8.023437 8.019532zm0 0"/><path d="m100.515625 201.355469v183.988281c0 4.429688 3.589844 8.019531 8.019531 8.019531 4.429688 0 8.023438-3.589843 8.023438-8.019531v-183.988281c0-4.429688-3.59375-8.023438-8.023438-8.023438-4.429687 0-8.019531 3.59375-8.019531 8.023438zm0 0"/></svg>