<svg width="52" height="52" viewBox="0 0 52 52" fill="none" xmlns="http://www.w3.org/2000/svg">
<path d="M51.0233 31.6476C51.5626 31.6476 52 31.2048 52 30.6586V25.9113C52 25.3651 51.5626 24.9223 51.0233 24.9223H44.5702L20.2432 0.289657C19.8617 -0.0965523 19.2435 -0.0965523 18.8618 0.289657L15.5467 3.64646C15.3636 3.8319 15.2606 4.08351 15.2606 4.34579C15.2606 4.60808 15.3636 4.85968 15.5467 5.04512C15.8051 5.30662 15.9473 5.65435 15.9473 6.02415C15.9473 6.39394 15.8051 6.74167 15.5467 7.00327C15.2885 7.26476 14.9451 7.40876 14.5798 7.40876C14.2146 7.40876 13.8712 7.26476 13.613 7.00317C13.2315 6.61696 12.6132 6.61696 12.2316 7.00317L8.91655 10.36C8.53513 10.7462 8.53513 11.3723 8.91655 11.7586C9.44965 12.2985 9.44965 13.177 8.91655 13.7168C8.38354 14.2567 7.51591 14.2567 6.98271 13.7168C6.6012 13.3306 5.98293 13.3306 5.60132 13.7168L2.28609 17.0738C2.10295 17.2592 2 17.5108 2 17.7731C2 18.0354 2.10295 18.287 2.28609 18.4724L8.65586 24.9223H6.87488C6.33553 24.9223 5.89815 25.3651 5.89815 25.9113V30.6586C5.89815 31.2048 6.33553 31.6476 6.87488 31.6476C7.62892 31.6476 8.24231 32.2687 8.24231 33.0322C8.24231 33.7957 7.62892 34.4168 6.87488 34.4168C6.33553 34.4168 5.89815 34.8596 5.89815 35.4058V40.1531C5.89815 40.6993 6.33553 41.1421 6.87488 41.1421C7.62892 41.1421 8.24231 41.7632 8.24231 42.5267C8.24231 43.2902 7.62892 43.9113 6.87488 43.9113C6.33553 43.9113 5.89815 44.3541 5.89815 44.9003V49.6476C5.89815 50.1938 6.33553 50.6366 6.87488 50.6366H51.0233C51.5626 50.6366 52 50.1938 52 49.6476V44.9003C52 44.3541 51.5626 43.9113 51.0233 43.9113C50.2692 43.9113 49.6558 43.2902 49.6558 42.5267C49.6558 41.7632 50.2692 41.1421 51.0233 41.1421C51.5626 41.1421 52 40.6993 52 40.1531V35.4058C52 34.8596 51.5626 34.4168 51.0233 34.4168C50.2692 34.4168 49.6558 33.7957 49.6558 33.0322C49.6558 32.2687 50.2692 31.6476 51.0233 31.6476ZM31.4501 24.9223L30.8217 24.286L32.3561 21.248C32.7579 20.4524 32.6145 19.53 31.9903 18.8981C31.3662 18.2662 30.4554 18.1209 29.6695 18.5277L26.6693 20.0815L24.2726 17.6546C23.6486 17.023 22.7379 16.8775 21.9523 17.2839C21.1668 17.6903 20.7497 18.5229 20.8896 19.4047L21.4268 22.7912L18.4158 24.3363C18.1375 24.4791 17.9016 24.6804 17.7206 24.9223H11.4186L9.05456 22.5285L24.249 7.14311L41.8074 24.9223H31.4501ZM6.3956 15.71C7.65021 16.3817 9.24317 16.1835 10.2978 15.1156C11.3523 14.0478 11.5481 12.4346 10.8849 11.1644L13.025 8.99741C13.4982 9.25198 14.0288 9.38689 14.5798 9.38689C15.4669 9.38689 16.3009 9.03707 16.9281 8.40203C17.5554 7.76688 17.9007 6.92247 17.9007 6.02424C17.9007 5.46624 17.7675 4.92901 17.5161 4.44984L19.5527 2.38775L22.8678 5.74455L7.67326 21.1298L4.35813 17.773L6.3956 15.71ZM7.85161 45.741C9.20761 45.3177 10.1958 44.0369 10.1958 42.5267C10.1958 41.0165 9.20761 39.7357 7.85161 39.3124V36.2464C9.20761 35.8231 10.1958 34.5423 10.1958 33.0321C10.1958 31.5219 9.20761 30.2411 7.85161 29.8178V26.9002H12.5399V48.6585H7.85161V45.741ZM50.0465 29.818C48.6905 30.2413 47.7024 31.5221 47.7024 33.0323C47.7024 34.5425 48.6905 35.8233 50.0465 36.2466V39.3126C48.6905 39.7359 47.7024 41.0167 47.7024 42.5269C47.7024 44.0371 48.6905 45.3179 50.0465 45.7412V48.6588H45.3582V42.2302C45.3582 41.684 44.9208 41.2412 44.3815 41.2412C43.8421 41.2412 43.4047 41.684 43.4047 42.2302V48.6588H14.4934V26.9005H43.4047V33.3291C43.4047 33.8753 43.8421 34.3181 44.3815 34.3181C44.9208 34.3181 45.3582 33.8753 45.3582 33.3291V26.9005H50.0465V29.818Z" fill="url(#paint0_linear)"/>
<path d="M34.502 34.3161H31.1126L30.0761 31.0691C29.8046 30.2187 29.0589 29.6693 28.1763 29.6693C27.2939 29.6693 26.5482 30.2188 26.2768 31.0691L25.2403 34.316H21.8509C20.9687 34.316 20.2232 34.8651 19.9515 35.715C19.6798 36.5649 19.9661 37.4522 20.681 37.9756L23.4258 39.9856L22.3757 43.2339C22.101 44.0839 22.3851 44.9727 23.0995 45.4984C23.8141 46.0242 24.7367 46.0232 25.4501 45.4958L28.1765 43.4807L30.9031 45.4958C31.2604 45.7599 31.6702 45.892 32.08 45.892C32.4886 45.892 32.8971 45.7608 33.2538 45.4984C33.9682 44.9727 34.2524 44.0839 33.9775 43.234L32.9275 39.9856L35.6723 37.9756C36.387 37.4521 36.6734 36.5648 36.4017 35.7149C36.1298 34.8652 35.3842 34.3161 34.502 34.3161Z" fill="url(#paint1_linear)"/>
<path d="M44.3817 36.7908C44.1249 36.7908 43.8729 36.8956 43.6912 37.0805C43.5095 37.2645 43.405 37.5196 43.405 37.7797C43.405 38.0398 43.5094 38.2949 43.6912 38.4789C43.873 38.6628 44.1249 38.7686 44.3817 38.7686C44.6386 38.7686 44.8906 38.6628 45.0722 38.4789C45.2539 38.2949 45.3585 38.0398 45.3585 37.7797C45.3585 37.5186 45.254 37.2645 45.0722 37.0805C44.8906 36.8956 44.6386 36.7908 44.3817 36.7908Z" fill="#C6B5F1"/>
<path d="M49.0233 32.6476C49.5626 32.6476 50 32.2048 50 31.6586V26.9113C50 26.3651 49.5626 25.9223 49.0233 25.9223H42.5702L18.2432 1.28966C17.8617 0.903448 17.2435 0.903448 16.8618 1.28966L13.5467 4.64646C13.3636 4.8319 13.2606 5.08351 13.2606 5.34579C13.2606 5.60808 13.3636 5.85968 13.5467 6.04512C13.8051 6.30662 13.9473 6.65435 13.9473 7.02415C13.9473 7.39394 13.8051 7.74167 13.5467 8.00327C13.2885 8.26476 12.9451 8.40876 12.5798 8.40876C12.2146 8.40876 11.8712 8.26476 11.613 8.00317C11.2315 7.61696 10.6132 7.61696 10.2316 8.00317L6.91655 11.36C6.53513 11.7462 6.53513 12.3723 6.91655 12.7586C7.44965 13.2985 7.44965 14.177 6.91655 14.7168C6.38354 15.2567 5.51591 15.2567 4.98271 14.7168C4.6012 14.3306 3.98293 14.3306 3.60132 14.7168L0.286085 18.0738C0.102948 18.2592 0 18.5108 0 18.7731C0 19.0354 0.102948 19.287 0.286085 19.4724L6.65586 25.9223H4.87488C4.33553 25.9223 3.89815 26.3651 3.89815 26.9113V31.6586C3.89815 32.2048 4.33553 32.6476 4.87488 32.6476C5.62892 32.6476 6.24231 33.2687 6.24231 34.0322C6.24231 34.7957 5.62892 35.4168 4.87488 35.4168C4.33553 35.4168 3.89815 35.8596 3.89815 36.4058V41.1531C3.89815 41.6993 4.33553 42.1421 4.87488 42.1421C5.62892 42.1421 6.24231 42.7632 6.24231 43.5267C6.24231 44.2902 5.62892 44.9113 4.87488 44.9113C4.33553 44.9113 3.89815 45.3541 3.89815 45.9003V50.6476C3.89815 51.1938 4.33553 51.6366 4.87488 51.6366H49.0233C49.5626 51.6366 50 51.1938 50 50.6476V45.9003C50 45.3541 49.5626 44.9113 49.0233 44.9113C48.2692 44.9113 47.6558 44.2902 47.6558 43.5267C47.6558 42.7632 48.2692 42.1421 49.0233 42.1421C49.5626 42.1421 50 41.6993 50 41.1531V36.4058C50 35.8596 49.5626 35.4168 49.0233 35.4168C48.2692 35.4168 47.6558 34.7957 47.6558 34.0322C47.6558 33.2687 48.2692 32.6476 49.0233 32.6476V32.6476ZM29.4501 25.9223L28.8217 25.286L30.3561 22.248C30.7579 21.4524 30.6145 20.53 29.9903 19.8981C29.3662 19.2662 28.4554 19.1209 27.6695 19.5277L24.6693 21.0815L22.2726 18.6546C21.6486 18.023 20.7379 17.8775 19.9523 18.2839C19.1668 18.6903 18.7497 19.5229 18.8896 20.4047L19.4268 23.7912L16.4158 25.3363C16.1375 25.4791 15.9016 25.6804 15.7206 25.9223H9.41865L7.05456 23.5285L22.249 8.14311L39.8074 25.9223H29.4501ZM21.4686 24.1902L20.8184 20.091C20.8157 20.0733 20.8169 20.0654 20.8167 20.0654C20.8237 20.0518 20.857 20.0344 20.8709 20.0367C20.871 20.0367 20.8781 20.0398 20.8913 20.0533L23.7906 22.9891C24.0903 23.2924 24.5487 23.3655 24.9261 23.1703L28.5591 21.2889C28.5749 21.2807 28.5828 21.2796 28.5827 21.2794C28.5974 21.2818 28.6239 21.3086 28.6262 21.3226C28.6262 21.3227 28.6253 21.3305 28.6168 21.3474L26.7588 25.0261C26.6141 25.3128 26.6186 25.6458 26.7565 25.9223H19.5952L20.9458 25.2293C21.3247 25.0348 21.5361 24.6149 21.4686 24.1902V24.1902ZM4.3956 16.71C5.65021 17.3817 7.24317 17.1835 8.29785 16.1156C9.35233 15.0478 9.54806 13.4346 8.88486 12.1644L11.025 9.99741C11.4982 10.252 12.0288 10.3869 12.5798 10.3869C13.4669 10.3869 14.3009 10.0371 14.9281 9.40203C15.5554 8.76688 15.9007 7.92247 15.9007 7.02424C15.9007 6.46624 15.7675 5.92901 15.5161 5.44984L17.5527 3.38775L20.8678 6.74455L5.67326 22.1298L2.35813 18.773L4.3956 16.71ZM5.85161 46.741C7.20761 46.3177 8.19578 45.0369 8.19578 43.5267C8.19578 42.0165 7.20761 40.7357 5.85161 40.3124V37.2464C7.20761 36.8231 8.19578 35.5423 8.19578 34.0321C8.19578 32.5219 7.20761 31.2411 5.85161 30.8178V27.9002H10.5399V49.6585H5.85161V46.741ZM48.0465 30.818C46.6905 31.2413 45.7024 32.5221 45.7024 34.0323C45.7024 35.5425 46.6905 36.8233 48.0465 37.2466V40.3126C46.6905 40.7359 45.7024 42.0167 45.7024 43.5269C45.7024 45.0371 46.6905 46.3179 48.0465 46.7412V49.6588H43.3582V43.2302C43.3582 42.684 42.9208 42.2412 42.3815 42.2412C41.8421 42.2412 41.4047 42.684 41.4047 43.2302V49.6588H12.4934V27.9005H41.4047V34.3291C41.4047 34.8753 41.8421 35.3181 42.3815 35.3181C42.9208 35.3181 43.3582 34.8753 43.3582 34.3291V27.9005H48.0465V30.818Z" fill="black"/>
<path d="M32.502 35.3161H29.1126L28.0761 32.0691C27.8046 31.2187 27.0589 30.6693 26.1763 30.6693C25.2939 30.6693 24.5482 31.2188 24.2768 32.0691L23.2403 35.316H19.8509C18.9687 35.316 18.2232 35.8651 17.9515 36.715C17.6798 37.5649 17.9661 38.4522 18.681 38.9756L21.4258 40.9856L20.3757 44.2339C20.101 45.0839 20.3851 45.9727 21.0995 46.4984C21.8141 47.0242 22.7367 47.0232 23.4501 46.4958L26.1765 44.4807L28.9031 46.4958C29.2604 46.7599 29.6702 46.892 30.08 46.892C30.4886 46.892 30.8971 46.7608 31.2538 46.4984C31.9682 45.9727 32.2524 45.0839 31.9775 44.234L30.9275 40.9856L33.6723 38.9756C34.387 38.4521 34.6734 37.5648 34.4017 36.7149C34.1298 35.8652 33.3842 35.3161 32.502 35.3161V35.3161ZM32.5466 37.3551C32.5466 37.3551 32.5424 37.3617 32.5272 37.3729L29.2048 39.806C28.8607 40.058 28.7168 40.5063 28.8489 40.9151L30.1207 44.8496C30.1262 44.8666 30.1261 44.8746 30.1263 44.8746C30.1216 44.8891 30.0913 44.9113 30.0773 44.9115C30.0772 44.9115 30.0697 44.9094 30.0546 44.8983L26.7521 42.4576C26.5806 42.3308 26.3784 42.2674 26.1762 42.2674C25.9741 42.2674 25.7719 42.3308 25.6004 42.4576L22.298 44.8983C22.2837 44.9089 22.2761 44.9112 22.2762 44.9113C22.2612 44.9112 22.2308 44.8889 22.2263 44.8756C22.2263 44.8755 22.2259 44.8676 22.2318 44.8495L23.5036 40.9151C23.6358 40.5063 23.4919 40.058 23.1477 39.806L19.8252 37.3729C19.811 37.3624 19.8064 37.356 19.8062 37.356C19.8016 37.3416 19.8132 37.3055 19.8245 37.2971C19.8246 37.2971 19.8318 37.2942 19.8505 37.2942H23.9508C24.3745 37.2942 24.7498 37.0177 24.8802 36.6094L26.1354 32.6776C26.1409 32.6605 26.1456 32.6541 26.1455 32.6541C26.1577 32.6453 26.1951 32.6453 26.2065 32.6535C26.2065 32.6535 26.2115 32.6596 26.2172 32.6776L27.4723 36.6093C27.6027 37.0175 27.978 37.2941 28.4017 37.2941H32.5019C32.5192 37.2941 32.5268 37.2966 32.5271 37.2966C32.5394 37.3056 32.5509 37.3417 32.5466 37.3551V37.3551Z" fill="black"/>
<path d="M42.3817 37.7908C42.1249 37.7908 41.8729 37.8956 41.6912 38.0805C41.5095 38.2645 41.405 38.5196 41.405 38.7797C41.405 39.0398 41.5094 39.2949 41.6912 39.4789C41.873 39.6628 42.1249 39.7686 42.3817 39.7686C42.6386 39.7686 42.8906 39.6628 43.0722 39.4789C43.2539 39.2949 43.3585 39.0398 43.3585 38.7797C43.3585 38.5186 43.254 38.2645 43.0722 38.0805C42.8906 37.8956 42.6386 37.7908 42.3817 37.7908Z" fill="black"/>
<defs>
<linearGradient id="paint0_linear" x1="2" y1="33" x2="52" y2="33.5" gradientUnits="userSpaceOnUse">
<stop stop-color="#5BE2AA"/>
<stop offset="1" stop-color="#DBACFF"/>
</linearGradient>
<linearGradient id="paint1_linear" x1="6.5" y1="39.5" x2="51.5" y2="39" gradientUnits="userSpaceOnUse">
<stop stop-color="#5BE2AA"/>
<stop offset="1" stop-color="#DBACFF"/>
</linearGradient>
</defs>
</svg>
