<svg id="Layer_1" enable-background="new 0 0 511.992 511.992" height="512" viewBox="0 0 511.992 511.992" width="512" xmlns="http://www.w3.org/2000/svg"><g id="XMLID_868_"><g id="XMLID_356_"><path id="XMLID_359_" d="m501.951 319.992c5.522 0 10-4.477 10-10v-48c0-5.523-4.478-10-10-10h-66.068l-249.064-249.063c-3.906-3.905-10.236-3.905-14.143 0l-33.941 33.941c-1.875 1.875-2.929 4.419-2.929 7.071s1.054 5.196 2.929 7.071c2.645 2.644 4.101 6.16 4.101 9.899s-1.456 7.255-4.101 9.9c-2.644 2.644-6.159 4.1-9.899 4.1-3.739 0-7.255-1.456-9.899-4.101-3.906-3.905-10.236-3.905-14.143 0l-33.94 33.941c-3.905 3.905-3.905 10.236 0 14.142 5.458 5.459 5.458 14.341 0 19.799-5.457 5.459-14.34 5.459-19.799 0-3.906-3.905-10.236-3.905-14.143 0l-33.942 33.943c-1.875 1.875-2.929 4.419-2.929 7.071s1.054 5.196 2.929 7.071l65.215 65.215h-18.234c-5.522 0-10 4.477-10 10v48c0 5.523 4.478 10 10 10 7.72 0 14 6.28 14 14s-6.28 14-14 14c-5.522 0-10 4.477-10 10v48c0 5.523 4.478 10 10 10 7.72 0 14 6.28 14 14s-6.28 14-14 14c-5.522 0-10 4.477-10 10v48c0 5.523 4.478 10 10 10h452c5.522 0 10-4.477 10-10v-48c0-5.523-4.478-10-10-10-7.72 0-14-6.28-14-14s6.28-14 14-14c5.522 0 10-4.477 10-10v-48c0-5.523-4.478-10-10-10-7.72 0-14-6.28-14-14s6.28-14 14-14zm-200.394-68-6.434-6.434 15.71-30.717c4.114-8.044 2.645-17.371-3.745-23.76s-15.715-7.859-23.761-3.745l-30.717 15.71-24.538-24.538c-6.388-6.386-15.712-7.858-23.755-3.748-8.042 4.109-12.313 12.527-10.88 21.443l5.499 34.241-30.827 15.623c-2.849 1.444-5.264 3.479-7.117 5.925h-64.521l-24.204-24.204 155.564-155.563 179.766 179.767zm-81.716-17.513-6.657-41.448c-.028-.179-.015-.259-.017-.259.071-.137.412-.313.554-.29.001 0 .074.032.209.168l29.684 29.684c3.068 3.067 7.761 3.806 11.625 1.832l37.196-19.023c.162-.083.242-.094.241-.096.151.025.422.296.446.437 0 .001-.009.08-.096.251l-19.023 37.196c-1.482 2.898-1.435 6.265-.024 9.061h-73.318l13.827-7.007c3.88-1.966 6.044-6.212 5.353-10.506zm-174.797-75.633c12.845 6.791 29.154 4.787 39.952-6.01 10.796-10.797 12.8-27.108 6.01-39.951l21.911-21.911c4.845 2.574 10.277 3.938 15.919 3.938 9.082 0 17.62-3.537 24.042-9.958 6.422-6.422 9.958-14.96 9.958-24.042 0-5.642-1.364-11.074-3.938-15.919l20.851-20.85 33.941 33.941-155.565 155.562-33.941-33.941zm14.907 303.646c13.883-4.28 24-17.23 24-32.5s-10.117-28.22-24-32.5v-31.001c13.883-4.28 24-17.23 24-32.5s-10.117-28.22-24-32.5v-29.5h48v220h-48zm432-160.999c-13.883 4.28-24 17.23-24 32.5s10.117 28.22 24 32.5v31.001c-13.883 4.28-24 17.23-24 32.5s10.117 28.22 24 32.5v29.5h-48v-65c0-5.523-4.478-10-10-10s-10 4.477-10 10v65h-296v-220h296v65c0 5.523 4.478 10 10 10s10-4.477 10-10v-65h48z"/><path id="XMLID_366_" d="m332.801 346.975h-34.702l-10.612-32.83c-2.779-8.598-10.414-14.153-19.45-14.153-9.035 0-16.669 5.556-19.448 14.153l-10.612 32.829h-34.701c-9.032 0-16.665 5.552-19.447 14.146-2.781 8.593.15 17.565 7.469 22.857l28.102 20.323-10.751 32.844c-2.813 8.594.096 17.581 7.41 22.896 7.316 5.316 16.762 5.306 24.066-.026l27.914-20.375 27.915 20.375c3.658 2.67 7.854 4.006 12.05 4.006 4.183 0 8.365-1.327 12.017-3.98 7.314-5.315 10.224-14.302 7.41-22.895l-10.751-32.845 28.102-20.323c7.318-5.293 10.25-14.265 7.468-22.858-2.784-8.592-10.417-14.144-19.449-14.144zm.456 20.617s-.043.067-.198.18l-34.016 24.601c-3.523 2.548-4.996 7.081-3.644 11.214l13.021 39.782c.057.172.056.253.058.253-.049.146-.359.371-.502.373-.001 0-.078-.021-.233-.134l-33.811-24.678c-1.756-1.282-3.826-1.923-5.896-1.923s-4.14.641-5.896 1.923l-33.81 24.678c-.147.108-.225.131-.224.132-.153-.001-.464-.227-.51-.361 0-.001-.004-.081.056-.264l13.021-39.781c1.353-4.133-.12-8.666-3.644-11.214l-34.016-24.601c-.146-.106-.193-.171-.195-.171-.047-.146.072-.511.187-.596.001 0 .075-.029.267-.029h41.979c4.338 0 8.181-2.796 9.516-6.924l12.851-39.754c.056-.173.104-.238.103-.238.125-.089.508-.089.625-.006 0 0 .051.062.109.244l12.85 39.753c1.335 4.127 5.178 6.924 9.516 6.924h41.979c.177 0 .254.025.258.025.125.091.243.456.199.592z"/><path id="XMLID_367_" d="m433.951 371.996c-2.63 0-5.21 1.06-7.07 2.93-1.86 1.86-2.93 4.44-2.93 7.07s1.069 5.21 2.93 7.07 4.44 2.93 7.07 2.93 5.21-1.07 7.069-2.93c1.86-1.86 2.931-4.44 2.931-7.07 0-2.64-1.07-5.21-2.931-7.07-1.859-1.87-4.439-2.93-7.069-2.93z"/></g></g></svg>