<svg width="51" height="35" viewBox="0 0 51 35" fill="none" xmlns="http://www.w3.org/2000/svg">
<path d="M46.9463 16.7047C47.3019 15.7731 47.4879 14.7763 47.4879 13.7772C47.4879 9.25396 43.808 5.57409 39.2848 5.57409C37.7632 5.57409 36.3089 5.98454 35.0295 6.76549C34.9018 6.63766 34.7723 6.5112 34.6398 6.38727C31.7289 3.66453 27.9295 2.16502 23.9415 2.16502C15.3035 2.16502 8.27595 9.19253 8.27595 17.8306C8.27595 18.267 8.29431 18.7053 8.33093 19.1423C8.27985 19.1412 8.22878 19.1406 8.17771 19.1406C4.21991 19.1406 1 22.3605 1 26.3183C1 30.2761 4.21991 33.4961 8.17771 33.4961H22.6564C23.1957 33.4961 23.6329 33.0588 23.6329 32.5195C23.6329 31.9801 23.1957 31.5429 22.6564 31.5429H8.17771C5.29686 31.5429 2.95312 29.1992 2.95312 26.3183C2.95312 23.4375 5.29686 21.0938 8.17771 21.0938C8.53493 21.0938 8.89313 21.1307 9.24264 21.2029C11.6554 21.702 13.4023 23.8458 13.4023 26.3182C13.4023 26.8576 13.8395 27.2948 14.3789 27.2948C14.9182 27.2948 15.3554 26.8576 15.3554 26.3182C15.3554 23.1621 13.2819 20.3964 10.3276 19.47C10.2625 18.9253 10.2292 18.3762 10.2292 17.8305C10.2292 10.2694 16.3805 4.11804 23.9416 4.11804C31.1034 4.11804 37.111 9.70747 37.6183 16.843C37.6407 17.1582 37.8142 17.4431 38.084 17.6076C38.3539 17.7721 38.6866 17.7958 38.977 17.6714C39.8775 17.2856 40.8341 17.0899 41.8203 17.0899C45.8051 17.0899 49.0469 20.3317 49.0469 24.3164C49.0469 28.3012 45.8051 31.5429 41.8203 31.5429H31.5663C31.0269 31.5429 30.5897 31.9801 30.5897 32.5195C30.5897 33.0588 31.0269 33.4961 31.5663 33.4961H41.8203C46.882 33.4961 51 29.3781 51 24.3164C51 21.1516 49.3901 18.3557 46.9463 16.7047Z" fill="url(#paint0_linear)"/>
<path d="M27.8954 31.8293C27.7128 31.6467 27.4608 31.5431 27.204 31.5431C26.9472 31.5431 26.6952 31.6467 26.5136 31.8293C26.3319 32.0109 26.2274 32.2629 26.2274 32.5197C26.2274 32.7765 26.3319 33.0275 26.5136 33.2101C26.6952 33.3918 26.9472 33.4963 27.204 33.4963C27.4618 33.4963 27.7128 33.3918 27.8954 33.2101C28.077 33.0285 28.1806 32.7765 28.1806 32.5197C28.1806 32.2619 28.077 32.011 27.8954 31.8293Z" fill="url(#paint1_linear)"/>
<path d="M50.663 2.39882C50.2816 2.01747 49.6633 2.01747 49.2818 2.39882L46.2784 5.40222C45.8971 5.78357 45.8971 6.40193 46.2784 6.78337C46.4692 6.97409 46.7192 7.0694 46.9691 7.0694C47.219 7.0694 47.469 6.97409 47.6596 6.78337L50.663 3.77996C51.0443 3.39862 51.0443 2.78026 50.663 2.39882Z" fill="#CDB2F6"/>
<path d="M39.2849 0C38.7456 0 38.3083 0.437205 38.3083 0.976559V3.08944C38.3083 3.6288 38.7456 4.066 39.2849 4.066C39.8243 4.066 40.2615 3.6288 40.2615 3.08944V0.976559C40.2615 0.437108 39.8243 0 39.2849 0Z" fill="url(#paint2_linear)"/>
<path d="M50.0234 12.8005H49.5492C49.0099 12.8005 48.5727 13.2377 48.5727 13.7771C48.5727 14.3164 49.0099 14.7537 49.5492 14.7537H50.0234C50.5628 14.7537 51 14.3164 51 13.7771C51 13.2377 50.5628 12.8005 50.0234 12.8005Z" fill="url(#paint3_linear)"/>
<path d="M23.9705 6.60095H23.9416C23.4023 6.60095 22.9651 7.03816 22.9651 7.57751C22.9651 8.11686 23.4023 8.55407 23.9416 8.55407H23.9583C23.9604 8.55407 23.9624 8.55407 23.9646 8.55407C24.501 8.55417 24.9376 8.12087 24.941 7.58366C24.9444 7.04441 24.5099 6.60447 23.9705 6.60095Z" fill="#94CAD0"/>
<path d="M34.7988 16.7044C34.5105 12.6489 32.0109 9.12135 28.2755 7.49831C27.781 7.28337 27.2057 7.51022 26.9906 8.00485C26.7757 8.49948 27.0025 9.07477 27.4972 9.28971C30.5628 10.6216 32.614 13.5159 32.8506 16.8429C32.8873 17.3574 33.3159 17.7503 33.8237 17.7503C33.8469 17.7503 33.8705 17.7495 33.8939 17.7478C34.4319 17.7095 34.8371 17.2423 34.7988 16.7044Z" fill="url(#paint4_linear)"/>
<path d="M45.9463 17.7047C46.3019 16.7731 46.4879 15.7763 46.4879 14.7772C46.4879 10.254 42.808 6.57409 38.2848 6.57409C36.7632 6.57409 35.3089 6.98454 34.0295 7.76549C33.9018 7.63766 33.7723 7.5112 33.6398 7.38727C30.7289 4.66453 26.9295 3.16502 22.9415 3.16502C14.3035 3.16502 7.27595 10.1925 7.27595 18.8306C7.27595 19.267 7.29431 19.7053 7.33093 20.1423C7.27985 20.1412 7.22878 20.1406 7.17771 20.1406C3.21991 20.1406 0 23.3605 0 27.3183C0 31.2761 3.21991 34.4961 7.17771 34.4961H21.6564C22.1957 34.4961 22.6329 34.0588 22.6329 33.5195C22.6329 32.9801 22.1957 32.5429 21.6564 32.5429H7.17771C4.29686 32.5429 1.95312 30.1992 1.95312 27.3183C1.95312 24.4375 4.29686 22.0938 7.17771 22.0938C7.53493 22.0938 7.89313 22.1307 8.24264 22.2029C10.6554 22.702 12.4023 24.8458 12.4023 27.3182C12.4023 27.8576 12.8395 28.2948 13.3789 28.2948C13.9182 28.2948 14.3554 27.8576 14.3554 27.3182C14.3554 24.1621 12.2819 21.3964 9.3276 20.47C9.26246 19.9253 9.22916 19.3762 9.22916 18.8305C9.22916 11.2694 15.3805 5.11804 22.9416 5.11804C30.1034 5.11804 36.111 10.7075 36.6183 17.843C36.6407 18.1582 36.8142 18.4431 37.084 18.6076C37.3539 18.7721 37.6866 18.7958 37.977 18.6714C38.8775 18.2856 39.8341 18.0899 40.8203 18.0899C44.8051 18.0899 48.0469 21.3317 48.0469 25.3164C48.0469 29.3012 44.8051 32.5429 40.8203 32.5429H30.5663C30.0269 32.5429 29.5897 32.9801 29.5897 33.5195C29.5897 34.0588 30.0269 34.4961 30.5663 34.4961H40.8203C45.882 34.4961 50 30.3781 50 25.3164C50 22.1516 48.3901 19.3557 45.9463 17.7047ZM44.2028 16.7825C43.1555 16.366 42.0143 16.1367 40.8203 16.1367C40.0038 16.1367 39.2029 16.2424 38.4269 16.4521C38.0264 13.8228 36.9652 11.3555 35.3451 9.26051C36.244 8.77838 37.2439 8.52711 38.2849 8.52711C41.7312 8.52711 44.5349 11.3308 44.5349 14.7771C44.5349 15.4696 44.4217 16.1405 44.2028 16.7825Z" fill="black"/>
<path d="M26.8954 32.8293C26.7128 32.6467 26.4608 32.5431 26.204 32.5431C25.9472 32.5431 25.6952 32.6467 25.5136 32.8293C25.3319 33.0109 25.2274 33.2629 25.2274 33.5197C25.2274 33.7765 25.3319 34.0275 25.5136 34.2101C25.6952 34.3918 25.9472 34.4963 26.204 34.4963C26.4618 34.4963 26.7128 34.3918 26.8954 34.2101C27.077 34.0285 27.1806 33.7765 27.1806 33.5197C27.1806 33.2619 27.077 33.011 26.8954 32.8293Z" fill="black"/>
<path d="M49.663 3.39882C49.2816 3.01747 48.6633 3.01747 48.2818 3.39882L45.2784 6.40222C44.8971 6.78357 44.8971 7.40193 45.2784 7.78337C45.4692 7.97409 45.7192 8.0694 45.9691 8.0694C46.219 8.0694 46.469 7.97409 46.6596 7.78337L49.663 4.77996C50.0443 4.39862 50.0443 3.78026 49.663 3.39882Z" fill="black"/>
<path d="M38.2849 1C37.7456 1 37.3083 1.43721 37.3083 1.97656V4.08944C37.3083 4.6288 37.7456 5.066 38.2849 5.066C38.8243 5.066 39.2615 4.6288 39.2615 4.08944V1.97656C39.2615 1.43711 38.8243 1 38.2849 1Z" fill="black"/>
<path d="M49.0234 13.8005H48.5492C48.0099 13.8005 47.5727 14.2377 47.5727 14.7771C47.5727 15.3164 48.0099 15.7537 48.5492 15.7537H49.0234C49.5628 15.7537 50 15.3164 50 14.7771C50 14.2377 49.5628 13.8005 49.0234 13.8005Z" fill="black"/>
<path d="M22.9705 7.60095H22.9416C22.4023 7.60095 21.9651 8.03816 21.9651 8.57751C21.9651 9.11686 22.4023 9.55407 22.9416 9.55407H22.9583C22.9604 9.55407 22.9624 9.55407 22.9646 9.55407C23.501 9.55417 23.9376 9.12087 23.941 8.58366C23.9444 8.04441 23.5099 7.60447 22.9705 7.60095Z" fill="black"/>
<path d="M33.7988 17.7044C33.5105 13.6489 31.0109 10.1213 27.2755 8.49831C26.781 8.28337 26.2057 8.51022 25.9906 9.00485C25.7757 9.49948 26.0025 10.0748 26.4972 10.2897C29.5628 11.6216 31.614 14.5159 31.8506 17.8429C31.8873 18.3574 32.3159 18.7503 32.8237 18.7503C32.8469 18.7503 32.8705 18.7495 32.8939 18.7478C33.4319 18.7095 33.8371 18.2423 33.7988 17.7044Z" fill="black"/>
<defs>
<linearGradient id="paint0_linear" x1="2.5" y1="25" x2="51" y2="24" gradientUnits="userSpaceOnUse">
<stop stop-color="#5BE2AA"/>
<stop offset="1" stop-color="#DBACFF"/>
</linearGradient>
<linearGradient id="paint1_linear" x1="4" y1="32" x2="49" y2="32" gradientUnits="userSpaceOnUse">
<stop stop-color="#5BE2AA"/>
<stop offset="1" stop-color="#DBACFF"/>
</linearGradient>
<linearGradient id="paint2_linear" x1="12" y1="5.5" x2="54" y2="6.5" gradientUnits="userSpaceOnUse">
<stop stop-color="#5BE2AA"/>
<stop offset="1" stop-color="#DBACFF"/>
</linearGradient>
<linearGradient id="paint3_linear" x1="49.7863" y1="12.8005" x2="49.7863" y2="14.7537" gradientUnits="userSpaceOnUse">
<stop stop-color="#D2B0F9"/>
<stop offset="1" stop-color="#D8ADFD"/>
</linearGradient>
<linearGradient id="paint4_linear" x1="10.5" y1="18" x2="50" y2="18" gradientUnits="userSpaceOnUse">
<stop stop-color="#5BE2AA"/>
<stop offset="1" stop-color="#DBACFF"/>
</linearGradient>
</defs>
</svg>
