<svg width="50" height="45" viewBox="0 0 50 45" fill="none" xmlns="http://www.w3.org/2000/svg">
<path d="M44.8967 37.9887H45.2747C47.8802 37.9887 50 36.0117 50 33.5817V28.3497C50 26.8098 49.1612 25.4078 47.756 24.5992L47.2829 24.3269H49.0548C49.5767 24.3269 49.9999 23.9323 49.9999 23.4455V19.9768C49.9999 19.49 49.5767 19.0954 49.0548 19.0954H46.0779C45.7388 19.0954 45.4258 19.2648 45.2574 19.5393L44.3051 21.0929L42.0813 12.6482C41.497 10.4296 39.6385 8.76773 37.3361 8.26656V3.20242C37.3361 1.43661 35.7958 0 33.9024 0H17.7104C15.8171 0 14.2767 1.43661 14.2767 3.20242V8.26656C11.9744 8.76764 10.1158 10.4296 9.53158 12.6482L7.30776 21.0928L6.35543 19.5393C6.18711 19.2647 5.87401 19.0953 5.53493 19.0953H2.558C2.03613 19.0953 1.61294 19.4899 1.61294 19.9767V23.4455C1.61294 23.9323 2.03613 24.3269 2.558 24.3269H4.32998L3.85688 24.5992C2.45177 25.4078 1.61294 26.8098 1.61294 28.3497V33.5817C1.61294 36.0117 3.7327 37.9887 6.33823 37.9887H6.71625V39.3108C6.71625 40.0214 6.93248 40.6856 7.30615 41.2499H6.29116C5.7693 41.2499 5.3461 41.6445 5.3461 42.1313C5.3461 42.6181 5.7693 43.0128 6.29116 43.0128H23.1873C23.7091 43.0128 24.1323 42.6181 24.1323 42.1313C24.1323 41.6445 23.7091 41.2499 23.1873 41.2499H14.0648C14.4385 40.6856 14.6547 40.0214 14.6547 39.3108V37.9887H21.6482C22.17 37.9887 22.5932 37.5941 22.5932 37.1073C22.5932 36.6205 22.17 36.2259 21.6482 36.2259H6.33823C4.77491 36.2259 3.50305 35.0397 3.50305 33.5817V28.3497C3.50305 27.4258 4.00639 26.5845 4.84938 26.0994L7.92942 24.3269H43.6834L46.7634 26.0993C47.6064 26.5844 48.1098 27.4257 48.1098 28.3496V33.5817C48.1098 35.0397 46.8379 36.2259 45.2746 36.2259H29.9251C29.4032 36.2259 28.98 36.6205 28.98 37.1073C28.98 37.5941 29.4032 37.9887 29.9251 37.9887H36.9581V39.3108C36.9581 40.0214 37.1743 40.6856 37.548 41.2499H31.5459C31.0241 41.2499 30.6009 41.6445 30.6009 42.1313C30.6009 42.6181 31.0241 43.0128 31.5459 43.0128H48.4421C48.9639 43.0128 49.3871 42.6181 49.3871 42.1313C49.3871 41.6445 48.9639 41.2499 48.4421 41.2499H44.3068C44.6804 40.6856 44.8967 40.0214 44.8967 39.3108V37.9887ZM8.60637 37.9887H12.7646V39.3108C12.7646 40.3801 11.8319 41.2499 10.6855 41.2499C9.53904 41.2499 8.60637 40.3801 8.60637 39.3108V37.9887ZM3.50305 22.5641V20.8582H4.98661L6.03241 22.5641H3.50305ZM16.1668 3.20242C16.1668 2.40872 16.8593 1.76282 17.7104 1.76282H33.9024C34.7536 1.76282 35.446 2.40872 35.446 3.20242V8.10896H16.1668V3.20242ZM45.5804 22.5641L46.6261 20.8582H48.1098V22.5641H45.5804ZM43.0065 39.3108C43.0065 40.3801 42.0738 41.2499 40.9273 41.2499C39.7809 41.2499 38.8482 40.3801 38.8482 39.3108V37.9887H43.0065V39.3108Z" fill="url(#paint0_linear)"/>
<path d="M43.2837 39.4932H43.6618C46.2673 39.4932 48.387 37.5162 48.387 35.0861V29.8542C48.387 28.3143 47.5482 26.9122 46.1431 26.1036L45.6699 25.8313H47.4419C47.9638 25.8313 48.387 25.4367 48.387 24.9499V21.4812C48.387 20.9944 47.9638 20.5998 47.4419 20.5998H44.465C44.1259 20.5998 43.8129 20.7692 43.6445 21.0438L42.6921 22.5974L40.4683 14.1527C39.8841 11.9341 38.0255 10.2722 35.7232 9.771V4.70687C35.7232 2.94105 34.1828 1.50445 32.2895 1.50445H16.0975C14.2041 1.50445 12.6638 2.94105 12.6638 4.70687V9.771C10.3614 10.2721 8.50287 11.9341 7.91864 14.1527L5.69482 22.5973L4.74249 21.0437C4.57417 20.7691 4.26108 20.5997 3.92199 20.5997H0.945058C0.423197 20.5997 0 20.9943 0 21.4811V24.9499C0 25.4367 0.423197 25.8313 0.945058 25.8313H2.71704L2.24394 26.1036C0.838833 26.9122 0 28.3143 0 29.8542V35.0861C0 37.5162 2.11976 39.4932 4.72529 39.4932H5.10331V40.8153C5.10331 41.5259 5.31954 42.19 5.69322 42.7544H4.67822C4.15636 42.7544 3.73317 43.149 3.73317 43.6358C3.73317 44.1226 4.15636 44.5172 4.67822 44.5172H21.5743C22.0962 44.5172 22.5194 44.1226 22.5194 43.6358C22.5194 43.149 22.0962 42.7544 21.5743 42.7544H12.4519C12.8256 42.19 13.0418 41.5259 13.0418 40.8153V39.4932H20.0352C20.5571 39.4932 20.9803 39.0986 20.9803 38.6118C20.9803 38.125 20.5571 37.7304 20.0352 37.7304H4.72529C3.16197 37.7304 1.89012 36.5441 1.89012 35.0861V29.8542C1.89012 28.9303 2.39345 28.089 3.23644 27.6038L6.31648 25.8313H42.0705L45.1505 27.6038C45.9935 28.0889 46.4968 28.9302 46.4968 29.8541V35.0861C46.4968 36.5441 45.225 37.7304 43.6617 37.7304H28.3121C27.7903 37.7304 27.3671 38.125 27.3671 38.6118C27.3671 39.0986 27.7903 39.4932 28.3121 39.4932H35.3452V40.8153C35.3452 41.5259 35.5614 42.19 35.9351 42.7544H29.933C29.4111 42.7544 28.9879 43.149 28.9879 43.6358C28.9879 44.1226 29.4111 44.5172 29.933 44.5172H46.8291C47.351 44.5172 47.7742 44.1226 47.7742 43.6358C47.7742 43.149 47.351 42.7544 46.8291 42.7544H42.6938C43.0675 42.19 43.2837 41.5259 43.2837 40.8153V39.4932ZM6.99343 39.4932H11.1517V40.8153C11.1517 41.8845 10.219 42.7544 9.07255 42.7544C7.9261 42.7544 6.99343 41.8845 6.99343 40.8153V39.4932ZM1.89012 24.0685V22.3626H3.37367L4.41947 24.0685H1.89012ZM14.5539 4.70687C14.5539 3.91316 15.2463 3.26726 16.0975 3.26726H32.2895C33.1406 3.26726 33.8331 3.91316 33.8331 4.70687V9.61341H14.5539V4.70687ZM17.4143 24.0685L21.7638 20.012C22.1329 19.6677 22.1329 19.1096 21.7638 18.7654C21.3948 18.4212 20.7966 18.4212 20.4272 18.7654L14.7971 24.0163C14.7792 24.0331 14.7627 24.0508 14.7466 24.0685H11.1461L13.4251 15.4141C13.5046 15.1125 13.7926 14.9019 14.1256 14.9019H30.1968L24.4387 20.2722C24.0697 20.6164 24.0697 21.1745 24.4387 21.5187C24.6233 21.6908 24.8651 21.7768 25.107 21.7768C25.3488 21.7768 25.5907 21.6907 25.7752 21.5187L32.8699 14.9019H34.2614C34.5943 14.9019 34.8824 15.1125 34.9617 15.4141L37.2407 24.0685H17.4143ZM39.1869 24.0685L36.7972 14.9937C36.5097 13.9018 35.4669 13.139 34.2613 13.139H14.1257C12.9201 13.139 11.8773 13.9016 11.5897 14.9936L9.19995 24.0685H7.2536L9.75413 14.5732C10.2499 12.6908 12.0475 11.3762 14.1258 11.3762H34.2612C36.3394 11.3762 38.137 12.6908 38.6328 14.5732L41.1334 24.0685H39.1869ZM43.9675 24.0685L45.0132 22.3626H46.4968V24.0685H43.9675ZM41.3935 40.8153C41.3935 41.8845 40.4609 42.7544 39.3144 42.7544C38.168 42.7544 37.2353 41.8845 37.2353 40.8153V39.4932H41.3935V40.8153Z" fill="black"/>
<path d="M24.8618 37.9883C24.6861 37.8243 24.4423 37.73 24.1937 37.73C23.9452 37.73 23.7013 37.8243 23.5256 37.9883C23.3498 38.1522 23.2487 38.3796 23.2487 38.6114C23.2487 38.8432 23.3497 39.0706 23.5256 39.2346C23.7014 39.3985 23.9452 39.4928 24.1937 39.4928C24.4423 39.4928 24.6861 39.3985 24.8618 39.2346C25.0376 39.0706 25.1388 38.8432 25.1388 38.6114C25.1388 38.3796 25.0377 38.1522 24.8618 37.9883Z" fill="#333333"/>
<path d="M7.18335 28.4315C5.20317 28.4315 3.59213 29.934 3.59213 31.7809C3.59213 33.6277 5.20317 35.1302 7.18335 35.1302C9.16353 35.1302 10.7746 33.6277 10.7746 31.7809C10.7746 29.934 9.16353 28.4315 7.18335 28.4315ZM7.18335 33.3674C6.24538 33.3674 5.48225 32.6557 5.48225 31.7809C5.48225 30.9061 6.24538 30.1943 7.18335 30.1943C8.12132 30.1943 8.88446 30.9061 8.88446 31.7809C8.88446 32.6557 8.12132 33.3674 7.18335 33.3674Z" fill="black"/>
<path d="M30.1311 28.3599H18.2569C16.8407 28.3599 15.6885 29.4345 15.6885 30.7553V31.9581C15.6885 33.2789 16.8406 34.3535 18.2569 34.3535H30.1311C31.5474 34.3535 32.6995 33.2789 32.6995 31.9581V30.7553C32.6995 29.4345 31.5474 28.3599 30.1311 28.3599ZM19.4687 32.5907H18.2569C17.8829 32.5907 17.5786 32.3068 17.5786 31.9581V30.7553C17.5786 30.4064 17.8829 30.1227 18.2569 30.1227H19.4687V32.5907ZM23.2489 32.5907H21.3588V30.1227H23.2489V32.5907ZM27.0292 32.5907H25.139V30.1227H27.0292V32.5907ZM30.8094 31.958C30.8094 32.3068 30.5051 32.5906 30.1311 32.5906H28.9193V30.1226H30.1311C30.5051 30.1226 30.8094 30.4064 30.8094 30.7552V31.958Z" fill="black"/>
<path d="M24.1039 16.5817C23.9282 16.4177 23.6844 16.3243 23.4358 16.3243C23.1872 16.3243 22.9434 16.4177 22.7677 16.5817C22.5919 16.7465 22.4908 16.973 22.4908 17.2057C22.4908 17.4375 22.5918 17.6641 22.7677 17.8289C22.9434 17.9928 23.1872 18.0862 23.4358 18.0862C23.6844 18.0862 23.9282 17.9928 24.1039 17.8289C24.2797 17.6641 24.3809 17.4375 24.3809 17.2057C24.3809 16.973 24.2798 16.7465 24.1039 16.5817Z" fill="#333333"/>
<path d="M41.2057 28.4315C39.2255 28.4315 37.6145 29.934 37.6145 31.7809C37.6145 33.6277 39.2255 35.1302 41.2057 35.1302C43.1859 35.1302 44.7969 33.6277 44.7969 31.7809C44.7969 29.934 43.1859 28.4315 41.2057 28.4315ZM41.2057 33.3674C40.2677 33.3674 39.5046 32.6557 39.5046 31.7809C39.5046 30.9061 40.2677 30.1943 41.2057 30.1943C42.1436 30.1943 42.9068 30.9061 42.9068 31.7809C42.9068 32.6557 42.1436 33.3674 41.2057 33.3674Z" fill="black"/>
<path d="M19.2509 4.12651H17.1088C16.5869 4.12651 16.1637 4.52112 16.1637 5.00792C16.1637 5.49473 16.5869 5.88933 17.1088 5.88933H17.2348V7.78436C17.2348 8.27116 17.658 8.66577 18.1799 8.66577C18.7018 8.66577 19.125 8.27116 19.125 7.78436V5.88933H19.2509C19.7728 5.88933 20.196 5.49473 20.196 5.00792C20.196 4.52112 19.7729 4.12651 19.2509 4.12651Z" fill="black"/>
<path d="M31.3015 4.12651C30.7796 4.12651 30.3564 4.52112 30.3564 5.00792V7.78436C30.3564 8.27116 30.7796 8.66577 31.3015 8.66577C31.8233 8.66577 32.2465 8.27116 32.2465 7.78436V5.00792C32.2465 4.52112 31.8233 4.12651 31.3015 4.12651Z" fill="black"/>
<path d="M24.4808 7.52029L23.1418 4.65571C22.9915 4.33435 22.6514 4.12651 22.2755 4.12651C21.8995 4.12651 21.5594 4.33426 21.4091 4.65571L20.0703 7.52029C19.8617 7.96655 20.0805 8.48596 20.559 8.68049C21.0376 8.87502 21.5944 8.67088 21.8029 8.22471L22.2755 7.21365L22.7481 8.22471C22.9031 8.5563 23.2503 8.75409 23.6149 8.75409C23.741 8.75409 23.8691 8.73038 23.9921 8.68049C24.4706 8.48605 24.6893 7.96646 24.4808 7.52029Z" fill="black"/>
<path d="M28.4806 6.44026L29.2568 5.57269C29.5912 5.19889 29.5375 4.64307 29.1367 4.33123C28.7361 4.01948 28.1402 4.06945 27.8056 4.44326L27.2498 5.06456L26.6941 4.44326C26.3597 4.06937 25.7634 4.01939 25.363 4.33123C24.9622 4.64316 24.9084 5.19889 25.2429 5.57269L26.019 6.44026L25.2428 7.30783C24.9084 7.68164 24.9621 8.23737 25.3629 8.5493C25.5397 8.68688 25.7544 8.75396 25.9679 8.75396C26.2383 8.75396 26.507 8.64608 26.694 8.43718L27.2498 7.81588L27.8055 8.43718C27.9925 8.64616 28.261 8.75396 28.5316 8.75396C28.7452 8.75396 28.9599 8.6868 29.1366 8.5493C29.5374 8.23737 29.5912 7.68164 29.2567 7.30783L28.4806 6.44026Z" fill="black"/>
<defs>
<linearGradient id="paint0_linear" x1="1.61294" y1="24.0684" x2="49.1935" y2="24.0684" gradientUnits="userSpaceOnUse">
<stop stop-color="#5BE2AA"/>
<stop offset="1" stop-color="#DBACFF"/>
</linearGradient>
</defs>
</svg>
