<svg width="31" height="30" viewBox="0 0 31 30" fill="none" xmlns="http://www.w3.org/2000/svg">
<path d="M27.8359 25.2539H28.0703C29.6857 25.2539 31 23.9396 31 22.3242V18.8461C31 17.8224 30.4799 16.8904 29.6088 16.3528L29.3154 16.1718H30.414C30.7376 16.1718 30.9999 15.9095 30.9999 15.5859V13.28C30.9999 12.9564 30.7376 12.6941 30.414 12.6941H28.5683C28.3581 12.6941 28.164 12.8067 28.0596 12.9892L27.4691 14.022L26.0904 8.40819C25.7282 6.93333 24.5759 5.82854 23.1484 5.49538V2.12888C23.1484 0.955018 22.1934 0 21.0195 0H10.9804C9.80656 0 8.85155 0.955018 8.85155 2.12888V5.49538C7.42409 5.82849 6.27179 6.93333 5.90956 8.40819L4.53079 14.0219L3.94035 12.9892C3.83599 12.8066 3.64187 12.694 3.43164 12.694H1.58594C1.26238 12.694 1 12.9563 1 13.28V15.5859C1 15.9095 1.26238 16.1718 1.58594 16.1718H2.68457L2.39125 16.3528C1.52008 16.8904 1 17.8224 1 18.8461V22.3242C1 23.9396 2.31426 25.2539 3.92968 25.2539H4.16406V26.1328C4.16406 26.6051 4.29812 27.0466 4.5298 27.4218H3.9005C3.57695 27.4218 3.31457 27.6841 3.31457 28.0078C3.31457 28.3314 3.57695 28.5937 3.9005 28.5937H14.3761C14.6997 28.5937 14.962 28.3314 14.962 28.0078C14.962 27.6841 14.6997 27.4218 14.3761 27.4218H8.72018C8.95186 27.0466 9.08592 26.6051 9.08592 26.1328V25.2539H13.4219C13.7454 25.2539 14.0078 24.9915 14.0078 24.6679C14.0078 24.3443 13.7454 24.082 13.4219 24.082H3.92968C2.96043 24.082 2.17187 23.2934 2.17187 22.3242V18.8461C2.17187 18.2319 2.48394 17.6727 3.0066 17.3502L4.91622 16.1718H27.0837L28.9933 17.3501C29.516 17.6726 29.8281 18.2319 29.8281 18.8461V22.3242C29.8281 23.2934 29.0395 24.082 28.0703 24.082H18.5535C18.23 24.082 17.9676 24.3443 17.9676 24.6679C17.9676 24.9915 18.23 25.2539 18.5535 25.2539H22.914V26.1328C22.914 26.6051 23.0481 27.0466 23.2798 27.4218H19.5585C19.2349 27.4218 18.9725 27.6841 18.9725 28.0078C18.9725 28.3314 19.2349 28.5937 19.5585 28.5937H30.0341C30.3576 28.5937 30.62 28.3314 30.62 28.0078C30.62 27.6841 30.3576 27.4218 30.0341 27.4218H27.4702C27.7019 27.0466 27.8359 26.6051 27.8359 26.1328V25.2539ZM5.33593 25.2539H7.91405V26.1328C7.91405 26.8436 7.33579 27.4218 6.62499 27.4218C5.91419 27.4218 5.33593 26.8436 5.33593 26.1328V25.2539ZM2.17187 15V13.8659H3.09168L3.74007 15H2.17187ZM10.0234 2.12888C10.0234 1.60125 10.4527 1.17187 10.9804 1.17187H21.0195C21.5472 1.17187 21.9765 1.60125 21.9765 2.12888V5.39062H10.0234V2.12888ZM28.2599 15L28.9082 13.8659H29.8281V15H28.2599ZM26.664 26.1328C26.664 26.8436 26.0858 27.4218 25.375 27.4218C24.6642 27.4218 24.0859 26.8436 24.0859 26.1328V25.2539H26.664V26.1328Z" fill="url(#paint0_linear)"/>
<path d="M26.8359 26.2539H27.0703C28.6857 26.2539 30 24.9396 30 23.3242V19.8461C30 18.8224 29.4799 17.8904 28.6088 17.3528L28.3154 17.1718H29.414C29.7376 17.1718 29.9999 16.9095 29.9999 16.5859V14.28C29.9999 13.9564 29.7376 13.6941 29.414 13.6941H27.5683C27.3581 13.6941 27.164 13.8067 27.0596 13.9892L26.4691 15.022L25.0904 9.40819C24.7282 7.93333 23.5759 6.82854 22.1484 6.49538V3.12888C22.1484 1.95502 21.1934 1 20.0195 1H9.98043C8.80656 1 7.85155 1.95502 7.85155 3.12888V6.49538C6.42409 6.82849 5.27179 7.93333 4.90956 9.40819L3.53079 15.0219L2.94035 13.9892C2.83599 13.8066 2.64187 13.694 2.43164 13.694H0.585936C0.262382 13.694 0 13.9563 0 14.28V16.5859C0 16.9095 0.262382 17.1718 0.585936 17.1718H1.68457L1.39125 17.3528C0.520077 17.8904 0 18.8224 0 19.8461V23.3242C0 24.9396 1.31426 26.2539 2.92968 26.2539H3.16406V27.1328C3.16406 27.6051 3.29812 28.0466 3.5298 28.4218H2.9005C2.57695 28.4218 2.31457 28.6841 2.31457 29.0078C2.31457 29.3314 2.57695 29.5937 2.9005 29.5937H13.3761C13.6997 29.5937 13.962 29.3314 13.962 29.0078C13.962 28.6841 13.6997 28.4218 13.3761 28.4218H7.72018C7.95186 28.0466 8.08592 27.6051 8.08592 27.1328V26.2539H12.4219C12.7454 26.2539 13.0078 25.9915 13.0078 25.6679C13.0078 25.3443 12.7454 25.082 12.4219 25.082H2.92968C1.96043 25.082 1.17187 24.2934 1.17187 23.3242V19.8461C1.17187 19.2319 1.48394 18.6727 2.0066 18.3502L3.91622 17.1718H26.0837L27.9933 18.3501C28.516 18.6726 28.8281 19.2319 28.8281 19.8461V23.3242C28.8281 24.2934 28.0395 25.082 27.0703 25.082H17.5535C17.23 25.082 16.9676 25.3443 16.9676 25.6679C16.9676 25.9915 17.23 26.2539 17.5535 26.2539H21.914V27.1328C21.914 27.6051 22.0481 28.0466 22.2798 28.4218H18.5585C18.2349 28.4218 17.9725 28.6841 17.9725 29.0078C17.9725 29.3314 18.2349 29.5937 18.5585 29.5937H29.0341C29.3576 29.5937 29.62 29.3314 29.62 29.0078C29.62 28.6841 29.3576 28.4218 29.0341 28.4218H26.4702C26.7019 28.0466 26.8359 27.6051 26.8359 27.1328V26.2539ZM4.33593 26.2539H6.91405V27.1328C6.91405 27.8436 6.33579 28.4218 5.62499 28.4218C4.91419 28.4218 4.33593 27.8436 4.33593 27.1328V26.2539ZM1.17187 16V14.866H2.09168L2.74007 16H1.17187ZM9.02342 3.12888C9.02342 2.60125 9.45274 2.17187 9.98043 2.17187H20.0195C20.5472 2.17187 20.9765 2.60125 20.9765 3.12888V6.39061H9.02342V3.12888ZM10.7969 16L13.4936 13.3033C13.7224 13.0745 13.7224 12.7034 13.4936 12.4746C13.2648 12.2458 12.8939 12.2458 12.6649 12.4746L9.17424 15.9653C9.16311 15.9764 9.15291 15.9882 9.14289 16H6.91059L8.32358 10.2468C8.37286 10.0463 8.55145 9.90623 8.75787 9.90623H18.722L15.152 13.4763C14.9232 13.7051 14.9232 14.0761 15.152 14.3049C15.2665 14.4193 15.4164 14.4765 15.5663 14.4765C15.7163 14.4765 15.8662 14.4193 15.9807 14.3049L20.3793 9.90623H21.2421C21.4485 9.90623 21.6271 10.0463 21.6763 10.2468L23.0892 16H10.7969ZM24.2959 16L22.8143 9.96729C22.636 9.24143 21.9895 8.73436 21.242 8.73436H8.75793C8.01045 8.73436 7.36393 9.24131 7.18563 9.96723L5.70397 16H4.49724L6.04757 9.68774C6.35495 8.43641 7.46946 7.56249 8.75799 7.56249H21.242C22.5304 7.56249 23.645 8.43641 23.9524 9.68774L25.5027 16H24.2959ZM27.2599 16L27.9082 14.866H28.8281V16H27.2599ZM25.664 27.1328C25.664 27.8436 25.0858 28.4218 24.375 28.4218C23.6642 28.4218 23.0859 27.8436 23.0859 27.1328V26.2539H25.664V27.1328Z" fill="#333333"/>
<path d="M15.4142 25.2537C15.3053 25.1447 15.1541 25.082 15 25.082C14.8459 25.082 14.6947 25.1447 14.5857 25.2537C14.4768 25.3627 14.4141 25.5139 14.4141 25.668C14.4141 25.8221 14.4767 25.9732 14.5857 26.0822C14.6948 26.1912 14.8459 26.2539 15 26.2539C15.1541 26.2539 15.3053 26.1912 15.4142 26.0822C15.5232 25.9732 15.5859 25.8221 15.5859 25.668C15.5859 25.5139 15.5232 25.3627 15.4142 25.2537Z" fill="#333333"/>
<path d="M4.45361 18.9004C3.2259 18.9004 2.22705 19.8992 2.22705 21.1269C2.22705 22.3547 3.2259 23.3535 4.45361 23.3535C5.68132 23.3535 6.68017 22.3547 6.68017 21.1269C6.68017 19.8992 5.68132 18.9004 4.45361 18.9004ZM4.45361 22.1816C3.87207 22.1816 3.39892 21.7085 3.39892 21.1269C3.39892 20.5454 3.87207 20.0723 4.45361 20.0723C5.03515 20.0723 5.50829 20.5454 5.50829 21.1269C5.50829 21.7085 5.03515 22.1816 4.45361 22.1816Z" fill="#333333"/>
<path d="M18.681 18.853H11.319C10.4409 18.853 9.72656 19.5674 9.72656 20.4454V21.245C9.72656 22.123 10.4409 22.8374 11.319 22.8374H18.681C19.5591 22.8374 20.2734 22.1231 20.2734 21.245V20.4454C20.2734 19.5674 19.5591 18.853 18.681 18.853ZM12.0703 21.6655H11.319C11.0871 21.6655 10.8984 21.4769 10.8984 21.245V20.4454C10.8984 20.2135 11.0871 20.0249 11.319 20.0249H12.0703V21.6655ZM14.4141 21.6655H13.2422V20.0249H14.4141V21.6655ZM16.7578 21.6655H15.5859V20.0249H16.7578V21.6655ZM19.1015 21.2449C19.1015 21.4768 18.9129 21.6655 18.681 21.6655H17.9297V20.0248H18.681C18.9129 20.0248 19.1015 20.2135 19.1015 20.4454V21.2449Z" fill="#333333"/>
<path d="M14.9447 11.0231C14.8358 10.9142 14.6846 10.8521 14.5305 10.8521C14.3764 10.8521 14.2252 10.9142 14.1163 11.0231C14.0073 11.1327 13.9446 11.2833 13.9446 11.438C13.9446 11.5921 14.0072 11.7427 14.1163 11.8522C14.2252 11.9612 14.3764 12.0233 14.5305 12.0233C14.6846 12.0233 14.8358 11.9612 14.9447 11.8522C15.0537 11.7427 15.1165 11.5921 15.1165 11.438C15.1165 11.2833 15.0538 11.1327 14.9447 11.0231Z" fill="#333333"/>
<path d="M25.5476 18.9004C24.3199 18.9004 23.321 19.8992 23.321 21.1269C23.321 22.3547 24.3199 23.3535 25.5476 23.3535C26.7753 23.3535 27.7742 22.3547 27.7742 21.1269C27.7742 19.8992 26.7753 18.9004 25.5476 18.9004ZM25.5476 22.1816C24.9661 22.1816 24.4929 21.7085 24.4929 21.1269C24.4929 20.5454 24.9661 20.0723 25.5476 20.0723C26.1291 20.0723 26.6023 20.5454 26.6023 21.1269C26.6023 21.7085 26.1291 22.1816 25.5476 22.1816Z" fill="#333333"/>
<path d="M11.9356 2.74316H10.6074C10.2839 2.74316 10.0215 3.00549 10.0215 3.3291C10.0215 3.65271 10.2839 3.91504 10.6074 3.91504H10.6856V5.1748C10.6856 5.49841 10.948 5.76074 11.2715 5.76074C11.5951 5.76074 11.8575 5.49841 11.8575 5.1748V3.91504H11.9356C12.2591 3.91504 12.5215 3.65271 12.5215 3.3291C12.5215 3.00549 12.2592 2.74316 11.9356 2.74316Z" fill="#333333"/>
<path d="M19.4075 2.74316C19.0839 2.74316 18.8215 3.00549 18.8215 3.3291V5.1748C18.8215 5.49841 19.0839 5.76074 19.4075 5.76074C19.731 5.76074 19.9934 5.49841 19.9934 5.1748V3.3291C19.9934 3.00549 19.731 2.74316 19.4075 2.74316Z" fill="#333333"/>
<path d="M15.1778 4.99925L14.3476 3.09496C14.2544 2.88133 14.0436 2.74316 13.8105 2.74316C13.5774 2.74316 13.3665 2.88127 13.2733 3.09496L12.4433 4.99925C12.3139 5.29591 12.4496 5.64121 12.7462 5.77052C13.043 5.89984 13.3882 5.76413 13.5175 5.46753L13.8105 4.79541L14.1035 5.46753C14.1996 5.68796 14.4149 5.81945 14.6409 5.81945C14.7191 5.81945 14.7985 5.80369 14.8748 5.77052C15.1714 5.64126 15.3071 5.29585 15.1778 4.99925Z" fill="#333333"/>
<path d="M17.6582 4.28128L18.1394 3.70455C18.3468 3.45605 18.3134 3.08656 18.0649 2.87925C17.8166 2.67201 17.4471 2.70523 17.2397 2.95373L16.8951 3.36675L16.5505 2.95373C16.3432 2.70517 15.9735 2.67195 15.7253 2.87925C15.4768 3.08662 15.4434 3.45605 15.6508 3.70455L16.132 4.28128L15.6507 4.85802C15.4434 5.10651 15.4767 5.47595 15.7252 5.68331C15.8348 5.77477 15.9679 5.81936 16.1003 5.81936C16.268 5.81936 16.4346 5.74764 16.5505 5.60878L16.895 5.19575L17.2396 5.60878C17.3555 5.7477 17.522 5.81936 17.6898 5.81936C17.8222 5.81936 17.9554 5.77471 18.0649 5.68331C18.3134 5.47595 18.3468 5.10651 18.1394 4.85802L17.6582 4.28128Z" fill="#333333"/>
<defs>
<linearGradient id="paint0_linear" x1="1" y1="16" x2="30.5" y2="16" gradientUnits="userSpaceOnUse">
<stop stop-color="#5BE2AA"/>
<stop offset="1" stop-color="#DBACFF"/>
</linearGradient>
</defs>
</svg>
