<svg id="Capa_1" enable-background="new 0 0 512 512" height="512" viewBox="0 0 512 512" width="512" xmlns="http://www.w3.org/2000/svg"><g id="XMLID_1210_"><g id="XMLID_43_"><path id="XMLID_1450_" d="m359.554 82.628-12.05-58.665c-2.853-13.885-15.212-23.963-29.387-23.963h-124.234c-14.175 0-26.534 10.078-29.387 23.963l-12.05 58.665c-58.921 35.326-98.446 99.816-98.446 173.372s39.525 138.046 98.446 173.372l12.05 58.665c2.853 13.885 15.212 23.963 29.387 23.963h124.234c14.175 0 26.534-10.078 29.387-23.963l12.035-58.592c9.891-5.904 19.315-12.666 28.143-20.261 4.187-3.602 4.661-9.916 1.059-14.103-3.603-4.187-9.917-4.659-14.103-1.059-32.961 28.36-75.095 43.978-118.638 43.978-100.355 0-182-81.645-182-182s81.645-182 182-182 182 81.645 182 182c0 24.024-4.604 47.364-13.685 69.369-2.106 5.105.325 10.952 5.43 13.059 5.106 2.105 10.952-.324 13.059-5.43 10.083-24.437 15.196-50.343 15.196-76.998 0-73.556-39.525-138.046-98.446-173.372zm-22.84 358.537-8.801 42.847c-.951 4.628-5.071 7.988-9.796 7.988h-124.234c-4.725 0-8.845-3.359-9.796-7.988l-8.804-42.86c24.736 10.826 52.034 16.848 80.717 16.848 27.988 0 55.447-5.826 80.714-16.835zm-161.431-370.317 8.804-42.86c.951-4.628 5.071-7.988 9.796-7.988h124.234c4.725 0 8.845 3.359 9.796 7.988l8.804 42.86c-24.736-10.826-52.034-16.848-80.717-16.848s-55.981 6.022-80.717 16.848z"/><path id="XMLID_1538_" d="m256 288c17.645 0 32-14.355 32-32 0-5.184-1.247-10.079-3.444-14.414l46.834-46.834c3.905-3.905 3.905-10.237 0-14.143s-10.237-3.905-14.143 0l-46.834 46.834c-4.334-2.196-9.229-3.443-14.413-3.443-14.153 0-26.182 9.239-30.391 22h-30.656c-5.523 0-10 4.477-10 10s4.477 10 10 10h30.656c4.209 12.761 16.238 22 30.391 22zm0-44c6.617 0 12 5.383 12 12s-5.383 12-12 12c-6.615 0-11.997-5.381-12-11.995 0-.002 0-.003 0-.005s0-.003 0-.005c.003-6.614 5.385-11.995 12-11.995z"/><path id="XMLID_1670_" d="m256 418c5.523 0 10-4.477 10-10v-6.349c72.552-4.932 130.719-63.099 135.651-135.651h6.349c5.523 0 10-4.477 10-10s-4.477-10-10-10h-6.349c-4.932-72.552-63.099-130.719-135.651-135.651v-6.349c0-5.523-4.477-10-10-10s-10 4.477-10 10v6.349c-72.552 4.932-130.719 63.099-135.651 135.651h-6.349c-5.523 0-10 4.477-10 10s4.477 10 10 10h6.349c4.932 72.552 63.099 130.719 135.651 135.651v6.349c0 5.523 4.477 10 10 10zm-126-162c0-69.477 56.523-126 126-126s126 56.523 126 126-56.523 126-126 126-126-56.523-126-126z"/><path id="XMLID_1674_" d="m411.613 358.47c-2.64 0-5.21 1.07-7.07 2.93-1.87 1.86-2.93 4.44-2.93 7.07s1.06 5.21 2.93 7.07c1.86 1.86 4.43 2.93 7.07 2.93 2.63 0 5.21-1.07 7.07-2.93s2.93-4.44 2.93-7.07-1.07-5.21-2.93-7.07-4.44-2.93-7.07-2.93z"/></g></g></svg>