<svg width="52" height="63" viewBox="0 0 52 63" fill="none" xmlns="http://www.w3.org/2000/svg">
<path d="M39.8161 9.89849L38.3248 2.87067C37.9717 1.2073 36.4421 0 34.6877 0H19.3123C17.5579 0 16.0283 1.2073 15.6752 2.87067L14.1839 9.89849C6.89171 14.1304 2 21.856 2 30.6677C2 39.4794 6.89171 47.2051 14.1839 51.437L15.6752 58.4648C16.0283 60.1281 17.5579 61.3354 19.3123 61.3354H34.6877C36.4421 61.3354 37.9717 60.1281 38.3248 58.4648L39.8142 51.4457C41.0384 50.7384 42.2047 49.9284 43.2973 49.0185C43.8155 48.587 43.8741 47.8306 43.4283 47.329C42.9824 46.8275 42.201 46.7709 41.6829 47.2022C37.6036 50.5996 32.389 52.4706 27 52.4706C14.5798 52.4706 4.47525 42.6898 4.47525 30.6677C4.47525 18.6456 14.5798 8.86489 27 8.86489C39.4202 8.86489 49.5248 18.6456 49.5248 30.6677C49.5248 33.5457 48.955 36.3417 47.8311 38.9778C47.5704 39.5894 47.8713 40.2898 48.5031 40.5423C49.135 40.7944 49.8585 40.5034 50.1193 39.8918C51.3672 36.9643 52 33.8609 52 30.6677C52 21.856 47.1083 14.1304 39.8161 9.89849ZM36.9894 52.8497L35.9001 57.9826C35.7824 58.537 35.2725 58.9395 34.6877 58.9395H19.3123C18.7275 58.9395 18.2176 58.5371 18.0999 57.9826L17.0103 52.8482C20.0717 54.1451 23.4501 54.8665 27 54.8665C30.4639 54.8665 33.8623 54.1685 36.9894 52.8497Z" fill="url(#paint0_linear)"/>
<path d="M27.0007 34.502C29.1845 34.502 30.9611 32.7823 30.9611 30.6685C30.9611 30.0475 30.8067 29.4611 30.5348 28.9418L36.3311 23.3313C36.8144 22.8635 36.8144 22.1049 36.3311 21.637C35.8478 21.1691 35.0642 21.1692 34.5808 21.637L28.7845 27.2475C28.2481 26.9844 27.6423 26.835 27.0007 26.835C25.2491 26.835 23.7603 27.9418 23.2394 29.4705H19.4453C18.7618 29.4705 18.2077 30.0069 18.2077 30.6685C18.2077 31.3301 18.7618 31.8665 19.4453 31.8665H23.2394C23.7603 33.3952 25.2491 34.502 27.0007 34.502Z" fill="url(#paint1_linear)"/>
<path d="M26.999 50.0748C27.6825 50.0748 28.2366 49.5385 28.2366 48.8769V48.1163C37.2158 47.5254 44.4147 40.5573 45.0251 31.8659H45.8109C46.4944 31.8659 47.0485 31.3295 47.0485 30.6679C47.0485 30.0063 46.4944 29.4699 45.8109 29.4699H45.0251C44.4147 20.7785 37.2158 13.8104 28.2366 13.2195V12.4589C28.2366 11.7973 27.6825 11.261 26.999 11.261C26.3155 11.261 25.7614 11.7973 25.7614 12.4589V13.2195C16.7822 13.8104 9.58329 20.7785 8.9729 29.4699H8.18713C7.50359 29.4699 6.94951 30.0063 6.94951 30.6679C6.94951 31.3295 7.50359 31.8659 8.18713 31.8659H8.9729C9.58329 40.5573 16.7822 47.5254 25.7614 48.1163V48.8769C25.7614 49.5385 26.3155 50.0748 26.999 50.0748ZM11.4049 30.6679C11.4049 22.3448 18.4004 15.5736 26.999 15.5736C35.5976 15.5736 42.593 22.3448 42.593 30.6679C42.593 38.9909 35.5976 45.7622 26.999 45.7622C18.4004 45.7622 11.4049 38.9909 11.4049 30.6679Z" fill="url(#paint2_linear)"/>
<path d="M46.2584 42.9424C45.9317 42.9424 45.6136 43.0706 45.3834 43.2935C45.152 43.5163 45.0208 43.8254 45.0208 44.1405C45.0208 44.4556 45.152 44.7648 45.3834 44.9876C45.6136 45.2105 45.9317 45.3387 46.2584 45.3387C46.5839 45.3387 46.9032 45.2105 47.1334 44.9876C47.3635 44.7648 47.496 44.4556 47.496 44.1405C47.496 43.8254 47.3635 43.5163 47.1334 43.2935C46.9032 43.0706 46.5839 42.9424 46.2584 42.9424Z" fill="#C4B5F0"/>
<path d="M37.8161 10.8985L36.3248 3.87067C35.9717 2.2073 34.4421 1 32.6877 1H17.3123C15.5579 1 14.0283 2.2073 13.6752 3.87067L12.1839 10.8985C4.89171 15.1304 0 22.856 0 31.6677C0 40.4794 4.89171 48.2051 12.1839 52.437L13.6752 59.4648C14.0283 61.1281 15.5579 62.3354 17.3123 62.3354H32.6877C34.4421 62.3354 35.9717 61.1281 36.3248 59.4648L37.8142 52.4457C39.0384 51.7384 40.2047 50.9284 41.2973 50.0185C41.8155 49.587 41.8741 48.8306 41.4283 48.329C40.9824 47.8275 40.201 47.7709 39.6829 48.2022C35.6036 51.5996 30.389 53.4706 25 53.4706C12.5798 53.4706 2.47525 43.6898 2.47525 31.6677C2.47525 19.6456 12.5798 9.86489 25 9.86489C37.4202 9.86489 47.5248 19.6456 47.5248 31.6677C47.5248 34.5457 46.955 37.3417 45.8311 39.9778C45.5704 40.5894 45.8713 41.2898 46.5031 41.5423C47.135 41.7944 47.8585 41.5034 48.1193 40.8918C49.3672 37.9643 50 34.8609 50 31.6677C50 22.856 45.1083 15.1304 37.8161 10.8985V10.8985ZM34.9894 53.8497L33.9001 58.9826C33.7824 59.537 33.2725 59.9395 32.6877 59.9395H17.3123C16.7275 59.9395 16.2176 59.5371 16.0999 58.9826L15.0103 53.8482C18.0717 55.1451 21.4501 55.8665 25 55.8665C28.4639 55.8665 31.8623 55.1685 34.9894 53.8497V53.8497ZM15.0103 9.48729L16.0999 4.35284C16.2176 3.79843 16.7275 3.39592 17.3123 3.39592H32.6877C33.2725 3.39592 33.7824 3.79831 33.9001 4.35284L34.9897 9.48729C31.9283 8.19038 28.5499 7.46897 25 7.46897C21.4501 7.46897 18.0717 8.19038 15.0103 9.48729V9.48729Z" fill="black"/>
<path d="M25.0007 35.502C27.1845 35.502 28.9611 33.7823 28.9611 31.6685C28.9611 31.0475 28.8067 30.4611 28.5348 29.9418L34.3311 24.3313C34.8144 23.8635 34.8144 23.1049 34.3311 22.637C33.8478 22.1691 33.0642 22.1692 32.5808 22.637L26.7845 28.2475C26.2481 27.9844 25.6423 27.835 25.0007 27.835C23.2491 27.835 21.7603 28.9418 21.2394 30.4705H17.4453C16.7618 30.4705 16.2077 31.0069 16.2077 31.6685C16.2077 32.3301 16.7618 32.8665 17.4453 32.8665H21.2394C21.7603 34.3952 23.2491 35.502 25.0007 35.502V35.502ZM25.0007 30.231C25.8196 30.231 26.4858 30.8758 26.4858 31.6685C26.4858 32.4612 25.8196 33.106 25.0007 33.106C24.182 33.106 23.5159 32.4614 23.5155 31.6691C23.5155 31.6689 23.5155 31.6687 23.5155 31.6685C23.5155 31.6683 23.5155 31.6681 23.5155 31.6679C23.5159 30.8756 24.182 30.231 25.0007 30.231Z" fill="black"/>
<path d="M24.999 51.0748C25.6825 51.0748 26.2366 50.5385 26.2366 49.8769V49.1163C35.2158 48.5254 42.4147 41.5573 43.0251 32.8659H43.8109C44.4944 32.8659 45.0485 32.3295 45.0485 31.6679C45.0485 31.0063 44.4944 30.4699 43.8109 30.4699H43.0251C42.4147 21.7785 35.2158 14.8104 26.2366 14.2195V13.4589C26.2366 12.7973 25.6825 12.261 24.999 12.261C24.3155 12.261 23.7614 12.7973 23.7614 13.4589V14.2195C14.7822 14.8104 7.58329 21.7785 6.9729 30.4699H6.18713C5.50359 30.4699 4.94951 31.0063 4.94951 31.6679C4.94951 32.3295 5.50359 32.8659 6.18713 32.8659H6.9729C7.58329 41.5573 14.7822 48.5254 23.7614 49.1163V49.8769C23.7614 50.5385 24.3155 51.0748 24.999 51.0748ZM9.40495 31.6679C9.40495 23.3448 16.4004 16.5736 24.999 16.5736C33.5976 16.5736 40.593 23.3448 40.593 31.6679C40.593 39.9909 33.5976 46.7622 24.999 46.7622C16.4004 46.7622 9.40495 39.9909 9.40495 31.6679Z" fill="black"/>
<path d="M44.2584 43.9424C43.9317 43.9424 43.6136 44.0706 43.3834 44.2935C43.152 44.5163 43.0208 44.8254 43.0208 45.1405C43.0208 45.4556 43.152 45.7648 43.3834 45.9876C43.6136 46.2105 43.9317 46.3387 44.2584 46.3387C44.5839 46.3387 44.9032 46.2105 45.1334 45.9876C45.3635 45.7648 45.496 45.4556 45.496 45.1405C45.496 44.8254 45.3635 44.5163 45.1334 44.2935C44.9032 44.0706 44.5839 43.9424 44.2584 43.9424Z" fill="black"/>
<defs>
<linearGradient id="paint0_linear" x1="2" y1="31" x2="52" y2="31" gradientUnits="userSpaceOnUse">
<stop stop-color="#5BE2AA"/>
<stop offset="1" stop-color="#DBACFF"/>
</linearGradient>
<linearGradient id="paint1_linear" x1="2.50001" y1="32.5" x2="52" y2="32.5" gradientUnits="userSpaceOnUse">
<stop stop-color="#5BE2AA"/>
<stop offset="1" stop-color="#DBACFF"/>
</linearGradient>
<linearGradient id="paint2_linear" x1="2.5" y1="31" x2="52" y2="31" gradientUnits="userSpaceOnUse">
<stop stop-color="#5BE2AA"/>
<stop offset="1" stop-color="#DBACFF"/>
</linearGradient>
</defs>
</svg>
