<svg height="512pt" viewBox="0 0 512 512" width="512pt" xmlns="http://www.w3.org/2000/svg"><path d="m509.070312 477.074219-113.441406-113.441407c13.34375-9.195312 24.183594-21.777343 31.253906-36.496093.96875-1.246094 1.652344-2.722657 1.945313-4.339844 4.617187-11.023437 7.171875-23.117187 7.171875-35.796875v-107c0-29.535156-7.152344-57.425781-19.8125-82.042969-.25-.625-.566406-1.21875-.9375-1.773437-30.195312-57.144532-90.246094-96.183594-159.25-96.183594s-129.054688 39.039062-159.25 96.183594c-.371094.558594-.6875 1.148437-.9375 1.773437-12.660156 24.617188-19.8125 52.507813-19.8125 82.042969v107c0 12.679688 2.554688 24.773438 7.167969 35.796875.296875 1.617187.976562 3.09375 1.949219 4.339844 7.070312 14.71875 17.910156 27.300781 31.253906 36.496093l-113.441406 113.441407c-3.90625 3.90625-3.90625 10.238281 0 14.144531 1.953124 1.949219 4.511718 2.925781 7.070312 2.925781s5.117188-.976562 7.070312-2.925781l117.730469-117.734375c3.792969 1.507813 7.710938 2.765625 11.726563 3.765625l-80.550782 119.148438c-3.09375 4.574218-1.894531 10.792968 2.683594 13.882812 1.714844 1.164062 3.664063 1.71875 5.589844 1.71875 3.210938 0 6.363281-1.542969 8.292969-4.398438l24.070312-35.601562h298.773438l24.066406 35.601562c1.933594 2.859376 5.085937 4.398438 8.292969 4.398438 1.929687 0 3.875-.554688 5.59375-1.71875 4.574218-3.089844 5.777344-9.308594 2.683594-13.882812l-80.550782-119.148438c4.015625-1 7.929688-2.257812 11.722656-3.765625l117.734376 117.734375c1.953124 1.949219 4.511718 2.925781 7.070312 2.925781s5.117188-.976562 7.070312-2.925781c3.90625-3.90625 3.90625-10.238281 0-14.144531zm-166.070312-117.074219h-174c-23.742188 0-44.863281-11.398438-58.203125-29h3.105469c21.191406 0 38.429687-17.238281 38.429687-38.429688 0-9.507812-3.5-18.632812-9.855469-25.699218l-46.476562-51.675782v-35.195312c0-16.507812 2.511719-32.441406 7.175781-47.433594 12.277344 38.5625 30.179688 71.839844 52.539063 97.355469 29.195312 33.316406 63.871094 50.925781 100.285156 50.925781s71.089844-17.609375 100.285156-50.925781c22.355469-25.515625 40.261719-58.792969 52.535156-97.355469 4.664063 14.992188 7.179688 30.925782 7.179688 47.433594v35.195312l-46.480469 51.675782c-6.351562 7.066406-9.851562 16.191406-9.851562 25.699218 0 21.1875 17.238281 38.429688 38.425781 38.429688h3.109375c-13.34375 17.601562-34.464844 29-58.203125 29zm-247-73v-41.894531l31.605469 35.140625c3.046875 3.390625 4.726562 7.765625 4.726562 12.324218 0 10.160157-8.265625 18.429688-18.429687 18.429688h-13.832032c-2.625-7.523438-4.070312-15.59375-4.070312-24zm320 0c0 8.40625-1.445312 16.476562-4.074219 24h-13.832031c-10.160156 0-18.429688-8.269531-18.429688-18.429688 0-4.558593 1.679688-8.9375 4.726563-12.324218l31.609375-35.140625zm-19.703125-183.851562c-11.175781 45.972656-30.167969 85.191406-55.054687 113.59375-25.285157 28.855468-54.761719 44.105468-85.242188 44.105468-18.535156 0-36.699219-5.648437-53.773438-16.558594l115.597657-115.597656c3.90625-3.90625 3.90625-10.238281 0-14.144531-3.90625-3.902344-10.234375-3.902344-14.144531 0l-117.582032 117.585937c-5.257812-4.601562-10.378906-9.730468-15.339844-15.390624-9.132812-10.421876-17.464843-22.308594-24.917968-35.441407l154.921875-154.917969c41.039062 11.976563 75.308593 39.984376 95.535156 76.765626zm-140.296875-83.148438c7.261719 0 14.410156.496094 21.417969 1.4375l-141.183594 141.183594c-8.410156-18.082032-15.324219-38.042969-20.53125-59.472656 27.230469-49.515626 79.90625-83.148438 140.296875-83.148438zm-135.867188 432 13.5625-20.0625h244.605469l13.566407 20.0625zm244.648438-40.0625h-217.5625l21.59375-31.941406c.0625 0 .125.003906.1875.003906h174c.0625 0 .125-.003906.1875-.003906zm0 0"/><path d="m283.28125 309h-56.609375c-5.523437 0-10 4.476562-10 10 0 5.519531 4.476563 10 10 10h56.609375c5.519531 0 10-4.480469 10-10 0-5.523438-4.480469-10-10-10zm0 0"/><path d="m342.539062 99.828125c2.640626 0 5.210938-1.066406 7.082032-2.929687 1.859375-1.867188 2.929687-4.4375 2.929687-7.070313 0-2.628906-1.070312-5.207031-2.929687-7.066406-1.859375-1.863281-4.441406-2.933594-7.082032-2.933594-2.628906 0-5.199218 1.070313-7.070312 2.933594-1.859375 1.859375-2.917969 4.429687-2.917969 7.066406 0 2.632813 1.058594 5.210937 2.917969 7.070313 1.871094 1.863281 4.441406 2.929687 7.070312 2.929687zm0 0"/></svg>