<svg width="31" height="32" viewBox="0 0 31 32" fill="none" xmlns="http://www.w3.org/2000/svg">
<path d="M30.8283 28.5889L24.1814 21.7909C24.9632 21.2398 25.5984 20.4858 26.0127 19.6038C26.0694 19.5291 26.1095 19.4407 26.1266 19.3437C26.3972 18.6832 26.5469 17.9584 26.5469 17.1986V10.7866C26.5469 9.01667 26.1278 7.34531 25.386 5.87012C25.3713 5.83266 25.3528 5.79708 25.3311 5.76384C23.5618 2.33943 20.0432 0 16 0C11.9568 0 8.4382 2.33943 6.66895 5.76384C6.6472 5.79732 6.62866 5.83266 6.61401 5.87012C5.87221 7.34531 5.45312 9.01667 5.45312 10.7866V17.1986C5.45312 17.9584 5.60281 18.6832 5.87312 19.3437C5.89052 19.4407 5.93034 19.5291 5.98734 19.6038C6.40161 20.4858 7.03676 21.2398 7.81862 21.7909L1.17166 28.5889C0.94278 28.823 0.94278 29.2024 1.17166 29.4365C1.2861 29.5533 1.43602 29.6118 1.58594 29.6118C1.73586 29.6118 1.88577 29.5533 2.00021 29.4365L8.89848 22.3812C9.12073 22.4716 9.3503 22.5469 9.58559 22.6069L4.86581 29.7469C4.68454 30.021 4.75481 30.3937 5.02306 30.5788C5.12354 30.6486 5.23775 30.6818 5.35059 30.6818C5.53873 30.6818 5.72343 30.5894 5.8365 30.4182L7.24687 28.2848H24.7531L26.1633 30.4182C26.2766 30.5896 26.4613 30.6818 26.6492 30.6818C26.7623 30.6818 26.8762 30.6486 26.9769 30.5788C27.245 30.3937 27.3155 30.021 27.1342 29.7469L22.4144 22.6069C22.6497 22.5469 22.879 22.4716 23.1013 22.3812L29.9998 29.4365C30.1142 29.5533 30.2641 29.6118 30.4141 29.6118C30.564 29.6118 30.7139 29.5533 30.8283 29.4365C31.0572 29.2024 31.0572 28.823 30.8283 28.5889ZM21.0977 21.5732H10.9023C9.5112 21.5732 8.27364 20.8901 7.492 19.8353H7.67397C8.91565 19.8353 9.9257 18.8023 9.9257 17.5324C9.9257 16.9626 9.72063 16.4158 9.34824 15.9924L6.625 12.8957V10.7866C6.625 9.79734 6.77217 8.84251 7.04546 7.9441C7.76483 10.255 8.8138 12.2491 10.1239 13.7782C11.8346 15.7747 13.8664 16.8299 16 16.8299C18.1336 16.8299 20.1654 15.7747 21.8761 13.7782C23.186 12.2491 24.2352 10.255 24.9543 7.9441C25.2276 8.84251 25.375 9.79734 25.375 10.7866V12.8957L22.6515 15.9924C22.2794 16.4158 22.0743 16.9626 22.0743 17.5324C22.0743 18.8021 23.0844 19.8353 24.3258 19.8353H24.508C23.7261 20.8901 22.4886 21.5732 21.0977 21.5732ZM8.03903 27.0863L8.83371 25.884H23.1661L23.961 27.0863H8.03903ZM22.3739 24.6855H9.6261L10.8914 22.7714C10.895 22.7714 10.8987 22.7717 10.9023 22.7717H21.0977C21.1013 22.7717 21.105 22.7714 21.1086 22.7714L22.3739 24.6855Z" fill="url(#paint0_linear)"/>
<path d="M29.8283 29.657L23.1814 22.859C23.9632 22.3079 24.5984 21.554 25.0127 20.6719C25.0694 20.5973 25.1095 20.5088 25.1266 20.4119C25.3972 19.7513 25.5469 19.0266 25.5469 18.2667V11.8547C25.5469 10.0848 25.1278 8.41343 24.386 6.93823C24.3713 6.90078 24.3528 6.8652 24.3311 6.83196C22.5618 3.40755 19.0432 1.06812 15 1.06812C10.9568 1.06812 7.4382 3.40755 5.66895 6.83196C5.6472 6.86543 5.62866 6.90078 5.61401 6.93823C4.87221 8.41343 4.45312 10.0848 4.45312 11.8547V18.2667C4.45312 19.0266 4.60281 19.7513 4.87312 20.4119C4.89052 20.5088 4.93034 20.5973 4.98734 20.6719C5.40161 21.554 6.03676 22.3079 6.81862 22.859L0.171661 29.657C-0.0572205 29.8911 -0.0572205 30.2705 0.171661 30.5046C0.286102 30.6214 0.43602 30.6799 0.585938 30.6799C0.735855 30.6799 0.885773 30.6214 1.00021 30.5046L7.89848 23.4493C8.12073 23.5397 8.3503 23.6151 8.58559 23.675L3.86581 30.815C3.68454 31.0891 3.75481 31.4618 4.02306 31.6469C4.12354 31.7167 4.23775 31.7499 4.35059 31.7499C4.53873 31.7499 4.72343 31.6575 4.8365 31.4864L6.24687 29.3529H23.7531L25.1633 31.4864C25.2766 31.6577 25.4613 31.7499 25.6492 31.7499C25.7623 31.7499 25.8762 31.7167 25.9769 31.6469C26.245 31.4618 26.3155 31.0891 26.1342 30.815L21.4144 23.675C21.6497 23.6151 21.879 23.5397 22.1013 23.4493L28.9998 30.5046C29.1142 30.6214 29.2641 30.6799 29.4141 30.6799C29.564 30.6799 29.7139 30.6214 29.8283 30.5046C30.0572 30.2705 30.0572 29.8911 29.8283 29.657V29.657ZM20.0977 22.6413H9.90234C8.5112 22.6413 7.27364 21.9582 6.492 20.9034H6.67397C7.91565 20.9034 8.9257 19.8704 8.9257 18.6005C8.9257 18.0308 8.72063 17.4839 8.34824 17.0605L5.625 13.9638V11.8547C5.625 10.8655 5.77217 9.91063 6.04546 9.01222C6.76483 11.3231 7.8138 13.3172 9.12392 14.8463C10.8346 16.8428 12.8664 17.898 15 17.898C17.1336 17.898 19.1654 16.8428 20.8761 14.8463C22.186 13.3172 23.2352 11.3231 23.9543 9.01222C24.2276 9.91063 24.375 10.8655 24.375 11.8547V13.9638L21.6515 17.0605C21.2794 17.4839 21.0743 18.0308 21.0743 18.6005C21.0743 19.8702 22.0844 20.9034 23.3258 20.9034H23.508C22.7261 21.9582 21.4886 22.6413 20.0977 22.6413ZM5.625 18.2667V15.7562L7.47688 17.862C7.65541 18.0652 7.75383 18.3273 7.75383 18.6005C7.75383 19.2094 7.26952 19.7049 6.67397 19.7049H5.86349C5.70969 19.2541 5.625 18.7705 5.625 18.2667V18.2667ZM24.375 18.2667C24.375 18.7705 24.2903 19.2541 24.1363 19.7049H23.3258C22.7305 19.7049 22.2459 19.2094 22.2459 18.6005C22.2459 18.3273 22.3444 18.0649 22.5229 17.862L24.375 15.7562V18.2667ZM23.2205 7.24933C22.5657 10.0043 21.4529 12.3545 19.9947 14.0565C18.5131 15.7857 16.786 16.6995 15 16.6995C13.914 16.6995 12.8497 16.361 11.8492 15.7072L18.6225 8.78C18.8514 8.54592 18.8514 8.16647 18.6225 7.93239C18.3936 7.69854 18.0228 7.69854 17.7937 7.93239L10.9042 14.9788C10.5961 14.703 10.296 14.3957 10.0053 14.0565C9.47021 13.432 8.98201 12.7196 8.5453 11.9326L17.6228 2.64912C20.0274 3.36682 22.0354 5.0452 23.2205 7.24933V7.24933ZM15 2.26662C15.4255 2.26662 15.8443 2.29635 16.255 2.35277L7.98248 10.8133C7.4897 9.72968 7.08458 8.53351 6.77948 7.24933C8.37502 4.28208 11.4615 2.26662 15 2.26662V2.26662ZM7.03903 28.1544L7.83371 26.9522H22.1661L22.961 28.1544H7.03903ZM21.3739 25.7536H8.6261L9.89136 23.8395C9.89502 23.8395 9.89868 23.8398 9.90234 23.8398H20.0977C20.1013 23.8398 20.105 23.8395 20.1086 23.8395L21.3739 25.7536Z" fill="black"/>
<path d="M16.9029 20H13.5859C13.2623 20 13 20.2683 13 20.5993C13 20.93 13.2623 21.1985 13.5859 21.1985H16.9029C17.2263 21.1985 17.4888 20.93 17.4888 20.5993C17.4888 20.2683 17.2263 20 16.9029 20Z" fill="black"/>
<path d="M20.5853 7.19849C20.74 7.19849 20.8906 7.13458 21.0002 7.02293C21.1092 6.91104 21.1719 6.75701 21.1719 6.59924C21.1719 6.44171 21.1092 6.28722 21.0002 6.17579C20.8913 6.06414 20.74 6 20.5853 6C20.4312 6 20.2806 6.06414 20.171 6.17579C20.062 6.28722 20 6.44124 20 6.59924C20 6.75701 20.062 6.9115 20.171 7.02293C20.2806 7.13458 20.4312 7.19849 20.5853 7.19849Z" fill="black"/>
<defs>
<linearGradient id="paint0_linear" x1="1" y1="16.5" x2="31" y2="16.5" gradientUnits="userSpaceOnUse">
<stop stop-color="#5BE2AA"/>
<stop offset="0.9999" stop-color="#F3ACFF"/>
<stop offset="1" stop-opacity="0"/>
</linearGradient>
</defs>
</svg>
