<svg width="50" height="49" viewBox="0 0 50 49" fill="none" xmlns="http://www.w3.org/2000/svg">
<path d="M49.7231 43.6054L39.0024 33.2367C40.2634 32.3962 41.2878 31.2462 41.956 29.9009C42.0476 29.787 42.1122 29.652 42.1398 29.5042C42.5762 28.4967 42.8176 27.3913 42.8176 26.2323V16.4523C42.8176 13.7528 42.1417 11.2035 40.9452 8.95345C40.9216 8.89632 40.8917 8.84205 40.8566 8.79135C38.003 3.56824 32.328 0 25.8067 0C19.2855 0 13.6104 3.56824 10.7568 8.79135C10.7218 8.84241 10.6919 8.89632 10.6682 8.95345C9.4718 11.2035 8.79587 13.7528 8.79587 16.4523V26.2323C8.79587 27.3913 9.0373 28.4967 9.47327 29.5042C9.50133 29.652 9.56556 29.787 9.65748 29.9009C10.3257 31.2462 11.3501 32.3962 12.6111 33.2367L1.89036 43.6054C1.5212 43.9625 1.5212 44.5412 1.89036 44.8983C2.07494 45.0764 2.31674 45.1657 2.55854 45.1657C2.80034 45.1657 3.04214 45.0764 3.22672 44.8983L14.3528 34.1371C14.7113 34.275 15.0815 34.3899 15.461 34.4813L7.8486 45.3717C7.55623 45.7898 7.66956 46.3582 8.10221 46.6406C8.26428 46.747 8.44849 46.7977 8.63048 46.7977C8.93393 46.7977 9.23184 46.6567 9.41421 46.3957L11.689 43.1416H39.9245L42.1989 46.3957C42.3816 46.657 42.6796 46.7977 42.9826 46.7977C43.165 46.7977 43.3488 46.747 43.5113 46.6406C43.9436 46.3582 44.0573 45.7898 43.7649 45.3717L36.1524 34.4813C36.5319 34.3899 36.9018 34.275 37.2603 34.1371L48.3868 44.8983C48.5713 45.0764 48.8131 45.1657 49.0549 45.1657C49.2967 45.1657 49.5385 45.0764 49.7231 44.8983C50.0923 44.5412 50.0923 43.9625 49.7231 43.6054ZM34.0287 32.9046H17.5848C15.3411 32.9046 13.345 31.8628 12.0843 30.254H12.3778C14.3805 30.254 16.0096 28.6784 16.0096 26.7415C16.0096 25.8724 15.6788 25.0384 15.0782 24.3925L10.686 19.6692V16.4523C10.686 14.9435 10.9233 13.4871 11.3641 12.1168C12.5244 15.6415 14.2162 18.6831 16.3293 21.0153C19.0884 24.0605 22.3654 25.67 25.8067 25.67C29.2481 25.67 32.5251 24.0605 35.2842 21.0153C37.3969 18.6831 39.0891 15.6415 40.249 12.1168C40.6898 13.4871 40.9275 14.9435 40.9275 16.4523V19.6692L36.5349 24.3925C35.9346 25.0384 35.6039 25.8724 35.6039 26.7415C35.6039 28.678 37.233 30.254 39.2353 30.254H39.5291C38.2681 31.8628 36.2721 32.9046 34.0287 32.9046ZM12.9666 41.3136L14.2484 39.4799H37.3648L38.6469 41.3136H12.9666ZM36.0871 37.6518H15.5264L17.5671 34.7323C17.573 34.7323 17.5789 34.7327 17.5848 34.7327H34.0287C34.0346 34.7327 34.0405 34.7323 34.0464 34.7323L36.0871 37.6518Z" fill="url(#paint0_linear)"/>
<path d="M48.1096 45.2347L37.3889 34.8659C38.6499 34.0254 39.6743 32.8754 40.3425 31.5301C40.4341 31.4162 40.4987 31.2812 40.5264 31.1334C40.9627 30.1259 41.2041 29.0205 41.2041 27.8615V18.0815C41.2041 15.382 40.5282 12.8327 39.3318 10.5827C39.3081 10.5255 39.2782 10.4713 39.2432 10.4206C36.3895 5.19746 30.7145 1.62922 24.1933 1.62922C17.672 1.62922 11.997 5.19746 9.14335 10.4206C9.10828 10.4716 9.07838 10.5255 9.05475 10.5827C7.8583 12.8327 7.18237 15.382 7.18237 18.0815V27.8615C7.18237 29.0205 7.4238 30.1259 7.85978 31.1334C7.88784 31.2812 7.95207 31.4162 8.04399 31.5301C8.71217 32.8754 9.73659 34.0254 10.9976 34.8659L0.27687 45.2347C-0.0922899 45.5917 -0.0922899 46.1705 0.27687 46.5275C0.46145 46.7057 0.703249 46.7949 0.945049 46.7949C1.18685 46.7949 1.42865 46.7057 1.61323 46.5275L12.7393 35.7664C13.0978 35.9042 13.4681 36.0191 13.8475 36.1105L6.23511 47.0009C5.94273 47.419 6.05607 47.9874 6.48872 48.2698C6.65078 48.3762 6.83499 48.4269 7.01699 48.4269C7.32044 48.4269 7.61835 48.2859 7.80071 48.0249L10.0755 44.7709H38.311L40.5854 48.0249C40.7682 48.2863 41.0661 48.4269 41.3691 48.4269C41.5515 48.4269 41.7354 48.3762 41.8978 48.2698C42.3301 47.9874 42.4438 47.419 42.1514 47.0009L34.539 36.1105C34.9184 36.0191 35.2883 35.9042 35.6468 35.7664L46.7733 46.5275C46.9579 46.7057 47.1997 46.7949 47.4415 46.7949C47.6833 46.7949 47.9251 46.7057 48.1096 46.5275C48.4788 46.1705 48.4788 45.5917 48.1096 45.2347V45.2347ZM32.4152 34.5339H15.9713C13.7276 34.5339 11.7315 33.492 10.4708 31.8832H10.7643C12.767 31.8832 14.3961 30.3076 14.3961 28.3707C14.3961 27.5016 14.0654 26.6676 13.4647 26.0217L9.07247 21.2985V18.0815C9.07247 16.5727 9.30984 15.1163 9.75062 13.746C10.9109 17.2707 12.6027 20.3123 14.7158 22.6445C17.4749 25.6897 20.7519 27.2992 24.1933 27.2992C27.6346 27.2992 30.9116 25.6897 33.6707 22.6445C35.7834 20.3123 37.4756 17.2707 38.6355 13.746C39.0763 15.1163 39.314 16.5727 39.314 18.0815V21.2985L34.9214 26.0217C34.3211 26.6676 33.9904 27.5016 33.9904 28.3707C33.9904 30.3072 35.6195 31.8832 37.6218 31.8832H37.9157C36.6546 33.492 34.6586 34.5339 32.4152 34.5339ZM9.07247 27.8615V24.0323L12.0593 27.2442C12.3473 27.5541 12.506 27.954 12.506 28.3707C12.506 29.2993 11.7249 30.0552 10.7643 30.0552H9.45713C9.20906 29.3675 9.07247 28.6299 9.07247 27.8615V27.8615ZM39.314 27.8615C39.314 28.6299 39.1774 29.3675 38.929 30.0552H37.6218C36.6616 30.0552 35.8801 29.2993 35.8801 28.3707C35.8801 27.954 36.0388 27.5538 36.3268 27.2442L39.314 24.0323V27.8615ZM37.452 11.0572C36.3958 15.2592 34.601 18.8438 32.2491 21.4398C29.8595 24.0773 27.0738 25.4712 24.1933 25.4712C22.4416 25.4712 20.725 24.9549 19.1114 23.9577L30.0359 13.3918C30.4051 13.0348 30.4051 12.4561 30.0359 12.099C29.6668 11.7423 29.0687 11.7423 28.6992 12.099L17.5871 22.8466C17.0902 22.426 16.6063 21.9572 16.1374 21.4398C15.2744 20.4873 14.4869 19.4008 13.7826 18.2004L28.4235 4.04066C32.3018 5.13534 35.5405 7.6953 37.452 11.0572V11.0572ZM24.1933 3.45726C24.8795 3.45726 25.5551 3.5026 26.2174 3.58865L12.8748 16.4931C12.08 14.8404 11.4266 13.0159 10.9345 11.0572C13.5079 6.53136 18.486 3.45726 24.1933 3.45726V3.45726ZM11.3531 42.9428L12.6349 41.1091H35.7513L37.0334 42.9428H11.3531ZM34.4736 39.281H13.9129L15.9536 36.3615C15.9595 36.3615 15.9654 36.3619 15.9713 36.3619H32.4152C32.4211 36.3619 32.427 36.3615 32.4329 36.3615L34.4736 39.281Z" fill="black"/>
<path d="M27.2627 30.5055H21.9128C21.3909 30.5055 20.9678 30.9147 20.9678 31.4196C20.9678 31.9241 21.3909 32.3336 21.9128 32.3336H27.2627C27.7843 32.3336 28.2078 31.9241 28.2078 31.4196C28.2078 30.9147 27.7843 30.5055 27.2627 30.5055Z" fill="black"/>
<path d="M33.2018 10.9794C33.4514 10.9794 33.6943 10.882 33.8711 10.7117C34.0468 10.541 34.148 10.3061 34.148 10.0654C34.148 9.82516 34.0468 9.58952 33.8711 9.41957C33.6954 9.24926 33.4514 9.15144 33.2018 9.15144C32.9534 9.15144 32.7105 9.24926 32.5337 9.41957C32.3579 9.58952 32.2579 9.82444 32.2579 10.0654C32.2579 10.3061 32.3579 10.5417 32.5337 10.7117C32.7105 10.882 32.9534 10.9794 33.2018 10.9794Z" fill="black"/>
<defs>
<linearGradient id="paint0_linear" x1="1.6135" y1="25.1668" x2="50" y2="25.1668" gradientUnits="userSpaceOnUse">
<stop stop-color="#5BE2AA"/>
<stop offset="0.9999" stop-color="#F3ACFF"/>
<stop offset="1" stop-opacity="0"/>
</linearGradient>
</defs>
</svg>
