<svg width="56" height="56" viewBox="0 0 56 56" fill="none" xmlns="http://www.w3.org/2000/svg">
<path d="M19.0442 37.1925C21.3093 40.3862 23.5707 43.2426 25.0695 45.0823C25.2876 45.35 25.4921 45.5983 25.6901 45.8376H21.1673C20.661 45.8376 20.2506 46.2479 20.2506 46.7542C20.2506 47.2605 20.661 47.6708 21.1673 47.6708H35.8338C36.3401 47.6708 36.7505 47.2605 36.7505 46.7542C36.7505 46.2479 36.3401 45.8376 35.8338 45.8376H31.311C31.509 45.5983 31.7134 45.3499 31.9326 45.0823C33.4304 43.2489 35.691 40.3862 37.9569 37.1925C40.2052 34.0875 42.2288 30.8259 44.0124 27.4328C45.8843 23.7569 46.834 20.7054 46.834 18.3624C46.8402 13.4939 44.9083 8.82317 41.465 5.38136C41.235 5.14288 40.8943 5.04706 40.5737 5.13074C40.2532 5.21442 40.0027 5.4645 39.9186 5.78494C39.8345 6.10538 39.9297 6.44624 40.1679 6.67655C43.2672 9.77504 45.0061 13.9797 45.0006 18.3623C45.0006 20.4138 44.1188 23.1857 42.379 26.6004C40.6356 29.9149 38.6579 33.1008 36.461 36.1338C34.2262 39.2862 31.9922 42.1104 30.5118 43.9254C30.0196 44.5286 29.5768 45.0621 29.1991 45.5131C29.0228 45.7145 28.7682 45.8298 28.5007 45.8298C28.2331 45.8298 27.9785 45.7143 27.8022 45.5131C27.4245 45.0622 26.9818 44.5286 26.4895 43.9254C25.0091 42.1114 22.7751 39.2871 20.5403 36.1338C18.3434 33.1008 16.3657 29.9149 14.6223 26.6004C12.8807 23.1857 12.0007 20.4138 12.0007 18.3623C12.0002 11.7226 15.9709 5.72651 22.0841 3.13548C26.1917 1.41307 30.819 1.41307 34.9267 3.13548C35.2283 3.26331 35.5752 3.22067 35.8367 3.02333C36.0983 2.8261 36.2347 2.50427 36.1947 2.1791C36.1546 1.85393 35.9442 1.57485 35.6425 1.44702C26.3077 -2.49023 15.5485 1.88337 11.6084 11.2169C10.6529 13.4777 10.1628 15.9079 10.1674 18.3623C10.1674 20.7053 11.1171 23.7569 12.989 27.4373C14.7724 30.8289 16.7961 34.089 19.0442 37.1925Z" fill="url(#paint0_linear)"/>
<circle cx="28.9999" cy="17.5439" r="9" fill="url(#paint1_linear)"/>
<path d="M55.6548 50.0278L50.0173 39.9444C49.5076 39.0485 48.5538 38.4979 47.5231 38.5043H40.99C40.4837 38.5043 40.0733 38.9147 40.0733 39.421C40.0733 39.9273 40.4837 40.3376 40.99 40.3376H47.5231C47.89 40.3305 48.2324 40.5218 48.4187 40.8381L54.0543 50.9215C54.2079 51.1838 54.2046 51.5092 54.0461 51.7685C53.8588 52.0779 53.5202 52.2632 53.1588 52.2544H3.84194C3.48079 52.263 3.14262 52.0776 2.95549 51.7685C2.79694 51.5092 2.79382 51.1838 2.94722 50.9215L8.58292 40.8381C8.76887 40.5219 9.1109 40.3306 9.47753 40.3376H16.0106C16.5169 40.3376 16.9273 39.9273 16.9273 39.421C16.9273 38.9147 16.5169 38.5043 16.0106 38.5043H9.47764C8.44639 38.4976 7.49183 39.0482 6.98158 39.9444L1.34491 50.0278C0.87494 50.858 0.885789 51.8764 1.37338 52.6963C1.88707 53.5695 2.82906 54.1004 3.84194 54.0879H53.1588C54.1713 54.1001 55.113 53.5692 55.6265 52.6963C56.1141 51.8763 56.1249 50.858 55.6548 50.0278Z" fill="url(#paint2_linear)"/>
<path d="M45.9174 43.0876H42.2508C42.0698 43.088 41.8928 43.1415 41.742 43.2417L38.992 45.0751C38.5708 45.3561 38.4572 45.9253 38.7381 46.3465C39.0191 46.7677 39.5883 46.8814 40.0095 46.6005L42.5258 44.9211H45.9174C46.4237 44.9211 46.834 44.5107 46.834 44.0045C46.834 43.498 46.4237 43.0876 45.9174 43.0876Z" fill="url(#paint3_linear)"/>
<path d="M40.4174 49.5043C40.4174 50.0106 40.8277 50.4209 41.334 50.4209H48.6674C49.1737 50.4209 49.584 50.0106 49.584 49.5043C49.584 48.998 49.1737 48.5876 48.6674 48.5876H41.334C40.8277 48.5876 40.4174 48.998 40.4174 49.5043Z" fill="url(#paint4_linear)"/>
<path d="M17.5002 46.7543C17.9043 46.7549 18.261 46.4906 18.3784 46.1039C18.4959 45.7172 18.3461 45.2992 18.0099 45.075L15.2599 43.2416C15.1088 43.1413 14.9315 43.0877 14.7502 43.0876H11.0835C10.5773 43.0876 10.1669 43.498 10.1669 44.0042C10.1669 44.5105 10.5774 44.9208 11.0835 44.9208H14.4752L16.9942 46.6002C17.1441 46.7003 17.3201 46.7539 17.5002 46.7543Z" fill="url(#paint5_linear)"/>
<path d="M8.33353 48.5876C7.82725 48.5876 7.4169 48.998 7.4169 49.5043C7.4169 50.0106 7.82725 50.4209 8.33353 50.4209H15.6669C16.1732 50.4209 16.5835 50.0106 16.5835 49.5043C16.5835 48.998 16.1732 48.5876 15.6669 48.5876H8.33353Z" fill="url(#paint6_linear)"/>
<path d="M18.0441 38.3634C20.3092 41.611 22.5707 44.5155 24.0694 46.3862C24.2876 46.6584 24.492 46.9109 24.69 47.1542H20.1672C19.6609 47.1542 19.2506 47.5715 19.2506 48.0863C19.2506 48.6011 19.6609 49.0184 20.1672 49.0184H34.8338C35.3401 49.0184 35.7504 48.6011 35.7504 48.0863C35.7504 47.5715 35.3401 47.1542 34.8338 47.1542H30.311C30.509 46.9109 30.7134 46.6583 30.9325 46.3862C32.4303 44.5219 34.6909 41.611 36.9569 38.3634C39.2051 35.2061 41.2287 31.8895 43.0124 28.4392C44.8842 24.7013 45.8339 21.5983 45.8339 19.2159C45.8402 14.2653 43.9083 9.51585 40.465 6.01602C40.235 5.77352 39.8942 5.67608 39.5737 5.76118C39.2531 5.84627 39.0026 6.10056 38.9185 6.42641C38.8344 6.75225 38.9297 7.09885 39.1678 7.33304C42.2672 10.4838 44.006 14.7593 44.0006 19.2158C44.0006 21.3019 43.1187 24.1205 41.3789 27.5927C39.6356 30.9631 37.6578 34.2028 35.4609 37.2868C33.2261 40.4924 30.9921 43.3643 29.5118 45.2099C29.0195 45.8232 28.5768 46.3657 28.1991 46.8243C28.0228 47.029 27.7682 47.1463 27.5006 47.1463C27.233 47.1463 26.9784 47.0289 26.8021 46.8243C26.4244 46.3658 25.9818 45.8232 25.4894 45.2099C24.009 43.3652 21.7751 40.4933 19.5403 37.2868C17.3434 34.2028 15.3656 30.9631 13.6223 27.5927C11.8806 24.1205 11.0006 21.3019 11.0006 19.2158C11.0001 12.4642 14.9709 6.36698 21.084 3.73228C25.1917 1.98084 29.819 1.98084 33.9266 3.73228C34.2282 3.86227 34.5751 3.8189 34.8367 3.61824C35.0983 3.41769 35.2347 3.09043 35.1946 2.75978C35.1545 2.42913 34.9441 2.14534 34.6425 2.01535C25.3077 -1.98826 14.5485 2.45906 10.6083 11.9499C9.6528 14.2488 9.16274 16.72 9.16736 19.2158C9.16736 21.5982 10.1171 24.7013 11.9889 28.4438C13.7723 31.8926 15.7961 35.2076 18.0441 38.3634Z" fill="black"/>
<path d="M27.5003 10.8014C28.0065 10.8014 28.4169 10.3842 28.4169 9.86935C28.4169 9.35453 28.0065 8.93726 27.5003 8.93726C23.1271 8.93715 19.3628 12.0785 18.5096 16.4399C17.6563 20.8014 19.9518 25.1683 23.9921 26.8702C28.0323 28.572 32.6922 27.1346 35.1219 23.4372C37.5515 19.7398 37.0742 14.8119 33.982 11.6674C33.7518 11.4252 33.4111 11.3279 33.0905 11.4133C32.7701 11.4986 32.5198 11.7531 32.4359 12.0789C32.352 12.4049 32.4476 12.7514 32.6858 12.9854C35.1598 15.501 35.5417 19.4431 33.5981 22.4011C31.6545 25.3592 27.9266 26.5092 24.6944 25.1479C21.4622 23.7866 19.6257 20.2931 20.308 16.8039C20.9904 13.3147 24.0018 10.8015 27.5003 10.8014Z" fill="black"/>
<path d="M54.6549 51.4152L49.0174 41.1618C48.5077 40.2508 47.5539 39.6909 46.5231 39.6974H39.99C39.4838 39.6974 39.0734 40.1147 39.0734 40.6295C39.0734 41.1443 39.4838 41.5616 39.99 41.5616H46.5231C46.8901 41.5544 47.2325 41.7489 47.4187 42.0705L53.0544 52.3239C53.2079 52.5907 53.2047 52.9216 53.0461 53.1853C52.8589 53.4999 52.5203 53.6883 52.1588 53.6793H2.84203C2.48088 53.6881 2.14272 53.4995 1.95559 53.1853C1.79703 52.9216 1.79392 52.5907 1.94731 52.3239L7.58301 42.0705C7.76896 41.749 8.11099 41.5545 8.47762 41.5616H15.0107C15.517 41.5616 15.9274 41.1443 15.9274 40.6295C15.9274 40.1147 15.517 39.6974 15.0107 39.6974H8.47773C7.44647 39.6905 6.49192 40.2505 5.98166 41.1618L0.345004 51.4152C-0.124969 52.2594 -0.114119 53.2949 0.373471 54.1287C0.887164 55.0166 1.82915 55.5565 2.84203 55.5437H52.1588C53.1714 55.5562 54.1131 55.0163 54.6265 54.1287C55.1141 53.2948 55.125 52.2594 54.6549 51.4152Z" fill="black"/>
<path d="M44.9175 44.358H41.2508C41.0698 44.3583 40.8929 44.4127 40.7421 44.5146L37.9921 46.3789C37.5709 46.6646 37.4572 47.2434 37.7382 47.6717C38.0192 48.1 38.5884 48.2156 39.0096 47.93L41.5258 46.2223H44.9175C45.4238 46.2223 45.8341 45.805 45.8341 45.2903C45.8341 44.7752 45.4238 44.358 44.9175 44.358Z" fill="black"/>
<path d="M39.4175 50.8828C39.4175 51.3976 39.8278 51.8149 40.3341 51.8149H47.6675C48.1738 51.8149 48.5841 51.3976 48.5841 50.8828C48.5841 50.3679 48.1738 49.9507 47.6675 49.9507H40.3341C39.8278 49.9507 39.4175 50.3679 39.4175 50.8828Z" fill="black"/>
<path d="M16.5003 48.0866C16.9044 48.0871 17.2611 47.8184 17.3785 47.4251C17.496 47.0319 17.3462 46.6069 17.01 46.3789L14.26 44.5146C14.1089 44.4126 13.9316 44.3581 13.7503 44.358H10.0836C9.57734 44.358 9.16699 44.7753 9.16699 45.2901C9.16699 45.8049 9.57745 46.2221 10.0836 46.2221H13.4753L15.9943 47.9298C16.1442 48.0316 16.3202 48.0861 16.5003 48.0866Z" fill="black"/>
<path d="M7.33362 49.9507C6.82734 49.9507 6.41699 50.3679 6.41699 50.8828C6.41699 51.3976 6.82734 51.8149 7.33362 51.8149H14.667C15.1733 51.8149 15.5836 51.3976 15.5836 50.8828C15.5836 50.3679 15.1733 49.9507 14.667 49.9507H7.33362Z" fill="black"/>
<defs>
<linearGradient id="paint0_linear" x1="3.99991" y1="20.0439" x2="52.4999" y2="21.0439" gradientUnits="userSpaceOnUse">
<stop stop-color="#5BE2AA"/>
<stop offset="1" stop-color="#DBACFF"/>
</linearGradient>
<linearGradient id="paint1_linear" x1="13.4999" y1="17.5439" x2="45.9999" y2="17.5439" gradientUnits="userSpaceOnUse">
<stop stop-color="#5BE2AA"/>
<stop offset="1" stop-color="#DBACFF"/>
</linearGradient>
<linearGradient id="paint2_linear" x1="3.99991" y1="46.5439" x2="53.4999" y2="46.5439" gradientUnits="userSpaceOnUse">
<stop stop-color="#5BE2AA"/>
<stop offset="1" stop-color="#DBACFF"/>
</linearGradient>
<linearGradient id="paint3_linear" x1="38.4999" y1="45.0439" x2="46.4999" y2="45.0439" gradientUnits="userSpaceOnUse">
<stop stop-color="#B3BDE5"/>
<stop offset="1" stop-color="#DBACFF"/>
</linearGradient>
<linearGradient id="paint4_linear" x1="41.4999" y1="49.5439" x2="49.9999" y2="49.5439" gradientUnits="userSpaceOnUse">
<stop stop-color="#BBBAEA"/>
<stop offset="1" stop-color="#DBACFF"/>
</linearGradient>
<linearGradient id="paint5_linear" x1="10.4999" y1="44.5439" x2="18.4999" y2="44.5439" gradientUnits="userSpaceOnUse">
<stop stop-color="#5BE2AA"/>
<stop offset="1" stop-color="#81D2C3"/>
</linearGradient>
<linearGradient id="paint6_linear" x1="7.49991" y1="49.5439" x2="16.4999" y2="49.5439" gradientUnits="userSpaceOnUse">
<stop stop-color="#5BE2AA"/>
<stop offset="1" stop-color="#7CD5C0"/>
</linearGradient>
</defs>
</svg>
